<svg width="48" height="48" viewBox="0 0 48 48" fill="none" xmlns="http://www.w3.org/2000/svg">
<path d="M23.9974 0.666016C11.1104 0.666016 0.664062 11.1123 0.664062 23.9993C0.664062 36.8863 11.1104 47.3327 23.9974 47.3327C36.8844 47.3327 47.3307 36.8863 47.3307 23.9993C47.3307 11.1123 36.8844 0.666016 23.9974 0.666016ZM32.7474 26.3327C32.7474 27.2987 31.9634 28.0827 30.9974 28.0827C30.0314 28.0827 29.2474 27.2987 29.2474 26.3327V21.2251L18.2341 32.2384C17.8935 32.579 17.4454 32.7516 16.9974 32.7516C16.5494 32.7516 16.1013 32.5814 15.7607 32.2384C15.077 31.5547 15.077 30.4463 15.7607 29.7626L26.7739 18.7493H21.6641C20.6981 18.7493 19.9141 17.9653 19.9141 16.9993C19.9141 16.0333 20.6981 15.2493 21.6641 15.2493H30.9974C31.2261 15.2493 31.4526 15.2963 31.6673 15.3849C32.0943 15.5623 32.435 15.9029 32.6147 16.3323C32.7033 16.5469 32.7497 16.773 32.7497 17.0016V26.3327H32.7474Z" fill="white"/>
</svg>
