<svg width="40" height="40" viewBox="0 0 40 40" fill="none" xmlns="http://www.w3.org/2000/svg">
<g style="mix-blend-mode:multiply">
<rect width="40" height="40" rx="20" fill="#E0EDFF"/>
<path d="M14.5 19.3V28.7C14.5 28.866 14.366 29 14.2 29H12.5C11.672 29 11 28.328 11 27.5V20.5C11 19.672 11.672 19 12.5 19H14.2C14.365 19 14.5 19.134 14.5 19.3ZM25.8979 17H21.998V13.76C21.998 12.76 21.498 11.82 20.658 11.27C20.388 11.09 20.078 11 19.778 11C19.148 11 18.538 11.38 18.298 12.03L16.0129 18.954C16.0029 18.984 15.998 19.016 15.998 19.048V28.7C15.998 28.866 16.132 29 16.298 29H23.897C25.907 29 26.3369 28.17 26.7469 26.95L28.7469 20.95C29.3979 19.01 28.9079 17 25.8979 17Z" fill="#1E58C9"/>
</g>
</svg>
