<svg width="40" height="40" viewBox="0 0 40 40" fill="none" xmlns="http://www.w3.org/2000/svg">
<g style="mix-blend-mode:multiply">
<rect width="40" height="40" rx="20" fill="#E0EDFF"/>
<path d="M21.492 22.1818L17.8182 18.508C17.6952 18.385 17.493 18.3919 17.379 18.5239L11.5501 25.26C10.7801 26.15 10.82 27.5 11.66 28.34C12.1 28.78 12.6801 29 13.2601 29C13.7901 29 14.3201 28.8199 14.7401 28.4499L21.4761 22.621C21.6081 22.507 21.615 22.3048 21.492 22.1818ZM18.4771 22.583L17.484 23.5749C17.338 23.7209 17.1452 23.7939 16.9542 23.7939C16.7622 23.7939 16.5701 23.7209 16.4241 23.5739C16.1311 23.2809 16.1311 22.8059 16.4241 22.5129L17.4171 21.5209C17.7111 21.2289 18.1861 21.2289 18.4781 21.5209C18.7701 21.8149 18.7701 22.29 18.4771 22.583ZM27.5731 18.5129L21.4871 12.427C21.3581 12.298 21.369 12.077 21.515 11.968C23.341 10.6 25.616 10.63 27.493 12.507C29.37 14.384 29.4001 16.6591 28.0321 18.4851C27.9231 18.6311 27.7021 18.6419 27.5731 18.5129ZM19.9261 13.4399C18.5991 14.7669 18.3771 15.9459 18.5501 17.0429C18.5601 17.1069 18.592 17.1668 18.638 17.2128L22.783 21.3579C22.829 21.4039 22.888 21.436 22.953 21.446C24.05 21.619 25.229 21.397 26.556 20.07C26.556 20.07 26.7881 19.8529 26.5631 19.6289C26.3751 19.4409 20.613 13.6791 20.377 13.4431C20.142 13.2071 19.9261 13.4399 19.9261 13.4399Z" fill="#2B6DDA"/>
</g>
</svg>
