<svg width="40" height="40" viewBox="0 0 40 40" fill="none" xmlns="http://www.w3.org/2000/svg">
<g style="mix-blend-mode:multiply">
<rect width="40" height="40" rx="20" fill="#73FFEA"/>
<path d="M26.5 10.25H24V18L22 16.8571L20 18V10.25H15C12.582 10.25 11.25 11.582 11.25 14V26C11.25 28.243 12.757 29.75 15 29.75H26.5C27.74 29.75 28.75 28.741 28.75 27.5V21.5V12.5C28.75 11.259 27.74 10.25 26.5 10.25ZM27.25 27.5C27.25 27.914 26.913 28.25 26.5 28.25H15C12.97 28.25 12.75 26.676 12.75 26C12.75 25.324 12.97 23.75 15 23.75H26.5C26.645 23.75 26.7851 23.733 26.9221 23.707C26.9661 23.699 27.008 23.684 27.051 23.673C27.117 23.656 27.186 23.644 27.25 23.621V27.5Z" fill="#008F7A"/>
</g>
</svg>
