<svg width="40" height="40" viewBox="0 0 40 40" fill="none" xmlns="http://www.w3.org/2000/svg">
<g id="brain">
<path id="brain_2" d="M34.2167 22.6835C34.2167 22.6835 35 23.8165 35 25.6498C35 28.7332 32.6999 31.2666 29.7166 31.6333C29.0166 33.7333 27.4833 35 25 35C23.3333 35 21.25 33.7169 21.25 31.4502V28.3333C21.25 25.85 23.8333 24.4832 23.8999 24.4499C24.5166 24.1332 24.7667 23.3832 24.4501 22.7665C24.1501 22.1499 23.4001 21.9001 22.7834 22.2168C22.7001 22.2501 22.0333 22.5999 21.25 23.2666V20C21.25 17.5167 23.8333 16.1499 23.8999 16.1165C24.5166 15.7999 24.7667 15.0499 24.4501 14.4332C24.1501 13.8165 23.4001 13.5668 22.7834 13.8835C22.7001 13.9168 22.0333 14.2666 21.25 14.9333V7.63346C21.25 5.60013 22.5833 5 23.3333 5C27.05 5 28.15 8.71663 28.15 8.71663C28.15 8.71663 31.6667 10.0001 31.6667 13.8668C31.6667 14.3334 31.6167 14.7835 31.5 15.2002C33.5334 15.8335 35 17.75 35 20.0167C35 21.0167 34.2167 22.6835 34.2167 22.6835ZM17.2166 13.8835C17.2999 13.9168 17.9667 14.2666 18.75 14.9333V7.63346C18.75 5.60013 17.4167 5 16.6667 5C12.95 5 11.85 8.71663 11.85 8.71663C11.85 8.71663 8.33333 10.0001 8.33333 13.8668C8.33333 14.3334 8.38329 14.7835 8.49996 15.2002C6.46663 15.8335 5 17.75 5 20.0167C5 21.0167 5.78328 22.6835 5.78328 22.6835C5.78328 22.6835 5 23.8165 5 25.6498C5 28.7332 7.30007 31.2666 10.2834 31.6333C10.9834 33.7333 12.5167 35 15 35C16.6667 35 18.75 33.7169 18.75 31.4502V28.3333C18.75 25.8333 16.1334 24.4665 16.1001 24.4499C15.4834 24.1332 15.2499 23.3832 15.5499 22.7665C15.8666 22.1499 16.6166 21.9001 17.2166 22.2168C17.2999 22.2501 17.9667 22.5999 18.75 23.2666V20C18.75 17.5 16.1334 16.1332 16.1001 16.1165C15.4834 15.7999 15.2499 15.0499 15.5499 14.4332C15.8666 13.8165 16.6166 13.5668 17.2166 13.8835Z" fill="#464646"/>
</g>
</svg>
