<svg width="40" height="40" viewBox="0 0 40 40" fill="none" xmlns="http://www.w3.org/2000/svg">
<g id="buildings">
<path id="buildings_2" d="M35 18.9003V31.6668C35 33.8835 33.8833 35.0001 31.6667 35.0001H29.6667C29.3901 35.0001 29.1667 34.7767 29.1667 34.5V16.2001C29.1667 15.8667 29.4667 15.6333 29.7833 15.7167L33.0499 16.4666C34.1999 16.7166 35 17.7336 35 18.9003ZM26.6667 11.3502V34.5C26.6667 34.7767 26.4433 35.0001 26.1666 35.0001C26.1666 35.0001 19.7734 35.0001 19.6667 35.0001C19.3834 35.0001 19.1667 34.7501 19.1667 34.5167C19.1667 34.3001 19.1667 28.3335 19.1667 28.3335C19.1667 26.5001 17.6667 25.0001 15.8333 25.0001C14 25.0001 12.5 26.5001 12.5 28.3335C12.5 28.3335 12.5 34.2334 12.5 34.5C12.5 34.7667 12.25 35.0001 12.05 35.0001C11.8333 35.0001 8.33333 35.0001 8.33333 35.0001C6.11667 35.0001 5 33.8835 5 31.6668V7.50012C5 5.90012 6.49994 4.70019 8.06661 5.06686L24.7333 8.91695C25.8666 9.16695 26.6667 10.1836 26.6667 11.3502ZM14.5833 20.0001C14.5833 19.3168 14.0167 18.7501 13.3333 18.7501H11.6667C10.9833 18.7501 10.4167 19.3168 10.4167 20.0001C10.4167 20.6835 10.9833 21.2501 11.6667 21.2501H13.3333C14.0167 21.2501 14.5833 20.6835 14.5833 20.0001ZM14.5833 15.0001C14.5833 14.3168 14.0167 13.7501 13.3333 13.7501H11.6667C10.9833 13.7501 10.4167 14.3168 10.4167 15.0001C10.4167 15.6835 10.9833 16.2501 11.6667 16.2501H13.3333C14.0167 16.2501 14.5833 15.6835 14.5833 15.0001ZM21.25 20.0001C21.25 19.3168 20.6833 18.7501 20 18.7501H18.3333C17.65 18.7501 17.0833 19.3168 17.0833 20.0001C17.0833 20.6835 17.65 21.2501 18.3333 21.2501H20C20.6833 21.2501 21.25 20.6835 21.25 20.0001ZM21.25 15.0001C21.25 14.3168 20.6833 13.7501 20 13.7501H18.3333C17.65 13.7501 17.0833 14.3168 17.0833 15.0001C17.0833 15.6835 17.65 16.2501 18.3333 16.2501H20C20.6833 16.2501 21.25 15.6835 21.25 15.0001Z" fill="url(#paint0_linear_1_1527)"/>
</g>
<defs>
<linearGradient id="paint0_linear_1_1527" x1="5" y1="5.00049" x2="45.937" y2="45.938" gradientUnits="userSpaceOnUse">
<stop stop-color="#64A1F2"/>
<stop offset="1" stop-color="#3073CC"/>
</linearGradient>
</defs>
</svg>
