<svg width="21" height="20" viewBox="0 0 21 20" fill="none" xmlns="http://www.w3.org/2000/svg">
<g id="fi_4436481" clip-path="url(#clip0_61_6870)">
<g id="Group">
<path id="Vector" fill-rule="evenodd" clip-rule="evenodd" d="M10.5 0C4.98438 0 0.5 4.48438 0.5 10C0.5 15.5156 4.98438 20 10.5 20C16.0156 20 20.5 15.5156 20.5 10C20.5 4.48438 16.0156 0 10.5 0Z" fill="#4BAE4F"/>
<path id="Vector_2" fill-rule="evenodd" clip-rule="evenodd" d="M15.3359 6.62891C15.5781 6.87109 15.5781 7.26953 15.3359 7.51172L9.47656 13.3711C9.35547 13.4922 9.19531 13.5547 9.03516 13.5547C8.875 13.5547 8.71484 13.4922 8.59375 13.3711L5.66406 10.4414C5.42187 10.1992 5.42187 9.80078 5.66406 9.55859C5.90625 9.31641 6.30469 9.31641 6.54688 9.55859L9.03516 12.0469L14.4531 6.62891C14.6953 6.38281 15.0937 6.38281 15.3359 6.62891Z" fill="white"/>
</g>
</g>
<defs>
<clipPath id="clip0_61_6870">
<rect width="20" height="20" fill="white" transform="translate(0.5)"/>
</clipPath>
</defs>
</svg>
