<svg width="24" height="24" viewBox="0 0 24 24" fill="none" xmlns="http://www.w3.org/2000/svg">
<g clip-path="url(#clip0_1_13117)">
<path d="M14.1978 12.0185L23.5429 2.67308C24.1511 2.0652 24.1511 1.08234 23.5429 0.474465C22.935 -0.133415 21.9522 -0.133415 21.3443 0.474465L11.9989 9.81987L2.65376 0.474465C2.0456 -0.133415 1.06303 -0.133415 0.455147 0.474465C-0.153018 1.08234 -0.153018 2.0652 0.455147 2.67308L9.80027 12.0185L0.455147 21.3639C-0.153018 21.9718 -0.153018 22.9546 0.455147 23.5625C0.75809 23.8657 1.15642 24.0181 1.55446 24.0181C1.9525 24.0181 2.35054 23.8657 2.65376 23.5625L11.9989 14.2171L21.3443 23.5625C21.6475 23.8657 22.0456 24.0181 22.4436 24.0181C22.8416 24.0181 23.2397 23.8657 23.5429 23.5625C24.1511 22.9546 24.1511 21.9718 23.5429 21.3639L14.1978 12.0185Z" fill="black"/>
</g>
<defs>
<clipPath id="clip0_1_13117">
<rect width="24" height="24" fill="white"/>
</clipPath>
</defs>
</svg>
