<svg width="40" height="40" viewBox="0 0 40 40" fill="none" xmlns="http://www.w3.org/2000/svg">
<g id="Icon / Website / Controller">
<path id="game-controller" d="M26.6667 11.6667H21.25V10C21.25 9.31667 21.8167 8.75 22.5 8.75H24.1667C26.2333 8.75 27.9167 7.06667 27.9167 5C27.9167 4.31667 27.35 3.75 26.6667 3.75C25.9833 3.75 25.4167 4.31667 25.4167 5C25.4167 5.68333 24.85 6.25 24.1667 6.25H22.5C20.4333 6.25 18.75 7.93333 18.75 10V11.6667H13.3333C8.33333 11.6667 5 15 5 21.6667V28.3333C5 31.6667 6.66667 35 10 35H10.4215C12.2399 35 13.9385 34.0883 14.9418 32.5716C14.9418 32.5716 16.62 30 20 30C23.38 30 25.0566 32.5867 25.0566 32.5867C26.0616 34.095 27.755 35 29.5667 35H30C33.3333 35 35 31.6667 35 28.3333V21.6667C35 15 31.6667 11.6667 26.6667 11.6667ZM16.6667 22.9167H14.5833V25C14.5833 25.69 14.0233 26.25 13.3333 26.25C12.6433 26.25 12.0833 25.69 12.0833 25V22.9167H10C9.31 22.9167 8.75 22.3567 8.75 21.6667C8.75 20.9767 9.31 20.4167 10 20.4167H12.0833V18.3333C12.0833 17.6433 12.6433 17.0833 13.3333 17.0833C14.0233 17.0833 14.5833 17.6433 14.5833 18.3333V20.4167H16.6667C17.3567 20.4167 17.9167 20.9767 17.9167 21.6667C17.9167 22.3567 17.3567 22.9167 16.6667 22.9167ZM24.5833 25.4167C23.6633 25.4167 22.9167 24.67 22.9167 23.75C22.9167 22.83 23.6633 22.0833 24.5833 22.0833C25.5033 22.0833 26.25 22.83 26.25 23.75C26.25 24.67 25.5033 25.4167 24.5833 25.4167ZM28.75 21.2516C27.83 21.2516 27.0833 20.505 27.0833 19.585C27.0833 18.665 27.83 17.9183 28.75 17.9183C29.67 17.9183 30.4167 18.665 30.4167 19.585C30.4167 20.505 29.67 21.2516 28.75 21.2516Z" fill="#464646"/>
</g>
</svg>
