<svg width="21" height="20" viewBox="0 0 21 20" fill="none" xmlns="http://www.w3.org/2000/svg">
<g id="copy">
<path id="copy_2" d="M15.8125 18.125H8.52083C6.70667 18.125 5.70833 17.1267 5.70833 15.3125V8.02083C5.70833 6.20667 6.70667 5.20833 8.52083 5.20833H15.8125C17.6267 5.20833 18.625 6.20667 18.625 8.02083V15.3125C18.625 17.1267 17.6267 18.125 15.8125 18.125ZM8.52083 6.45833C7.41083 6.45833 6.95833 6.91083 6.95833 8.02083V15.3125C6.95833 16.4225 7.41083 16.875 8.52083 16.875H15.8125C16.9225 16.875 17.375 16.4225 17.375 15.3125V8.02083C17.375 6.91083 16.9225 6.45833 15.8125 6.45833H8.52083ZM3.625 12.5V4.6875C3.625 3.5775 4.0775 3.125 5.1875 3.125H13C13.345 3.125 13.625 2.845 13.625 2.5C13.625 2.155 13.345 1.875 13 1.875H5.1875C3.37333 1.875 2.375 2.87333 2.375 4.6875V12.5C2.375 12.845 2.655 13.125 3 13.125C3.345 13.125 3.625 12.845 3.625 12.5Z" fill="#2C2C2C"/>
</g>
</svg>
