<svg width="128" height="24" viewBox="0 0 128 24" fill="none" xmlns="http://www.w3.org/2000/svg">
<line y1="11" x2="45" y2="11" stroke="#B0B0B0" stroke-width="2"/>
<line x1="83" y1="11" x2="128" y2="11" stroke="#B0B0B0" stroke-width="2"/>
<path d="M58.8298 12.75C58.9798 15.83 60.0198 18.97 61.8298 21.76C57.5898 20.82 54.3598 17.19 54.0298 12.75H58.8298ZM61.8298 2.23999C57.5898 3.17999 54.3598 6.81 54.0298 11.25H58.8298C58.9798 8.17 60.0198 5.02999 61.8298 2.23999ZM64.1998 2H63.7998L63.4998 2.42999C61.5998 5.12999 60.4898 8.23 60.3298 11.25H67.6698C67.5098 8.23 66.3998 5.12999 64.4998 2.42999L64.1998 2ZM60.3298 12.75C60.4898 15.77 61.5998 18.87 63.4998 21.57L63.7998 22H64.1998L64.4998 21.57C66.3998 18.87 67.5098 15.77 67.6698 12.75H60.3298ZM69.1698 12.75C69.0198 15.83 67.9798 18.97 66.1698 21.76C70.4098 20.82 73.6398 17.19 73.9698 12.75H69.1698ZM73.9698 11.25C73.6398 6.81 70.4098 3.17999 66.1698 2.23999C67.9798 5.02999 69.0198 8.17 69.1698 11.25H73.9698Z" fill="#9DC3F6"/>
</svg>
