<svg width="32" height="32" viewBox="0 0 32 32" fill="none" xmlns="http://www.w3.org/2000/svg">
<g id="envelope-notification">
<path id="envelope-notification_2" d="M29.3333 8.00065C29.3333 9.47398 28.1387 10.6673 26.6667 10.6673C25.1947 10.6673 24 9.47398 24 8.00065C24 6.52732 25.1947 5.33398 26.6667 5.33398C28.1387 5.33398 29.3333 6.52732 29.3333 8.00065ZM27.9987 12.974L28 22.6673C28 25.334 26.6667 26.6673 24 26.6673H8C5.33333 26.6673 4 25.334 4 22.6673V10.6673C4 8.00065 5.33333 6.66732 8 6.66732H21.6921C21.9454 6.66732 22.1321 6.90731 22.0788 7.16064C22.0121 7.52064 21.9854 7.90731 22.012 8.30731C22.1454 10.6006 24.0654 12.5207 26.3721 12.654C26.7721 12.6807 27.1452 12.654 27.5052 12.5873C27.7572 12.5473 27.9987 12.7206 27.9987 12.974ZM23.4479 12.7087C23.1026 12.2767 22.4733 12.2087 22.0413 12.5527L16.208 17.2193C16.088 17.3167 15.9107 17.3167 15.792 17.2193L9.95866 12.5527C9.52799 12.2087 8.90008 12.2767 8.55208 12.7087C8.20675 13.1393 8.27734 13.7687 8.70801 14.114L14.5413 18.7807C14.9707 19.1247 15.4853 19.2953 16 19.2953C16.5147 19.2953 17.028 19.1233 17.4587 18.7807L23.292 14.114C23.7227 13.77 23.7933 13.1407 23.4479 12.7087Z" fill="#201915" fill-opacity="0.82"/>
</g>
</svg>
