<svg width="32" height="32" viewBox="0 0 32 32" fill="none" xmlns="http://www.w3.org/2000/svg">
<g id="logo/facebook_fill">
<g id="Subtract">
<path d="M17.9993 29.1847C24.4144 28.2197 29.3327 22.6844 29.3327 16.0003C29.3327 8.63653 23.3631 2.66699 15.9993 2.66699C8.63555 2.66699 2.66602 8.63653 2.66602 16.0003C2.66602 22.6844 7.58433 28.2197 13.9993 29.1847V20.0003H11.9993C10.8948 20.0003 9.99935 19.1049 9.99935 18.0003C9.99935 16.8958 10.8948 16.0003 11.9993 16.0003H13.9993V13.3337C13.9993 10.7563 16.0887 8.66699 18.666 8.66699H19.3327C20.4373 8.66699 21.3327 9.56242 21.3327 10.667C21.3327 11.7716 20.4373 12.667 19.3327 12.667H18.666C18.2978 12.667 17.9993 12.9655 17.9993 13.3337V16.0003H19.9993C21.1039 16.0003 21.9993 16.8958 21.9993 18.0003C21.9993 19.1049 21.1039 20.0003 19.9993 20.0003H17.9993V29.1847Z" fill="url(#paint0_linear_1702_29582)"/>
</g>
</g>
<defs>
<linearGradient id="paint0_linear_1702_29582" x1="2.66602" y1="2.66699" x2="38.851" y2="39.0553" gradientUnits="userSpaceOnUse">
<stop stop-color="#FFAF62"/>
<stop offset="1" stop-color="#DA7F27"/>
</linearGradient>
</defs>
</svg>
