<svg width="67" height="67" viewBox="0 0 67 67" fill="none" xmlns="http://www.w3.org/2000/svg">
<g filter="url(#filter0_i_1702_29748)">
<rect width="67" height="67" rx="33.5" fill="#FFF6EE"/>
<path d="M48.0287 36.9648C48.687 35.6298 49.1703 34.2548 49.4453 32.8548C50.242 28.7431 49.4454 24.7415 47.317 22.1482C45.5954 20.0482 43.1137 18.9315 40.1387 18.9165C40.127 18.9165 40.1169 18.9165 40.1069 18.9165C36.7136 18.9165 34.6453 20.8481 33.5003 22.4898C32.3536 20.8465 30.2871 18.9165 26.8904 18.9165C26.8804 18.9165 26.8687 18.9165 26.8587 18.9165C23.892 18.9315 21.412 20.0498 19.687 22.1498C17.557 24.7448 16.7586 28.7465 17.5536 32.8532C19.602 43.4482 32.4369 49.3898 32.9819 49.6381C33.1469 49.7131 33.3236 49.7498 33.5003 49.7498C33.677 49.7498 33.8502 49.7132 34.0152 49.6399C34.0719 49.6132 35.2686 49.0698 36.972 48.0331C38.3186 49.0915 39.9936 49.7498 41.8336 49.7498C46.1986 49.7498 49.7503 46.1982 49.7503 41.8332C49.7503 39.9882 49.0904 38.3115 48.0287 36.9648ZM33.5035 47.1099C31.1636 45.9182 21.5953 40.5898 20.0087 32.3798C19.3537 28.9948 19.9569 25.7648 21.6202 23.7382C22.8752 22.2098 24.6419 21.4298 26.8702 21.4181C26.8769 21.4181 26.8837 21.4181 26.8904 21.4181C30.8537 21.4181 32.2586 25.3832 32.3136 25.5465C32.4852 26.0549 32.9602 26.3965 33.4952 26.3982C33.4969 26.3982 33.4986 26.3982 33.5019 26.3982C34.0353 26.3982 34.5104 26.0565 34.6854 25.5498C34.7421 25.3815 36.1469 21.4165 40.1069 21.4165C40.1136 21.4165 40.1202 21.4165 40.1269 21.4165C42.3619 21.4282 44.1303 22.2082 45.3836 23.7348C47.0453 25.7582 47.6453 28.9898 46.9903 32.3765C46.8053 33.3215 46.472 34.2515 46.0754 35.1715C44.847 34.3865 43.3969 33.9165 41.8353 33.9165C37.4703 33.9165 33.9186 37.4682 33.9186 41.8332C33.9186 43.4332 34.4036 44.9182 35.2219 46.1648C34.5002 46.5865 33.8952 46.9115 33.5035 47.1099ZM41.8336 47.2498C38.847 47.2498 36.417 44.8198 36.417 41.8332C36.417 38.8465 38.847 36.4165 41.8336 36.4165C44.8203 36.4165 47.2503 38.8465 47.2503 41.8332C47.2503 44.8198 44.8203 47.2498 41.8336 47.2498ZM44.8003 39.5598C45.2887 40.0481 45.2887 40.8399 44.8003 41.3282L42.022 44.1065C41.787 44.3399 41.4703 44.4715 41.1386 44.4715C40.807 44.4715 40.4886 44.3398 40.2553 44.1048L38.8669 42.7166C38.3786 42.2282 38.3786 41.4365 38.8669 40.9482C39.3552 40.4615 40.147 40.4598 40.6353 40.9482L41.1403 41.4531L43.0352 39.5598C43.5219 39.0731 44.312 39.0731 44.8003 39.5598Z" fill="#FF9631"/>
</g>
<defs>
<filter id="filter0_i_1702_29748" x="0" y="0" width="67" height="67" filterUnits="userSpaceOnUse" color-interpolation-filters="sRGB">
<feFlood flood-opacity="0" result="BackgroundImageFix"/>
<feBlend mode="normal" in="SourceGraphic" in2="BackgroundImageFix" result="shape"/>
<feColorMatrix in="SourceAlpha" type="matrix" values="0 0 0 0 0 0 0 0 0 0 0 0 0 0 0 0 0 0 127 0" result="hardAlpha"/>
<feMorphology radius="2" operator="erode" in="SourceAlpha" result="effect1_innerShadow_1702_29748"/>
<feOffset/>
<feGaussianBlur stdDeviation="3"/>
<feComposite in2="hardAlpha" operator="arithmetic" k2="-1" k3="1"/>
<feColorMatrix type="matrix" values="0 0 0 0 1 0 0 0 0 0.835294 0 0 0 0 0.678431 0 0 0 0.48 0"/>
<feBlend mode="normal" in2="shape" result="effect1_innerShadow_1702_29748"/>
</filter>
</defs>
</svg>
