<svg width="40" height="40" viewBox="0 0 40 40" fill="none" xmlns="http://www.w3.org/2000/svg">
<g id=" ">
<path id="heart-pulse" d="M26.6301 6.66684C21.6668 6.64351 20.0001 11.6469 20.0001 11.6469C20.0001 11.6469 18.3334 6.64184 13.3684 6.66684C6.70175 6.70017 4.08166 12.9237 5.28166 19.1087C7.23666 29.192 20.0001 35.0002 20.0001 35.0002C20.0001 35.0002 32.7618 29.192 34.7185 19.1087C35.9168 12.9237 33.3101 6.70017 26.6301 6.66684ZM28.3334 22.0835H25.6684L22.7068 26.5269C22.4718 26.8769 22.0818 27.0835 21.6668 27.0835C21.6118 27.0835 21.5568 27.08 21.5001 27.0717C21.0268 27.0084 20.6317 26.6819 20.48 26.2286L17.955 18.6533L16.0401 21.5269C15.8085 21.8735 15.4184 22.0835 15.0001 22.0835H11.6668C10.9768 22.0835 10.4168 21.5235 10.4168 20.8335C10.4168 20.1435 10.9768 19.5835 11.6668 19.5835H14.3318L17.2934 15.1401C17.5584 14.7418 18.0284 14.527 18.5 14.5953C18.9734 14.6586 19.3685 14.9851 19.5201 15.4384L22.0452 23.0137L23.96 20.1401C24.1917 19.7935 24.5818 19.5835 25.0001 19.5835H28.3334C29.0234 19.5835 29.5834 20.1435 29.5834 20.8335C29.5834 21.5235 29.0234 22.0835 28.3334 22.0835Z" fill="url(#paint0_linear_1_1521)"/>
</g>
<defs>
<linearGradient id="paint0_linear_1_1521" x1="4.99982" y1="6.66675" x2="43.6" y2="47.5384" gradientUnits="userSpaceOnUse">
<stop stop-color="#64A1F2"/>
<stop offset="1" stop-color="#3073CC"/>
</linearGradient>
</defs>
</svg>
