<svg width="32" height="32" viewBox="0 0 32 32" fill="none" xmlns="http://www.w3.org/2000/svg">
<g id="info-square">
<path id="info-square_2" d="M23.5 4H8.5C5.5 4 4 5.5 4 8.5V23.5C4 26.5 5.5 28 8.5 28H23.5C26.5 28 28 26.5 28 23.5V8.5C28 5.5 26.5 4 23.5 4ZM17 22C17 22.552 16.552 23 16 23C15.448 23 15 22.552 15 22V15.9053C15 15.3533 15.448 14.9053 16 14.9053C16.552 14.9053 17 15.3533 17 15.9053V22ZM16.0267 12.6667C15.2907 12.6667 14.6865 12.0693 14.6865 11.3333C14.6865 10.5973 15.2773 10 16.0133 10H16.0267C16.764 10 17.36 10.5973 17.36 11.3333C17.36 12.0693 16.7627 12.6667 16.0267 12.6667Z" fill="#201915" fill-opacity="0.82"/>
</g>
</svg>
