<svg width="32" height="32" viewBox="0 0 32 32" fill="none" xmlns="http://www.w3.org/2000/svg">
<g id="logo/ins_fill">
<g id="Subtract">
<path d="M16 13.3333C14.5272 13.3333 13.3333 14.5272 13.3333 16C13.3333 17.4728 14.5272 18.6667 16 18.6667C17.4728 18.6667 18.6667 17.4728 18.6667 16C18.6667 14.5272 17.4728 13.3333 16 13.3333Z" fill="url(#paint0_linear_1702_29579)"/>
<path fill-rule="evenodd" clip-rule="evenodd" d="M4 10.6667C4 6.98477 6.98477 4 10.6667 4H21.3333C25.0152 4 28 6.98477 28 10.6667V21.3333C28 25.0152 25.0152 28 21.3333 28H10.6667C6.98477 28 4 25.0152 4 21.3333V10.6667ZM10.6667 16C10.6667 13.0545 13.0545 10.6667 16 10.6667C18.9455 10.6667 21.3333 13.0545 21.3333 16C21.3333 18.9455 18.9455 21.3333 16 21.3333C13.0545 21.3333 10.6667 18.9455 10.6667 16ZM22 11.3333C22.7364 11.3333 23.3333 10.7364 23.3333 10C23.3333 9.26362 22.7364 8.66667 22 8.66667C21.2636 8.66667 20.6667 9.26362 20.6667 10C20.6667 10.7364 21.2636 11.3333 22 11.3333Z" fill="url(#paint1_linear_1702_29579)"/>
</g>
</g>
<defs>
<linearGradient id="paint0_linear_1702_29579" x1="4" y1="4" x2="36.75" y2="36.75" gradientUnits="userSpaceOnUse">
<stop stop-color="#FFAF62"/>
<stop offset="1" stop-color="#DA7F27"/>
</linearGradient>
<linearGradient id="paint1_linear_1702_29579" x1="4" y1="4" x2="36.75" y2="36.75" gradientUnits="userSpaceOnUse">
<stop stop-color="#FFAF62"/>
<stop offset="1" stop-color="#DA7F27"/>
</linearGradient>
</defs>
</svg>
