<svg width="24" height="24" viewBox="0 0 24 24" fill="none" xmlns="http://www.w3.org/2000/svg">
<g id="Solid/Brands/Instagram">
<g id="Subtract">
<path d="M12.0007 8.75053C10.2057 8.75053 8.75067 10.2056 8.75067 12.0005C8.75067 13.7955 10.2057 15.2505 12.0007 15.2505C13.7956 15.2505 15.2507 13.7955 15.2507 12.0005C15.2507 10.2056 13.7956 8.75053 12.0007 8.75053Z" fill="black"/>
<path fill-rule="evenodd" clip-rule="evenodd" d="M6.77021 3.082C10.2183 2.69662 13.783 2.69662 17.2312 3.082C19.1296 3.29418 20.6607 4.78995 20.8836 6.69501C21.2958 10.22 21.2958 13.7811 20.8836 17.3061C20.6607 19.2111 19.1296 20.7069 17.2312 20.9191C13.783 21.3044 10.2183 21.3044 6.77021 20.9191C4.87181 20.7069 3.34062 19.2111 3.1178 17.3061C2.70552 13.7811 2.70552 10.22 3.1178 6.69501C3.34062 4.78995 4.87181 3.29418 6.77021 3.082ZM17.0007 6.00053C16.4484 6.00053 16.0007 6.44825 16.0007 7.00053C16.0007 7.55282 16.4484 8.00053 17.0007 8.00053C17.553 8.00053 18.0007 7.55282 18.0007 7.00053C18.0007 6.44825 17.553 6.00053 17.0007 6.00053ZM7.25067 12.0005C7.25067 9.37718 9.37732 7.25053 12.0007 7.25053C14.624 7.25053 16.7507 9.37718 16.7507 12.0005C16.7507 14.6239 14.624 16.7505 12.0007 16.7505C9.37732 16.7505 7.25067 14.6239 7.25067 12.0005Z" fill="black"/>
</g>
</g>
</svg>
