<svg width="40" height="40" viewBox="0 0 40 40" fill="none" xmlns="http://www.w3.org/2000/svg">
<g id="linkedin">
<path id="linkedin_2" d="M11.7335 35H5.41683V16.05H11.7335V35ZM12.3668 8.68339C12.3668 6.68339 10.7835 5.06671 8.7835 5.00004C6.75017 4.95004 5.05016 6.55003 5.00016 8.58337C4.95016 10.6167 6.55015 12.3167 8.58349 12.3667C10.6502 12.3834 12.3335 10.7501 12.3668 8.68339ZM34.9168 23.55C34.9168 17.65 31.1002 15.85 27.8502 15.85C25.5668 15.7834 23.4168 16.9 22.1668 18.8V16.0667H16.0668V35.0167H22.3835V25.1834C22.3835 25.0834 22.3835 24.9834 22.3835 24.8834C22.3835 24.8834 22.3835 24.8834 22.3835 24.8667C22.2502 22.85 23.7835 21.1 25.8002 20.9667C27.4502 20.9667 28.7002 22.0334 28.7002 25.0334V35.0167H35.0168L34.9335 23.5667L34.9168 23.55Z" fill="#1499E8"/>
</g>
</svg>
