<svg width="82" height="24" viewBox="0 0 82 24" fill="none" xmlns="http://www.w3.org/2000/svg">
<path d="M30.6752 17.5792H33.6192V19H28.8832V10.0656H30.6752V17.5792ZM35.667 11.064C35.3513 11.064 35.0867 10.9659 34.8734 10.7696C34.6686 10.5648 34.5662 10.3131 34.5662 10.0144C34.5662 9.71573 34.6686 9.46827 34.8734 9.272C35.0867 9.0672 35.3513 8.9648 35.667 8.9648C35.9827 8.9648 36.243 9.0672 36.4478 9.272C36.6611 9.46827 36.7678 9.71573 36.7678 10.0144C36.7678 10.3131 36.6611 10.5648 36.4478 10.7696C36.243 10.9659 35.9827 11.064 35.667 11.064ZM36.5502 11.9088V19H34.7582V11.9088H36.5502ZM42.2503 11.8064C43.0951 11.8064 43.7778 12.0752 44.2983 12.6128C44.8188 13.1419 45.0791 13.8843 45.0791 14.84V19H43.2871V15.0832C43.2871 14.52 43.1463 14.0891 42.8647 13.7904C42.5831 13.4832 42.1991 13.3296 41.7127 13.3296C41.2178 13.3296 40.8252 13.4832 40.5351 13.7904C40.2535 14.0891 40.1127 14.52 40.1127 15.0832V19H38.3207V11.9088H40.1127V12.792C40.3516 12.4848 40.6546 12.2459 41.0215 12.0752C41.397 11.896 41.8066 11.8064 42.2503 11.8064ZM50.9816 19L48.5752 15.9792V19H46.7832V9.528H48.5752V14.9168L50.956 11.9088H53.2856L50.1624 15.4672L53.3112 19H50.9816ZM60.8502 15.3008C60.8502 15.5568 60.8331 15.7872 60.799 15.992H55.615C55.6577 16.504 55.8369 16.9051 56.1526 17.1952C56.4683 17.4853 56.8566 17.6304 57.3174 17.6304C57.983 17.6304 58.4566 17.3445 58.7382 16.7728H60.671C60.4662 17.4555 60.0737 18.0187 59.4934 18.4624C58.9131 18.8976 58.2006 19.1152 57.3558 19.1152C56.6731 19.1152 56.0587 18.9659 55.5126 18.6672C54.975 18.36 54.5526 17.9291 54.2454 17.3744C53.9467 16.8197 53.7974 16.1797 53.7974 15.4544C53.7974 14.7205 53.9467 14.0763 54.2454 13.5216C54.5441 12.9669 54.9622 12.5403 55.4998 12.2416C56.0374 11.9429 56.6561 11.7936 57.3558 11.7936C58.0299 11.7936 58.6315 11.9387 59.1606 12.2288C59.6982 12.5189 60.1121 12.9328 60.4022 13.4704C60.7009 13.9995 60.8502 14.6096 60.8502 15.3008ZM58.9942 14.7888C58.9857 14.328 58.8193 13.9611 58.495 13.688C58.1707 13.4064 57.7739 13.2656 57.3046 13.2656C56.8609 13.2656 56.4854 13.4021 56.1782 13.6752C55.8795 13.9397 55.6961 14.3109 55.6278 14.7888H58.9942ZM61.6974 15.4288C61.6974 14.712 61.8382 14.0763 62.1198 13.5216C62.4099 12.9669 62.8025 12.5403 63.2974 12.2416C63.7923 11.9429 64.3427 11.7936 64.9486 11.7936C65.4094 11.7936 65.8489 11.896 66.267 12.1008C66.6851 12.2971 67.0179 12.5616 67.2654 12.8944V9.528H69.083V19H67.2654V17.9504C67.0435 18.3003 66.7321 18.5819 66.331 18.7952C65.9299 19.0085 65.4649 19.1152 64.9358 19.1152C64.3385 19.1152 63.7923 18.9616 63.2974 18.6544C62.8025 18.3472 62.4099 17.9163 62.1198 17.3616C61.8382 16.7984 61.6974 16.1541 61.6974 15.4288ZM67.2782 15.4544C67.2782 15.0192 67.1929 14.648 67.0222 14.3408C66.8515 14.0251 66.6211 13.7861 66.331 13.624C66.0409 13.4533 65.7294 13.368 65.3966 13.368C65.0638 13.368 64.7566 13.4491 64.475 13.6112C64.1934 13.7733 63.963 14.0123 63.7838 14.328C63.6131 14.6352 63.5278 15.0021 63.5278 15.4288C63.5278 15.8555 63.6131 16.2309 63.7838 16.5552C63.963 16.8709 64.1934 17.1141 64.475 17.2848C64.7651 17.4555 65.0723 17.5408 65.3966 17.5408C65.7294 17.5408 66.0409 17.4597 66.331 17.2976C66.6211 17.1269 66.8515 16.888 67.0222 16.5808C67.1929 16.2651 67.2782 15.8896 67.2782 15.4544ZM72.6252 10.0656V19H70.8332V10.0656H72.6252ZM78.3253 11.8064C79.1701 11.8064 79.8528 12.0752 80.3733 12.6128C80.8938 13.1419 81.1541 13.8843 81.1541 14.84V19H79.3621V15.0832C79.3621 14.52 79.2213 14.0891 78.9397 13.7904C78.6581 13.4832 78.2741 13.3296 77.7877 13.3296C77.2928 13.3296 76.9002 13.4832 76.6101 13.7904C76.3285 14.0891 76.1877 14.52 76.1877 15.0832V19H74.3957V11.9088H76.1877V12.792C76.4266 12.4848 76.7296 12.2459 77.0965 12.0752C77.472 11.896 77.8816 11.8064 78.3253 11.8064Z" fill="#201915" fill-opacity="0.6"/>
<path d="M7.04068 21.0007H3.25068V9.63069H7.04068V21.0007ZM7.42068 5.21069C7.42068 4.01069 6.47069 3.04068 5.27069 3.00068C4.05069 2.97068 3.03068 3.93068 3.00068 5.15068C2.97068 6.37068 3.93068 7.39068 5.15068 7.42068C6.39068 7.43068 7.40068 6.45069 7.42068 5.21069ZM20.9507 14.1307C20.9507 10.5907 18.6607 9.51068 16.7107 9.51068C15.3407 9.47068 14.0507 10.1407 13.3007 11.2807V9.64068H9.64068V21.0107H13.4307V15.1107C13.4307 15.0507 13.4307 14.9907 13.4307 14.9307C13.4307 14.9307 13.4307 14.9307 13.4307 14.9207C13.3507 13.7107 14.2707 12.6607 15.4807 12.5807C16.4707 12.5807 17.2207 13.2207 17.2207 15.0207V21.0107H21.0107L20.9607 14.1407L20.9507 14.1307Z" fill="#3B87ED"/>
</svg>
