<svg width="43" height="44" viewBox="0 0 43 44" fill="none" xmlns="http://www.w3.org/2000/svg">
<g id="linkedin">
<path id="linkedin_2" d="M12.5155 38.134H5.77769V17.9207H12.5155V38.134ZM13.191 10.0629C13.191 7.9296 11.5021 6.20514 9.36881 6.13403C7.19992 6.0807 5.38658 7.78735 5.33325 9.95624C5.27991 12.1251 6.98657 13.9385 9.15546 13.9918C11.3599 14.0096 13.1555 12.2674 13.191 10.0629ZM37.2444 25.9207C37.2444 19.6274 33.1733 17.7074 29.7066 17.7074C27.271 17.6362 24.9777 18.8274 23.6444 20.854V17.9385H17.1377V38.1518H23.8755V27.6629C23.8755 27.5563 23.8755 27.4496 23.8755 27.3429C23.8755 27.3429 23.8755 27.3429 23.8755 27.3251C23.7332 25.174 25.3688 23.3074 27.5199 23.1651C29.2799 23.1651 30.6133 24.3029 30.6133 27.5029V38.1518H37.351L37.2622 25.9385L37.2444 25.9207Z" fill="#201915" fill-opacity="0.88"/>
</g>
</svg>
