<svg width="32" height="32" viewBox="0 0 32 32" fill="none" xmlns="http://www.w3.org/2000/svg">
<g id="logo/linkedin_fill">
<g id="Subtract">
<path fill-rule="evenodd" clip-rule="evenodd" d="M4 8C4 5.79086 5.79086 4 8 4H24C26.2091 4 28 5.79086 28 8V24C28 26.2091 26.2091 28 24 28H8C5.79086 28 4 26.2091 4 24V8ZM12 10.6667C12 11.403 11.403 12 10.6667 12C9.93029 12 9.33333 11.403 9.33333 10.6667C9.33333 9.93029 9.93029 9.33333 10.6667 9.33333C11.403 9.33333 12 9.93029 12 10.6667ZM12 14.6667C12 13.9303 11.403 13.3333 10.6667 13.3333C9.93029 13.3333 9.33333 13.9303 9.33333 14.6667V21.3333C9.33333 22.0697 9.93029 22.6667 10.6667 22.6667C11.403 22.6667 12 22.0697 12 21.3333V14.6667ZM13.3333 16.0182V21.3333C13.3333 22.0697 13.9303 22.6667 14.6667 22.6667C15.403 22.6667 16 22.0697 16 21.3333V16.4531C16.4065 15.9941 17.0942 15.4562 17.8577 15.1296C18.3015 14.9398 18.9691 14.8639 19.4334 15.0099C19.6365 15.0737 19.7524 15.1634 19.8239 15.2602C19.8935 15.3542 20 15.5609 20 15.9999V21.3333C20 22.0697 20.597 22.6666 21.3333 22.6666C22.0697 22.6666 22.6667 22.0697 22.6667 21.3333V15.9999C22.6667 15.1056 22.4398 14.3123 21.9677 13.6742C21.4976 13.0388 20.8635 12.6641 20.2333 12.466C19.0309 12.0879 17.6985 12.2973 16.8089 12.6778C16.5267 12.7986 16.2484 12.9391 15.9788 13.095C15.8664 12.4724 15.3217 12 14.6667 12C13.9303 12 13.3333 12.597 13.3333 13.3333V15.9793C13.3331 15.9923 13.3331 16.0052 13.3333 16.0182Z" fill="url(#paint0_linear_1702_29585)"/>
</g>
</g>
<defs>
<linearGradient id="paint0_linear_1702_29585" x1="4" y1="4" x2="36.75" y2="36.75" gradientUnits="userSpaceOnUse">
<stop stop-color="#FFAF62"/>
<stop offset="1" stop-color="#DA7F27"/>
</linearGradient>
</defs>
</svg>
