<svg width="40" height="40" viewBox="0 0 40 40" fill="none" xmlns="http://www.w3.org/2000/svg">
<rect width="40" height="40" rx="20" fill="#FFE1C4"/>
<path d="M18 25H15C13.676 25 12.422 24.482 11.468 23.542C10.518 22.578 10 21.324 10 20C10 17.243 12.243 15 15 15H16C16.553 15 17 15.448 17 16C17 16.552 16.553 17 16 17H15C13.346 17 12 18.346 12 20C12 20.795 12.3131 21.551 12.8821 22.128C13.4491 22.687 14.205 23 15 23H18C19.654 23 21 21.654 21 20C21 19.448 21.447 19 22 19C22.553 19 23 19.448 23 20C23 22.757 20.757 25 18 25ZM30 20C30 18.676 29.482 17.421 28.532 16.458C27.578 15.518 26.324 15 25 15H22C19.243 15 17 17.243 17 20C17 20.552 17.447 21 18 21C18.553 21 19 20.552 19 20C19 18.346 20.346 17 22 17H25C25.795 17 26.5509 17.313 27.1179 17.872C27.6859 18.449 28 19.205 28 20C28 21.654 26.654 23 25 23H24C23.447 23 23 23.448 23 24C23 24.552 23.447 25 24 25H25C27.757 25 30 22.757 30 20Z" fill="#DA7F27"/>
</svg>
