<svg width="232" height="74" viewBox="0 0 232 74" fill="none" xmlns="http://www.w3.org/2000/svg">
<path d="M40.3988 67.2567C55.2233 67.2567 67.2409 55.209 67.2409 40.3476C67.2409 25.4861 55.2233 13.4385 40.3988 13.4385C25.5743 13.4385 13.5566 25.4861 13.5566 40.3476C13.5566 55.209 25.5743 67.2567 40.3988 67.2567Z" fill="#1D1D1B"/>
<path d="M13.5562 20.1655C17.2624 20.1655 20.2668 17.1536 20.2668 13.4382C20.2668 9.72284 17.2624 6.71094 13.5562 6.71094C9.85011 6.71094 6.8457 9.72284 6.8457 13.4382C6.8457 17.1536 9.85011 20.1655 13.5562 20.1655Z" fill="#1D1D1B"/>
<path d="M85.5591 50.404C84.2673 50.404 83.0594 50.1517 81.9354 49.6472C80.8114 49.1426 79.8719 48.3522 79.1338 47.2926V49.9331H74.168V22.7549H79.0834V33.4008C79.8048 32.3412 80.7275 31.5508 81.8683 31.0126C83.0091 30.4744 84.2338 30.2222 85.5423 30.2222C87.371 30.2222 88.9479 30.6762 90.29 31.5676C91.6154 32.459 92.6387 33.6699 93.3769 35.1835C94.0983 36.6972 94.4673 38.379 94.4673 40.2458C94.4673 42.1126 94.0983 43.7776 93.3769 45.3249C92.6555 46.8722 91.6321 48.1167 90.29 49.0417C88.9647 49.9667 87.371 50.4208 85.5423 50.4208L85.5591 50.404ZM84.2338 46.0481C85.2571 46.0481 86.1631 45.7958 86.9515 45.2744C87.7233 44.7531 88.3272 44.0467 88.7802 43.1553C89.2163 42.264 89.4344 41.2885 89.4344 40.229C89.4344 39.0181 89.1996 37.9753 88.7131 37.1344C88.2265 36.2935 87.6058 35.6544 86.8173 35.2172C86.0288 34.7799 85.1732 34.5612 84.2338 34.5612C83.2272 34.5612 82.338 34.8135 81.5831 35.3012C80.8282 35.789 80.2242 36.4785 79.788 37.3362C79.3519 38.2108 79.1338 39.1862 79.1338 40.3131C79.1338 41.4399 79.3519 42.449 79.8048 43.3235C80.2578 44.1981 80.8785 44.8708 81.6502 45.3417C82.4219 45.8294 83.2943 46.0649 84.2506 46.0649L84.2338 46.0481Z" fill="#1D1D1B"/>
<path d="M98.8461 28.1875C97.9737 28.1875 97.2188 27.8679 96.5813 27.2288C95.9437 26.5897 95.625 25.8329 95.625 24.9584C95.625 24.0838 95.9437 23.2934 96.5813 22.6711C97.2188 22.0488 97.9737 21.7461 98.8461 21.7461C99.7184 21.7461 100.507 22.0488 101.128 22.6711C101.748 23.2934 102.05 24.0502 102.05 24.9584C102.05 25.8665 101.732 26.5897 101.128 27.2288C100.507 27.8679 99.752 28.1875 98.8461 28.1875ZM96.3632 49.9334V30.6765H101.329V49.9334H96.3632Z" fill="#1D1D1B"/>
<path d="M112.284 58.9476C110.522 58.9476 108.945 58.7458 107.553 58.3589C106.161 57.9721 105.053 57.3498 104.248 56.4753C103.443 55.6008 103.023 54.4739 103.023 53.078C103.023 52.1698 103.225 51.3962 103.611 50.7235C103.996 50.0676 104.584 49.4789 105.389 48.9912C104.718 48.6044 104.215 48.1167 103.879 47.5112C103.544 46.9226 103.376 46.233 103.376 45.4594C103.376 43.7439 104.181 42.4321 105.775 41.4903C105.204 40.9017 104.768 40.2121 104.449 39.4553C104.147 38.6985 103.98 37.8912 103.98 37.0671C103.98 35.6712 104.315 34.4603 104.986 33.4344C105.657 32.4085 106.58 31.618 107.771 31.0462C108.962 30.4744 110.304 30.1885 111.831 30.1885C112.938 30.1885 113.962 30.3398 114.884 30.6594H121.779L124.044 34.393H119.112C119.263 34.8303 119.397 35.2676 119.515 35.7048C119.632 36.1421 119.682 36.5962 119.682 37.0671C119.682 38.4126 119.33 39.6067 118.642 40.6326C117.938 41.6753 116.998 42.4826 115.841 43.0544C114.666 43.643 113.324 43.9289 111.831 43.9289C111.177 43.9289 110.59 43.8785 110.053 43.7607C109.516 43.643 108.979 43.458 108.459 43.2057C107.889 43.4917 107.603 43.9457 107.603 44.568C107.603 45.7117 108.543 46.2835 110.439 46.2835H113.962C115.505 46.2835 116.83 46.5021 117.938 46.9226C119.028 47.343 119.867 48.0157 120.437 48.9239C121.008 49.8321 121.293 50.9757 121.293 52.3885C121.293 53.8012 120.89 54.8944 120.085 55.8867C119.28 56.8789 118.206 57.6358 116.83 58.1571C115.455 58.6953 113.945 58.9476 112.267 58.9476H112.284ZM112.284 55.0626C113.525 55.0626 114.582 54.8608 115.438 54.4571C116.294 54.0535 116.73 53.448 116.73 52.6576C116.73 51.1271 115.673 50.3703 113.559 50.3703H110.774C109.734 50.3703 108.945 50.5721 108.392 50.9589C107.838 51.3457 107.553 51.9176 107.553 52.6744C107.553 53.263 107.771 53.7339 108.207 54.0871C108.644 54.4403 109.231 54.6926 109.952 54.8439C110.673 54.9953 111.445 55.0794 112.267 55.0794L112.284 55.0626ZM111.814 40.0776C112.787 40.0776 113.609 39.8085 114.23 39.2367C114.868 38.6817 115.186 37.9585 115.186 37.0839C115.186 36.2094 114.868 35.5198 114.23 34.948C113.593 34.3762 112.787 34.0903 111.814 34.0903C110.841 34.0903 110.036 34.3762 109.432 34.948C108.828 35.5198 108.526 36.2262 108.526 37.0839C108.526 37.9417 108.811 38.6817 109.398 39.2367C109.986 39.7917 110.791 40.0776 111.814 40.0776Z" fill="#1D1D1B"/>
<path d="M125.033 58.4772L129.261 49.0422L121.477 30.6768H127.013L131.979 43.7949L137.045 30.6768H142.279L130.267 58.4772H125.033Z" fill="#1D1D1B"/>
<path d="M150.836 50.4045C148.822 50.4045 147.078 49.9672 145.618 49.0927C144.159 48.2181 143.035 47.0072 142.229 45.4767C141.424 43.9463 141.021 42.2308 141.021 40.3136C141.021 38.2617 141.441 36.4958 142.263 34.999C143.085 33.5022 144.243 32.3249 145.702 31.484C147.178 30.6431 148.873 30.2227 150.819 30.2227C152.765 30.2227 154.409 30.6431 155.835 31.4672C157.261 32.2913 158.385 33.4349 159.207 34.8813C160.012 36.3277 160.432 38.0095 160.432 39.8931C160.432 40.2295 160.432 40.5658 160.398 40.8854C160.365 41.2049 160.331 41.5077 160.281 41.7936H146.038C146.122 42.7017 146.356 43.4922 146.759 44.1817C147.162 44.8713 147.698 45.3927 148.386 45.7795C149.074 46.1495 149.846 46.3345 150.735 46.3345C151.624 46.3345 152.429 46.1327 153.084 45.7458C153.738 45.359 154.258 44.7704 154.644 43.9631H159.945C159.576 45.1067 159.006 46.1663 158.2 47.1417C157.395 48.134 156.389 48.9077 155.164 49.5131C153.939 50.1017 152.497 50.4045 150.852 50.4045H150.836ZM146.071 38.4804H155.332C155.298 37.1854 154.828 36.1595 153.922 35.4195C153 34.6627 151.926 34.2927 150.685 34.2927C149.628 34.2927 148.638 34.629 147.749 35.2849C146.843 35.9408 146.289 37.0172 146.088 38.4804H146.071Z" fill="#1D1D1B"/>
<path d="M162.109 49.9331V22.7549H167.075V49.9331H162.109Z" fill="#1D1D1B"/>
<path d="M169.609 49.9331V22.7549H174.575V49.9331H169.609Z" fill="#1D1D1B"/>
<path d="M186.318 50.4047C184.372 50.4047 182.661 49.9842 181.151 49.1433C179.641 48.3024 178.467 47.1251 177.611 45.5947C176.755 44.0642 176.336 42.3151 176.336 40.3138C176.336 38.2115 176.789 36.412 177.712 34.8983C178.618 33.3847 179.859 32.2242 181.386 31.417C182.929 30.6097 184.623 30.2061 186.486 30.2061C188.348 30.2061 190.16 30.6265 191.67 31.4674C193.196 32.3083 194.404 33.4856 195.293 34.9824C196.182 36.4792 196.635 38.262 196.635 40.297C196.635 42.332 196.199 43.9801 195.31 45.4938C194.438 47.0242 193.23 48.2183 191.686 49.0929C190.143 49.9674 188.365 50.3879 186.318 50.3879V50.4047ZM186.402 46.0992C187.442 46.0992 188.331 45.8301 189.086 45.3088C189.841 44.7706 190.445 44.0642 190.881 43.1729C191.317 42.2815 191.535 41.3061 191.535 40.2465C191.535 39.0356 191.3 37.9929 190.814 37.1351C190.344 36.2774 189.707 35.6383 188.935 35.2011C188.163 34.7638 187.308 34.5451 186.385 34.5451C185.378 34.5451 184.489 34.7974 183.734 35.2851C182.979 35.7729 182.375 36.4624 181.956 37.3201C181.537 38.1947 181.319 39.187 181.319 40.3306C181.319 41.4742 181.537 42.4833 181.99 43.3579C182.443 44.2324 183.046 44.922 183.835 45.3929C184.623 45.8638 185.462 46.1161 186.385 46.1161L186.402 46.0992Z" fill="#1D1D1B"/>
<path d="M201.685 49.9336L195.947 30.6768H200.947L204.403 45.3086L208.127 30.6768H213.361L217.002 45.2749L220.441 30.6768H225.172L219.484 49.8999H214.183L210.627 36.4622L207.07 49.9336H201.718H201.685Z" fill="#1D1D1B"/>
</svg>
