<svg width="40" height="40" viewBox="0 0 40 40" fill="none" xmlns="http://www.w3.org/2000/svg">
<rect width="40" height="40" rx="20" fill="url(#paint0_linear_2_414)"/>
<path d="M25.6249 22.174L28.268 23.75C28.814 24.076 29.0959 24.71 28.9709 25.334C28.4599 27.893 25.89 29.533 23.373 28.842C17.434 27.212 12.7948 22.587 11.1588 16.635C10.4668 14.117 12.1049 11.545 14.6649 11.033L14.6818 11.03C15.3068 10.905 15.9439 11.188 16.2689 11.737L17.8319 14.376C18.3879 15.315 18.1118 16.524 17.2028 17.128L15.5419 18.233C16.7139 21.04 18.9538 23.289 21.7528 24.459L22.8678 22.794C23.4768 21.887 24.6869 21.615 25.6249 22.174Z" fill="#DA7F27"/>
<defs>
<linearGradient id="paint0_linear_2_414" x1="0" y1="0" x2="54.5833" y2="54.5833" gradientUnits="userSpaceOnUse">
<stop stop-color="#FFE1C4"/>
<stop offset="1" stop-color="#FFC893"/>
</linearGradient>
</defs>
</svg>
