<svg width="40" height="40" viewBox="0 0 40 40" fill="none" xmlns="http://www.w3.org/2000/svg">
<g style="mix-blend-mode:multiply">
<rect width="40" height="40" rx="20" fill="#73FFEA"/>
<path d="M28.5 20H27C25.895 20 25 20.895 25 22C25 23.105 25.895 24 27 24H28.5C28.776 24 29 24.224 29 24.5V27C29 28.105 28.105 29 27 29H23.5C23.224 29 23 28.776 23 28.5V27C23 25.895 22.105 25 21 25C19.895 25 19 25.895 19 27V28.5C19 28.776 18.776 29 18.5 29H16C14.895 29 14 28.105 14 27V24.5C14 24.224 13.776 24 13.5 24H12C10.895 24 10 23.105 10 22C10 20.895 10.895 20 12 20H13.5C13.776 20 14 19.776 14 19.5V17C14 15.895 14.895 15 16 15H18.5C18.776 15 19 14.776 19 14.5V13C19 11.895 19.895 11 21 11C22.105 11 23 11.895 23 13V14.5C23 14.776 23.224 15 23.5 15H27C28.105 15 29 15.895 29 17V19.5C29 19.776 28.776 20 28.5 20Z" fill="#008F7A"/>
</g>
</svg>
