<svg width="164" height="48" viewBox="0 0 164 48" fill="none" xmlns="http://www.w3.org/2000/svg">
<path d="M0.5 0V48H139.711L163.765 24L139.711 0H0.5Z" fill="#F36B3C"/>
<path d="M63.9288 15.7007H67.0852V22.3673H63.9288V15.7007ZM54.541 15.7007H57.6975V22.3673H54.541V15.7007ZM54.541 22.3673H67.1124V25.5238H54.541V22.3673ZM54.541 25.5238H57.6975V32.3537H54.541V25.5238ZM63.9288 25.5238H67.0852V32.3537H63.9288V25.5238Z" fill="white"/>
<path d="M69.5615 15.7007H82.133V18.8571H69.5615V15.7007ZM74.1602 18.8571H77.4799V32.3537H74.1602V18.8571Z" fill="white"/>
<path d="M107.602 15.7007H110.813V22.3673H107.602V15.7007ZM98.2412 15.7007H101.398V22.3673H98.2412V15.7007ZM98.2412 22.3673H110.813V25.5238H98.2412V22.3673ZM98.2412 25.5238H101.398V32.3537H98.2412V25.5238ZM107.602 25.5238H110.813V32.3537H107.602V25.5238Z" fill="white"/>
<path d="M19.6289 25.4967V32.3539H16.418V15.7008H23.4656C25.1527 15.7008 26.486 16.1362 27.3567 17.0342C28.2819 17.9865 28.7989 19.2927 28.6901 20.626C28.7445 21.7416 28.3908 22.8301 27.7649 23.7552C27.0846 24.626 26.1323 25.1974 25.071 25.3879L29.2343 32.3539H25.6425L21.6152 25.4967H19.6289ZM25.5336 20.6532C25.588 20.1362 25.3431 19.6464 25.0166 19.3199C24.5812 18.9933 24.0914 18.8301 23.5744 18.8845H19.6833V22.4219H23.52C24.037 22.4219 24.5268 22.2859 24.9622 21.9321C25.3431 21.6056 25.5336 21.1158 25.5336 20.6532ZM32.0642 32.3539H35.2751V15.7008H32.0642V32.3539ZM89.8601 32.5988C91.6833 32.5988 93.071 32.1634 93.9418 31.1566C94.9486 30.2314 95.4384 28.9525 95.3839 27.592C95.4928 26.4491 95.0846 25.2518 94.3771 24.2722C93.6152 23.4015 92.6084 22.7757 91.4384 22.558L88.7173 21.8505C88.2819 21.7688 87.8465 21.5512 87.52 21.3335C87.1935 21.0342 87.003 20.6532 87.0302 20.2178C86.9758 19.7008 87.2207 19.211 87.6561 18.9117C88.1459 18.6124 88.7173 18.5307 89.2887 18.5307C89.8601 18.5307 90.4044 18.6668 90.8669 18.9117C91.3567 19.211 91.6833 19.6192 91.8193 20.1634H95.139C95.0574 19.4831 94.8397 18.8301 94.5676 18.2042C94.2683 17.6328 93.8601 17.143 93.3703 16.7076C92.8805 16.2722 92.2547 15.9457 91.6561 15.7552C90.9486 15.5103 90.1595 15.4287 89.3976 15.4287C88.6901 15.4287 87.9554 15.5376 87.2751 15.728C86.5948 15.9185 86.0234 16.2178 85.5064 16.6532C85.0166 17.0886 84.5812 17.6056 84.3091 18.2042C84.0098 18.8845 83.8737 19.6464 83.8737 20.3539C83.7377 22.7484 85.3703 24.8709 87.7105 25.3063L90.5404 26.0682C91.0302 26.2042 91.4656 26.3947 91.8465 26.7484C92.1459 27.0478 92.2819 27.4287 92.2819 27.8641C92.2819 28.3539 92.037 28.8165 91.6016 29.1158C91.0846 29.4423 90.486 29.6056 89.8601 29.5512C89.1527 29.6056 88.4724 29.3607 87.901 28.9253C87.384 28.4899 87.0302 27.8641 86.9758 27.211H83.6561C83.7105 27.9729 83.901 28.7348 84.1731 29.4695C84.4724 30.1498 84.8805 30.7212 85.4248 31.211C85.9962 31.7008 86.622 32.0818 87.3567 32.2995C88.1731 32.4355 88.9894 32.5988 89.8601 32.5988ZM114.568 32.3539H117.779V15.7008H114.568V32.3539ZM124.636 32.3539H121.479V15.7008H128.309C129.18 15.7008 130.078 15.8369 130.894 16.1906C131.574 16.4899 132.2 16.8981 132.717 17.4423C133.207 17.9593 133.534 18.5852 133.779 19.2654C134.023 19.9729 134.105 20.7076 134.105 21.4695C134.105 22.177 133.996 22.9661 133.779 23.6192C133.534 24.2995 133.207 24.9253 132.717 25.4967C132.227 26.0682 131.602 26.5035 130.894 26.8029C130.078 27.1294 129.207 27.2927 128.309 27.2927H124.69L124.636 32.3539ZM128.282 24.0818C128.663 24.0818 129.044 24.0273 129.425 23.8369C130.051 23.5376 130.486 23.0205 130.731 22.3947C130.813 22.0954 130.867 21.7688 130.867 21.4423C130.867 21.1158 130.813 20.762 130.731 20.4899C130.622 20.1906 130.432 19.9185 130.241 19.6736C129.996 19.4287 129.751 19.2382 129.425 19.1022C129.044 18.9661 128.663 18.8573 128.282 18.8573H124.69V24.0818H128.282ZM45.071 26.0137H48.2003V26.4491C48.2547 27.2654 47.901 28.1362 47.2751 28.6532C45.969 29.7144 44.1459 29.7144 42.8669 28.6532C42.2411 28.0818 41.9146 27.2654 41.9418 26.4491V21.66C41.8874 20.7893 42.2411 19.9729 42.8669 19.4559C43.4928 18.9389 44.2547 18.6396 45.071 18.694C45.7785 18.694 46.4588 18.8845 47.0302 19.2654C47.4112 19.5103 47.7105 19.8913 47.901 20.2722H51.2479C51.1391 19.7552 51.003 19.211 50.7581 18.7484C50.4588 18.0682 50.0506 17.4967 49.5064 17.0342C48.935 16.5444 48.3091 16.1634 47.5744 15.9185C46.7581 15.6192 45.8874 15.5376 45.0438 15.5376C44.1186 15.5376 43.2207 15.6736 42.3499 15.9729C41.6425 16.2722 40.9078 16.6804 40.3908 17.2246C39.8738 17.7416 39.4384 18.4219 39.1391 19.1838C38.8397 20.0001 38.7037 20.8709 38.7037 21.7144V26.5035C38.7037 27.3743 38.8397 28.245 39.1391 29.0614C39.384 29.7688 39.8193 30.4491 40.3908 31.0205C40.9622 31.592 41.6425 31.9729 42.3499 32.2722C44.0642 32.8437 45.9418 32.8437 47.6833 32.2722C48.3908 31.9729 49.1255 31.5648 49.6425 31.0205C50.1595 30.5035 50.5948 29.8233 50.8942 29.0614C51.1935 28.245 51.3295 27.3743 51.3295 26.5035V22.9117H45.071V26.0137Z" fill="white"/>
</svg>
