<svg width="40" height="40" viewBox="0 0 40 40" fill="none" xmlns="http://www.w3.org/2000/svg">
<g id="shield-check">
<path id="shield-check_2" d="M20.0301 3.33325C16.2968 5.18492 13.3333 6.66659 5 8.33325C5 10.2283 5 16.1698 5 18.1481C5 29.2598 14.445 34.8149 20 36.6666C25.555 34.8149 35 29.2598 35 18.1481C35 16.1064 35 10.3233 35 8.33325C26.6667 6.66659 23.7034 5.18492 20.0301 3.33325ZM25.9033 17.55L19.2367 24.2166C18.9933 24.46 18.6733 24.5833 18.3533 24.5833C18.0333 24.5833 17.7132 24.4616 17.4699 24.2166L14.1366 20.8833C13.6482 20.395 13.6482 19.6032 14.1366 19.1149C14.6249 18.6266 15.4166 18.6266 15.9049 19.1149L18.3549 21.5649L24.1382 15.7816C24.6265 15.2932 25.4182 15.2932 25.9066 15.7816C26.3949 16.2699 26.3917 17.0616 25.9033 17.55Z" fill="url(#paint0_linear_1_1524)"/>
</g>
<defs>
<linearGradient id="paint0_linear_1_1524" x1="5" y1="3.33325" x2="50.2348" y2="44.0446" gradientUnits="userSpaceOnUse">
<stop stop-color="#64A1F2"/>
<stop offset="1" stop-color="#3073CC"/>
</linearGradient>
</defs>
</svg>
