<svg width="360" height="360" viewBox="0 0 360 360" fill="none" xmlns="http://www.w3.org/2000/svg">
<g filter="url(#filter0_i_109_9956)">
<circle cx="180" cy="180" r="175" fill="white"/>
</g>
<circle cx="180" cy="180" r="177.5" stroke="#CACACA" stroke-width="5"/>
<g style="mix-blend-mode:multiply">
<mask id="mask0_109_9956" style="mask-type:alpha" maskUnits="userSpaceOnUse" x="5" y="5" width="350" height="350">
<circle cx="180" cy="180" r="175" fill="white"/>
</mask>
<g mask="url(#mask0_109_9956)">
<g filter="url(#filter1_i_109_9956)">
<path d="M17.3596 250.331C0.846797 210.134 -0.430712 165.292 13.7668 124.221C27.9642 83.1487 56.6609 48.6689 94.4726 27.2504C132.284 5.832 176.612 -1.05296 219.139 7.88734C261.666 16.8277 299.469 40.9788 325.456 75.8093L182.426 182.522L17.3596 250.331Z" fill="url(#paint0_linear_109_9956)"/>
</g>
<path fill-rule="evenodd" clip-rule="evenodd" d="M179.488 5.00073C179.659 5.00024 179.829 5 180 5C180.171 5 180.341 5.00024 180.512 5.00073L180.327 70.2773C180.27 70.2772 180.214 70.277 180.157 70.277C180.105 70.2769 180.052 70.2769 180 70.2769C179.891 70.2769 179.782 70.277 179.673 70.2773L179.488 5.00073ZM247.29 18.29C247.605 18.42 247.92 18.5509 248.234 18.6826L223.133 78.9078C222.935 78.8247 222.736 78.7422 222.538 78.6602L247.29 18.29ZM111.766 18.6827C112.08 18.5509 112.395 18.42 112.71 18.29L137.462 78.6602C137.264 78.7422 137.065 78.8247 136.867 78.9078L111.766 18.6827ZM54.4816 57.3667C54.7216 57.1246 54.9623 56.8832 55.2036 56.6425L101.085 102.932C100.932 103.085 100.78 103.238 100.627 103.392L54.4816 57.3667ZM304.796 56.6425C305.038 56.8832 305.278 57.1246 305.518 57.3667L259.373 103.392C259.22 103.238 259.068 103.085 258.915 102.932L304.796 56.6425ZM343.36 114.106C343.491 114.421 343.622 114.737 343.751 115.053L283.569 139.882C283.487 139.683 283.405 139.484 283.322 139.286L343.36 114.106ZM16.2486 115.053C16.3782 114.737 16.5087 114.421 16.64 114.106L76.6776 139.286C76.5948 139.484 76.5125 139.683 76.4308 139.882L16.2486 115.053ZM356.999 182.04C357 182.211 357 182.382 357 182.553C357 182.724 357 182.895 356.999 183.067L291.926 182.881C291.926 182.772 291.926 182.662 291.926 182.553C291.926 182.444 291.926 182.334 291.926 182.225L356.999 182.04ZM3 182.553C3 182.382 3.00024 182.211 3.00073 182.04L68.074 182.225C68.0738 182.275 68.0737 182.326 68.0737 182.376C68.0736 182.435 68.0735 182.494 68.0735 182.553C68.0735 182.662 68.0737 182.772 68.074 182.881L3.00073 183.067C3.00024 182.895 3 182.724 3 182.553ZM343.751 250.053C343.622 250.369 343.491 250.685 343.36 251L283.322 225.821C283.405 225.622 283.487 225.423 283.569 225.224L343.751 250.053ZM16.64 251C16.5087 250.685 16.3782 250.369 16.2486 250.053L76.4308 225.224C76.5125 225.423 76.5948 225.622 76.6776 225.821L16.64 251Z" fill="#16D362"/>
</g>
</g>
<path d="M338 63C338 67.4183 341.582 71 346 71C350.418 71 354 67.4183 354 63C354 58.5817 350.418 55 346 55C341.582 55 338 58.5817 338 63ZM180.864 181.226L346.864 64.2261L345.136 61.7739L179.136 178.774L180.864 181.226Z" fill="#16D362"/>
<g filter="url(#filter2_bi_109_9956)">
<circle cx="180.132" cy="180.132" r="136.132" fill="white" fill-opacity="0.02"/>
</g>
<path d="M121.625 236.624L118.793 242.084V245H117.113V242.084L114.269 236.624H116.165L117.965 240.452L119.753 236.624H121.625ZM125.546 245.108C124.906 245.108 124.33 244.968 123.818 244.688C123.306 244.4 122.902 243.996 122.606 243.476C122.318 242.956 122.174 242.356 122.174 241.676C122.174 240.996 122.322 240.396 122.618 239.876C122.922 239.356 123.334 238.956 123.854 238.676C124.374 238.388 124.954 238.244 125.594 238.244C126.234 238.244 126.814 238.388 127.334 238.676C127.854 238.956 128.262 239.356 128.558 239.876C128.862 240.396 129.014 240.996 129.014 241.676C129.014 242.356 128.858 242.956 128.546 243.476C128.242 243.996 127.826 244.4 127.298 244.688C126.778 244.968 126.194 245.108 125.546 245.108ZM125.546 243.644C125.85 243.644 126.134 243.572 126.398 243.428C126.67 243.276 126.886 243.052 127.046 242.756C127.206 242.46 127.286 242.1 127.286 241.676C127.286 241.044 127.118 240.56 126.782 240.224C126.454 239.88 126.05 239.708 125.57 239.708C125.09 239.708 124.686 239.88 124.358 240.224C124.038 240.56 123.878 241.044 123.878 241.676C123.878 242.308 124.034 242.796 124.346 243.14C124.666 243.476 125.066 243.644 125.546 243.644ZM136.522 238.352V245H134.83V244.16C134.614 244.448 134.33 244.676 133.978 244.844C133.634 245.004 133.258 245.084 132.85 245.084C132.33 245.084 131.87 244.976 131.47 244.76C131.07 244.536 130.754 244.212 130.522 243.788C130.298 243.356 130.186 242.844 130.186 242.252V238.352H131.866V242.012C131.866 242.54 131.998 242.948 132.262 243.236C132.526 243.516 132.886 243.656 133.342 243.656C133.806 243.656 134.17 243.516 134.434 243.236C134.698 242.948 134.83 242.54 134.83 242.012V238.352H136.522ZM139.86 239.384C140.076 239.032 140.356 238.756 140.7 238.556C141.052 238.356 141.452 238.256 141.9 238.256V240.02H141.456C140.928 240.02 140.528 240.144 140.256 240.392C139.992 240.64 139.86 241.072 139.86 241.688V245H138.18V238.352H139.86V239.384ZM149.779 245.084C148.995 245.084 148.275 244.9 147.619 244.532C146.963 244.164 146.443 243.656 146.059 243.008C145.675 242.352 145.483 241.612 145.483 240.788C145.483 239.972 145.675 239.24 146.059 238.592C146.443 237.936 146.963 237.424 147.619 237.056C148.275 236.688 148.995 236.504 149.779 236.504C150.571 236.504 151.291 236.688 151.939 237.056C152.595 237.424 153.111 237.936 153.487 238.592C153.871 239.24 154.063 239.972 154.063 240.788C154.063 241.612 153.871 242.352 153.487 243.008C153.111 243.656 152.595 244.164 151.939 244.532C151.283 244.9 150.563 245.084 149.779 245.084ZM149.779 243.584C150.283 243.584 150.727 243.472 151.111 243.248C151.495 243.016 151.795 242.688 152.011 242.264C152.227 241.84 152.335 241.348 152.335 240.788C152.335 240.228 152.227 239.74 152.011 239.324C151.795 238.9 151.495 238.576 151.111 238.352C150.727 238.128 150.283 238.016 149.779 238.016C149.275 238.016 148.827 238.128 148.435 238.352C148.051 238.576 147.751 238.9 147.535 239.324C147.319 239.74 147.211 240.228 147.211 240.788C147.211 241.348 147.319 241.84 147.535 242.264C147.751 242.688 148.051 243.016 148.435 243.248C148.827 243.472 149.275 243.584 149.779 243.584ZM156.992 239.384C157.208 239.032 157.488 238.756 157.832 238.556C158.184 238.356 158.584 238.256 159.032 238.256V240.02H158.588C158.06 240.02 157.66 240.144 157.388 240.392C157.124 240.64 156.992 241.072 156.992 241.688V245H155.312V238.352H156.992V239.384ZM162.768 238.244C163.264 238.244 163.7 238.344 164.076 238.544C164.452 238.736 164.748 238.988 164.964 239.3V238.352H166.656V245.048C166.656 245.664 166.532 246.212 166.284 246.692C166.036 247.18 165.664 247.564 165.168 247.844C164.672 248.132 164.072 248.276 163.368 248.276C162.424 248.276 161.648 248.056 161.04 247.616C160.44 247.176 160.1 246.576 160.02 245.816H161.688C161.776 246.12 161.964 246.36 162.252 246.536C162.548 246.72 162.904 246.812 163.32 246.812C163.808 246.812 164.204 246.664 164.508 246.368C164.812 246.08 164.964 245.64 164.964 245.048V244.016C164.748 244.328 164.448 244.588 164.064 244.796C163.688 245.004 163.256 245.108 162.768 245.108C162.208 245.108 161.696 244.964 161.232 244.676C160.768 244.388 160.4 243.984 160.128 243.464C159.864 242.936 159.732 242.332 159.732 241.652C159.732 240.98 159.864 240.384 160.128 239.864C160.4 239.344 160.764 238.944 161.22 238.664C161.684 238.384 162.2 238.244 162.768 238.244ZM164.964 241.676C164.964 241.268 164.884 240.92 164.724 240.632C164.564 240.336 164.348 240.112 164.076 239.96C163.804 239.8 163.512 239.72 163.2 239.72C162.888 239.72 162.6 239.796 162.336 239.948C162.072 240.1 161.856 240.324 161.688 240.62C161.528 240.908 161.448 241.252 161.448 241.652C161.448 242.052 161.528 242.404 161.688 242.708C161.856 243.004 162.072 243.232 162.336 243.392C162.608 243.552 162.896 243.632 163.2 243.632C163.512 243.632 163.804 243.556 164.076 243.404C164.348 243.244 164.564 243.02 164.724 242.732C164.884 242.436 164.964 242.084 164.964 241.676ZM167.865 241.652C167.865 240.98 167.997 240.384 168.261 239.864C168.533 239.344 168.897 238.944 169.353 238.664C169.817 238.384 170.333 238.244 170.901 238.244C171.397 238.244 171.829 238.344 172.197 238.544C172.573 238.744 172.873 238.996 173.097 239.3V238.352H174.789V245H173.097V244.028C172.881 244.34 172.581 244.6 172.197 244.808C171.821 245.008 171.385 245.108 170.889 245.108C170.329 245.108 169.817 244.964 169.353 244.676C168.897 244.388 168.533 243.984 168.261 243.464C167.997 242.936 167.865 242.332 167.865 241.652ZM173.097 241.676C173.097 241.268 173.017 240.92 172.857 240.632C172.697 240.336 172.481 240.112 172.209 239.96C171.937 239.8 171.645 239.72 171.333 239.72C171.021 239.72 170.733 239.796 170.469 239.948C170.205 240.1 169.989 240.324 169.821 240.62C169.661 240.908 169.581 241.252 169.581 241.652C169.581 242.052 169.661 242.404 169.821 242.708C169.989 243.004 170.205 243.232 170.469 243.392C170.741 243.552 171.029 243.632 171.333 243.632C171.645 243.632 171.937 243.556 172.209 243.404C172.481 243.244 172.697 243.02 172.857 242.732C173.017 242.436 173.097 242.084 173.097 241.676ZM180.114 238.256C180.906 238.256 181.546 238.508 182.034 239.012C182.522 239.508 182.766 240.204 182.766 241.1V245H181.086V241.328C181.086 240.8 180.954 240.396 180.69 240.116C180.426 239.828 180.066 239.684 179.61 239.684C179.146 239.684 178.778 239.828 178.506 240.116C178.242 240.396 178.11 240.8 178.11 241.328V245H176.43V238.352H178.11V239.18C178.334 238.892 178.618 238.668 178.962 238.508C179.314 238.34 179.698 238.256 180.114 238.256ZM185.215 237.56C184.919 237.56 184.671 237.468 184.471 237.284C184.279 237.092 184.183 236.856 184.183 236.576C184.183 236.296 184.279 236.064 184.471 235.88C184.671 235.688 184.919 235.592 185.215 235.592C185.511 235.592 185.755 235.688 185.947 235.88C186.147 236.064 186.247 236.296 186.247 236.576C186.247 236.856 186.147 237.092 185.947 237.284C185.755 237.468 185.511 237.56 185.215 237.56ZM186.043 238.352V245H184.363V238.352H186.043ZM190.247 245.108C189.703 245.108 189.215 245.012 188.783 244.82C188.351 244.62 188.007 244.352 187.751 244.016C187.503 243.68 187.367 243.308 187.343 242.9H189.035C189.067 243.156 189.191 243.368 189.407 243.536C189.631 243.704 189.907 243.788 190.235 243.788C190.555 243.788 190.803 243.724 190.979 243.596C191.163 243.468 191.255 243.304 191.255 243.104C191.255 242.888 191.143 242.728 190.919 242.624C190.703 242.512 190.355 242.392 189.875 242.264C189.379 242.144 188.971 242.02 188.651 241.892C188.339 241.764 188.067 241.568 187.835 241.304C187.611 241.04 187.499 240.684 187.499 240.236C187.499 239.868 187.603 239.532 187.811 239.228C188.027 238.924 188.331 238.684 188.723 238.508C189.123 238.332 189.591 238.244 190.127 238.244C190.919 238.244 191.551 238.444 192.023 238.844C192.495 239.236 192.755 239.768 192.803 240.44H191.195C191.171 240.176 191.059 239.968 190.859 239.816C190.667 239.656 190.407 239.576 190.079 239.576C189.775 239.576 189.539 239.632 189.371 239.744C189.211 239.856 189.131 240.012 189.131 240.212C189.131 240.436 189.243 240.608 189.467 240.728C189.691 240.84 190.039 240.956 190.511 241.076C190.991 241.196 191.387 241.32 191.699 241.448C192.011 241.576 192.279 241.776 192.503 242.048C192.735 242.312 192.855 242.664 192.863 243.104C192.863 243.488 192.755 243.832 192.539 244.136C192.331 244.44 192.027 244.68 191.627 244.856C191.235 245.024 190.775 245.108 190.247 245.108ZM193.81 241.652C193.81 240.98 193.942 240.384 194.206 239.864C194.478 239.344 194.842 238.944 195.298 238.664C195.762 238.384 196.278 238.244 196.846 238.244C197.342 238.244 197.774 238.344 198.142 238.544C198.518 238.744 198.818 238.996 199.042 239.3V238.352H200.734V245H199.042V244.028C198.826 244.34 198.526 244.6 198.142 244.808C197.766 245.008 197.33 245.108 196.834 245.108C196.274 245.108 195.762 244.964 195.298 244.676C194.842 244.388 194.478 243.984 194.206 243.464C193.942 242.936 193.81 242.332 193.81 241.652ZM199.042 241.676C199.042 241.268 198.962 240.92 198.802 240.632C198.642 240.336 198.426 240.112 198.154 239.96C197.882 239.8 197.59 239.72 197.278 239.72C196.966 239.72 196.678 239.796 196.414 239.948C196.15 240.1 195.934 240.324 195.766 240.62C195.606 240.908 195.526 241.252 195.526 241.652C195.526 242.052 195.606 242.404 195.766 242.708C195.934 243.004 196.15 243.232 196.414 243.392C196.686 243.552 196.974 243.632 197.278 243.632C197.59 243.632 197.882 243.556 198.154 243.404C198.426 243.244 198.642 243.02 198.802 242.732C198.962 242.436 199.042 242.084 199.042 241.676ZM204.331 239.732V242.948C204.331 243.172 204.383 243.336 204.487 243.44C204.599 243.536 204.783 243.584 205.039 243.584H205.819V245H204.763C203.347 245 202.639 244.312 202.639 242.936V239.732H201.847V238.352H202.639V236.708H204.331V238.352H205.819V239.732H204.331ZM207.879 237.56C207.583 237.56 207.335 237.468 207.135 237.284C206.943 237.092 206.847 236.856 206.847 236.576C206.847 236.296 206.943 236.064 207.135 235.88C207.335 235.688 207.583 235.592 207.879 235.592C208.175 235.592 208.419 235.688 208.611 235.88C208.811 236.064 208.911 236.296 208.911 236.576C208.911 236.856 208.811 237.092 208.611 237.284C208.419 237.468 208.175 237.56 207.879 237.56ZM208.707 238.352V245H207.027V238.352H208.707ZM213.319 245.108C212.679 245.108 212.103 244.968 211.591 244.688C211.079 244.4 210.675 243.996 210.379 243.476C210.091 242.956 209.947 242.356 209.947 241.676C209.947 240.996 210.095 240.396 210.391 239.876C210.695 239.356 211.107 238.956 211.627 238.676C212.147 238.388 212.727 238.244 213.367 238.244C214.007 238.244 214.587 238.388 215.107 238.676C215.627 238.956 216.035 239.356 216.331 239.876C216.635 240.396 216.787 240.996 216.787 241.676C216.787 242.356 216.631 242.956 216.319 243.476C216.015 243.996 215.599 244.4 215.071 244.688C214.551 244.968 213.967 245.108 213.319 245.108ZM213.319 243.644C213.623 243.644 213.907 243.572 214.171 243.428C214.443 243.276 214.659 243.052 214.819 242.756C214.979 242.46 215.059 242.1 215.059 241.676C215.059 241.044 214.891 240.56 214.555 240.224C214.227 239.88 213.823 239.708 213.343 239.708C212.863 239.708 212.459 239.88 212.131 240.224C211.811 240.56 211.651 241.044 211.651 241.676C211.651 242.308 211.807 242.796 212.119 243.14C212.439 243.476 212.839 243.644 213.319 243.644ZM221.703 238.256C222.495 238.256 223.135 238.508 223.623 239.012C224.111 239.508 224.355 240.204 224.355 241.1V245H222.675V241.328C222.675 240.8 222.543 240.396 222.279 240.116C222.015 239.828 221.655 239.684 221.199 239.684C220.735 239.684 220.367 239.828 220.095 240.116C219.831 240.396 219.699 240.8 219.699 241.328V245H218.019V238.352H219.699V239.18C219.923 238.892 220.207 238.668 220.551 238.508C220.903 238.34 221.287 238.256 221.703 238.256ZM229.664 237.56C229.368 237.56 229.12 237.468 228.92 237.284C228.728 237.092 228.632 236.856 228.632 236.576C228.632 236.296 228.728 236.064 228.92 235.88C229.12 235.688 229.368 235.592 229.664 235.592C229.96 235.592 230.204 235.688 230.396 235.88C230.596 236.064 230.696 236.296 230.696 236.576C230.696 236.856 230.596 237.092 230.396 237.284C230.204 237.468 229.96 237.56 229.664 237.56ZM230.492 238.352V245H228.812V238.352H230.492ZM234.696 245.108C234.152 245.108 233.664 245.012 233.232 244.82C232.8 244.62 232.456 244.352 232.2 244.016C231.952 243.68 231.816 243.308 231.792 242.9H233.484C233.516 243.156 233.64 243.368 233.856 243.536C234.08 243.704 234.356 243.788 234.684 243.788C235.004 243.788 235.252 243.724 235.428 243.596C235.612 243.468 235.704 243.304 235.704 243.104C235.704 242.888 235.592 242.728 235.368 242.624C235.152 242.512 234.804 242.392 234.324 242.264C233.828 242.144 233.42 242.02 233.1 241.892C232.788 241.764 232.516 241.568 232.284 241.304C232.06 241.04 231.948 240.684 231.948 240.236C231.948 239.868 232.052 239.532 232.26 239.228C232.476 238.924 232.78 238.684 233.172 238.508C233.572 238.332 234.04 238.244 234.576 238.244C235.368 238.244 236 238.444 236.472 238.844C236.944 239.236 237.204 239.768 237.252 240.44H235.644C235.62 240.176 235.508 239.968 235.308 239.816C235.116 239.656 234.856 239.576 234.528 239.576C234.224 239.576 233.988 239.632 233.82 239.744C233.66 239.856 233.58 240.012 233.58 240.212C233.58 240.436 233.692 240.608 233.916 240.728C234.14 240.84 234.488 240.956 234.96 241.076C235.44 241.196 235.836 241.32 236.148 241.448C236.46 241.576 236.728 241.776 236.952 242.048C237.184 242.312 237.304 242.664 237.312 243.104C237.312 243.488 237.204 243.832 236.988 244.136C236.78 244.44 236.476 244.68 236.076 244.856C235.684 245.024 235.224 245.108 234.696 245.108Z" fill="#959595"/>
<path d="M136.416 260.45V263.875H131.766V278H127.491V263.875H122.841V260.45H136.416ZM147.136 263.9C148.736 263.9 150.02 264.433 150.986 265.5C151.953 266.55 152.436 268 152.436 269.85V278H148.186V270.425C148.186 269.492 147.945 268.767 147.461 268.25C146.978 267.733 146.328 267.475 145.511 267.475C144.695 267.475 144.045 267.733 143.561 268.25C143.078 268.767 142.836 269.492 142.836 270.425V278H138.561V259.5H142.836V265.925C143.27 265.308 143.861 264.817 144.611 264.45C145.361 264.083 146.203 263.9 147.136 263.9ZM159.682 266.375C160.182 265.608 160.807 265.008 161.557 264.575C162.307 264.125 163.14 263.9 164.057 263.9V268.425H162.882C161.815 268.425 161.015 268.658 160.482 269.125C159.949 269.575 159.682 270.375 159.682 271.525V278H155.407V264.05H159.682V266.375ZM168.25 262.6C167.5 262.6 166.884 262.383 166.4 261.95C165.934 261.5 165.7 260.95 165.7 260.3C165.7 259.633 165.934 259.083 166.4 258.65C166.884 258.2 167.5 257.975 168.25 257.975C168.984 257.975 169.584 258.2 170.05 258.65C170.534 259.083 170.775 259.633 170.775 260.3C170.775 260.95 170.534 261.5 170.05 261.95C169.584 262.383 168.984 262.6 168.25 262.6ZM170.375 264.05V278H166.1V264.05H170.375ZM179.748 274L182.773 264.05H187.323L182.373 278H177.098L172.148 264.05H176.723L179.748 274ZM191.273 262.6C190.523 262.6 189.906 262.383 189.423 261.95C188.956 261.5 188.723 260.95 188.723 260.3C188.723 259.633 188.956 259.083 189.423 258.65C189.906 258.2 190.523 257.975 191.273 257.975C192.006 257.975 192.606 258.2 193.073 258.65C193.556 259.083 193.798 259.633 193.798 260.3C193.798 260.95 193.556 261.5 193.073 261.95C192.606 262.383 192.006 262.6 191.273 262.6ZM193.398 264.05V278H189.123V264.05H193.398ZM204.996 263.9C206.629 263.9 207.929 264.433 208.896 265.5C209.879 266.55 210.371 268 210.371 269.85V278H206.121V270.425C206.121 269.492 205.879 268.767 205.396 268.25C204.912 267.733 204.262 267.475 203.446 267.475C202.629 267.475 201.979 267.733 201.496 268.25C201.012 268.767 200.771 269.492 200.771 270.425V278H196.496V264.05H200.771V265.9C201.204 265.283 201.787 264.8 202.521 264.45C203.254 264.083 204.079 263.9 204.996 263.9ZM218.642 263.85C219.625 263.85 220.483 264.05 221.217 264.45C221.967 264.85 222.542 265.375 222.942 266.025V264.05H227.217V277.975C227.217 279.258 226.958 280.417 226.442 281.45C225.942 282.5 225.167 283.333 224.117 283.95C223.083 284.567 221.792 284.875 220.242 284.875C218.175 284.875 216.5 284.383 215.217 283.4C213.933 282.433 213.2 281.117 213.017 279.45H217.242C217.375 279.983 217.692 280.4 218.192 280.7C218.692 281.017 219.308 281.175 220.042 281.175C220.925 281.175 221.625 280.917 222.142 280.4C222.675 279.9 222.942 279.092 222.942 277.975V276C222.525 276.65 221.95 277.183 221.217 277.6C220.483 278 219.625 278.2 218.642 278.2C217.492 278.2 216.45 277.908 215.517 277.325C214.583 276.725 213.842 275.883 213.292 274.8C212.758 273.7 212.492 272.433 212.492 271C212.492 269.567 212.758 268.308 213.292 267.225C213.842 266.142 214.583 265.308 215.517 264.725C216.45 264.142 217.492 263.85 218.642 263.85ZM222.942 271.025C222.942 269.958 222.642 269.117 222.042 268.5C221.458 267.883 220.742 267.575 219.892 267.575C219.042 267.575 218.317 267.883 217.717 268.5C217.133 269.1 216.842 269.933 216.842 271C216.842 272.067 217.133 272.917 217.717 273.55C218.317 274.167 219.042 274.475 219.892 274.475C220.742 274.475 221.458 274.167 222.042 273.55C222.642 272.933 222.942 272.092 222.942 271.025Z" fill="#464646"/>
<path d="M161.056 141.47L131.796 210H116.176L145.656 143.23H108.036V130.03H161.056V141.47ZM174.859 210.77C172.073 210.77 169.763 209.927 167.929 208.24C166.169 206.48 165.289 204.317 165.289 201.75C165.289 199.183 166.169 197.057 167.929 195.37C169.763 193.61 172.073 192.73 174.859 192.73C177.573 192.73 179.809 193.61 181.569 195.37C183.329 197.057 184.209 199.183 184.209 201.75C184.209 204.317 183.329 206.48 181.569 208.24C179.809 209.927 177.573 210.77 174.859 210.77ZM244.753 143.12H209.113V161.93C210.653 160.023 212.853 158.483 215.713 157.31C218.573 156.063 221.617 155.44 224.843 155.44C230.71 155.44 235.513 156.723 239.253 159.29C242.993 161.857 245.707 165.157 247.393 169.19C249.08 173.15 249.923 177.403 249.923 181.95C249.923 190.383 247.503 197.167 242.663 202.3C237.897 207.433 231.077 210 222.203 210C213.843 210 207.17 207.91 202.183 203.73C197.197 199.55 194.373 194.087 193.713 187.34H208.673C209.333 190.273 210.8 192.62 213.073 194.38C215.42 196.14 218.39 197.02 221.983 197.02C226.31 197.02 229.573 195.663 231.773 192.95C233.973 190.237 235.073 186.643 235.073 182.17C235.073 177.623 233.937 174.177 231.663 171.83C229.463 169.41 226.2 168.2 221.873 168.2C218.793 168.2 216.227 168.97 214.173 170.51C212.12 172.05 210.653 174.103 209.773 176.67H195.033V129.59H244.753V143.12Z" fill="#464646"/>
<g style="mix-blend-mode:multiply" opacity="0.5">
<path d="M25.8701 227.5C25.8701 226.124 26.1341 225.04 26.6621 224.248C27.1981 223.456 28.0581 223.06 29.2421 223.06C30.4261 223.06 31.2821 223.456 31.8101 224.248C32.3461 225.04 32.6141 226.124 32.6141 227.5C32.6141 228.892 32.3461 229.984 31.8101 230.776C31.2821 231.568 30.4261 231.964 29.2421 231.964C28.0581 231.964 27.1981 231.568 26.6621 230.776C26.1341 229.984 25.8701 228.892 25.8701 227.5ZM30.5981 227.5C30.5981 226.692 30.5101 226.072 30.3341 225.64C30.1581 225.2 29.7941 224.98 29.2421 224.98C28.6901 224.98 28.3261 225.2 28.1501 225.64C27.9741 226.072 27.8861 226.692 27.8861 227.5C27.8861 228.044 27.9181 228.496 27.9821 228.856C28.0461 229.208 28.1741 229.496 28.3661 229.72C28.5661 229.936 28.8581 230.044 29.2421 230.044C29.6261 230.044 29.9141 229.936 30.1061 229.72C30.3061 229.496 30.4381 229.208 30.5021 228.856C30.5661 228.496 30.5981 228.044 30.5981 227.5ZM33.4822 225.148V223.24H36.8062V232H34.6702V225.148H33.4822Z" fill="#464646"/>
</g>
<g style="mix-blend-mode:multiply" opacity="0.5">
<path d="M322.654 225.148V223.24H325.978V232H323.842V225.148H322.654ZM327.382 227.5C327.382 226.124 327.646 225.04 328.174 224.248C328.71 223.456 329.57 223.06 330.754 223.06C331.938 223.06 332.794 223.456 333.322 224.248C333.858 225.04 334.126 226.124 334.126 227.5C334.126 228.892 333.858 229.984 333.322 230.776C332.794 231.568 331.938 231.964 330.754 231.964C329.57 231.964 328.71 231.568 328.174 230.776C327.646 229.984 327.382 228.892 327.382 227.5ZM332.11 227.5C332.11 226.692 332.022 226.072 331.846 225.64C331.67 225.2 331.306 224.98 330.754 224.98C330.202 224.98 329.838 225.2 329.662 225.64C329.486 226.072 329.398 226.692 329.398 227.5C329.398 228.044 329.43 228.496 329.494 228.856C329.558 229.208 329.686 229.496 329.878 229.72C330.078 229.936 330.37 230.044 330.754 230.044C331.138 230.044 331.426 229.936 331.618 229.72C331.818 229.496 331.95 229.208 332.014 228.856C332.078 228.496 332.11 228.044 332.11 227.5Z" fill="#464646"/>
</g>
<defs>
<filter id="filter0_i_109_9956" x="0" y="0" width="360" height="360" filterUnits="userSpaceOnUse" color-interpolation-filters="sRGB">
<feFlood flood-opacity="0" result="BackgroundImageFix"/>
<feBlend mode="normal" in="SourceGraphic" in2="BackgroundImageFix" result="shape"/>
<feColorMatrix in="SourceAlpha" type="matrix" values="0 0 0 0 0 0 0 0 0 0 0 0 0 0 0 0 0 0 127 0" result="hardAlpha"/>
<feOffset/>
<feGaussianBlur stdDeviation="8"/>
<feComposite in2="hardAlpha" operator="arithmetic" k2="-1" k3="1"/>
<feColorMatrix type="matrix" values="0 0 0 0 0 0 0 0 0 0 0 0 0 0 0 0 0 0 0.12 0"/>
<feBlend mode="normal" in2="shape" result="effect1_innerShadow_109_9956"/>
</filter>
<filter id="filter1_i_109_9956" x="3.97461" y="4.07031" width="321.48" height="246.26" filterUnits="userSpaceOnUse" color-interpolation-filters="sRGB">
<feFlood flood-opacity="0" result="BackgroundImageFix"/>
<feBlend mode="normal" in="SourceGraphic" in2="BackgroundImageFix" result="shape"/>
<feColorMatrix in="SourceAlpha" type="matrix" values="0 0 0 0 0 0 0 0 0 0 0 0 0 0 0 0 0 0 127 0" result="hardAlpha"/>
<feOffset/>
<feGaussianBlur stdDeviation="4"/>
<feComposite in2="hardAlpha" operator="arithmetic" k2="-1" k3="1"/>
<feColorMatrix type="matrix" values="0 0 0 0 0.0360099 0 0 0 0 0.557292 0 0 0 0 0.244523 0 0 0 1 0"/>
<feBlend mode="normal" in2="shape" result="effect1_innerShadow_109_9956"/>
</filter>
<filter id="filter2_bi_109_9956" x="32" y="32" width="296.264" height="296.264" filterUnits="userSpaceOnUse" color-interpolation-filters="sRGB">
<feFlood flood-opacity="0" result="BackgroundImageFix"/>
<feGaussianBlur in="BackgroundImageFix" stdDeviation="6"/>
<feComposite in2="SourceAlpha" operator="in" result="effect1_backgroundBlur_109_9956"/>
<feBlend mode="normal" in="SourceGraphic" in2="effect1_backgroundBlur_109_9956" result="shape"/>
<feColorMatrix in="SourceAlpha" type="matrix" values="0 0 0 0 0 0 0 0 0 0 0 0 0 0 0 0 0 0 127 0" result="hardAlpha"/>
<feOffset/>
<feGaussianBlur stdDeviation="3.5"/>
<feComposite in2="hardAlpha" operator="arithmetic" k2="-1" k3="1"/>
<feColorMatrix type="matrix" values="0 0 0 0 0 0 0 0 0 0 0 0 0 0 0 0 0 0 0.25 0"/>
<feBlend mode="normal" in2="shape" result="effect2_innerShadow_109_9956"/>
</filter>
<linearGradient id="paint0_linear_109_9956" x1="103.213" y1="58.4741" x2="361.528" y2="180.193" gradientUnits="userSpaceOnUse">
<stop stop-color="#5AF899"/>
<stop offset="1" stop-color="#3CAF6A"/>
</linearGradient>
</defs>
</svg>
