<svg width="360" height="369" viewBox="0 0 360 369" fill="none" xmlns="http://www.w3.org/2000/svg">
<g filter="url(#filter0_i_109_9972)">
<circle cx="180" cy="189" r="175" fill="white"/>
</g>
<circle cx="180" cy="189" r="177.5" stroke="#CACACA" stroke-width="5"/>
<g style="mix-blend-mode:multiply">
<mask id="mask0_109_9972" style="mask-type:alpha" maskUnits="userSpaceOnUse" x="5" y="14" width="350" height="350">
<circle cx="180" cy="189" r="175" fill="white"/>
</mask>
<g mask="url(#mask0_109_9972)">
<g filter="url(#filter1_i_109_9972)">
<path d="M17.3596 259.331C-0.353487 216.212 -0.49121 167.874 16.9759 124.655C34.443 81.4355 68.1281 46.7669 110.827 28.0637L182.426 191.522L17.3596 259.331Z" fill="url(#paint0_linear_109_9972)"/>
</g>
<path fill-rule="evenodd" clip-rule="evenodd" d="M179.488 14.0007C179.659 14.0002 179.829 14 180 14C180.171 14 180.341 14.0002 180.512 14.0007L180.327 79.2773C180.27 79.2772 180.214 79.277 180.157 79.277C180.105 79.2769 180.052 79.2769 180 79.2769C179.891 79.2769 179.782 79.277 179.673 79.2773L179.488 14.0007ZM247.29 27.29C247.605 27.42 247.92 27.5509 248.234 27.6826L223.133 87.9078C222.935 87.8247 222.736 87.7422 222.538 87.6602L247.29 27.29ZM111.766 27.6827C112.08 27.5509 112.395 27.42 112.71 27.29L137.462 87.6602C137.264 87.7422 137.065 87.8247 136.867 87.9078L111.766 27.6827ZM54.4816 66.3667C54.7216 66.1246 54.9623 65.8832 55.2036 65.6425L101.085 111.932C100.932 112.085 100.78 112.238 100.627 112.392L54.4816 66.3667ZM304.796 65.6425C305.038 65.8832 305.278 66.1246 305.518 66.3667L259.373 112.392C259.22 112.238 259.068 112.085 258.915 111.932L304.796 65.6425ZM343.36 123.106C343.491 123.421 343.622 123.737 343.751 124.053L283.569 148.882C283.488 148.683 283.405 148.484 283.322 148.286L343.36 123.106ZM16.2486 124.053C16.3782 123.737 16.5087 123.421 16.64 123.106L76.6776 148.286C76.5948 148.484 76.5125 148.683 76.4308 148.882L16.2486 124.053ZM356.999 191.04C357 191.211 357 191.382 357 191.553C357 191.724 357 191.895 356.999 192.067L291.926 191.881C291.926 191.772 291.926 191.662 291.926 191.553C291.926 191.444 291.926 191.334 291.926 191.225L356.999 191.04ZM3 191.553C3 191.382 3.00024 191.211 3.00073 191.04L68.074 191.225C68.0738 191.275 68.0737 191.326 68.0737 191.376C68.0736 191.435 68.0735 191.494 68.0735 191.553C68.0735 191.662 68.0737 191.772 68.074 191.881L3.00073 192.067C3.00024 191.895 3 191.724 3 191.553ZM343.751 259.053C343.622 259.369 343.491 259.685 343.36 260L283.322 234.821C283.405 234.622 283.488 234.423 283.569 234.224L343.751 259.053ZM16.64 260C16.5087 259.685 16.3782 259.369 16.2486 259.053L76.4308 234.224C76.5125 234.423 76.5948 234.622 76.6776 234.821L16.64 260Z" fill="#CACACA"/>
</g>
</g>
<path d="M95 8C95 12.4183 98.5817 16 103 16C107.418 16 111 12.4183 111 8C111 3.58172 107.418 0 103 0C98.5817 0 95 3.58172 95 8ZM181.38 188.413L104.38 7.4128L101.62 8.5872L178.62 189.587L181.38 188.413Z" fill="#FF9631"/>
<g filter="url(#filter2_bi_109_9972)">
<circle cx="180.132" cy="189.132" r="136.132" fill="white" fill-opacity="0.02"/>
</g>
<path d="M121.625 245.624L118.793 251.084V254H117.113V251.084L114.269 245.624H116.165L117.965 249.452L119.753 245.624H121.625ZM125.546 254.108C124.906 254.108 124.33 253.968 123.818 253.688C123.306 253.4 122.902 252.996 122.606 252.476C122.318 251.956 122.174 251.356 122.174 250.676C122.174 249.996 122.322 249.396 122.618 248.876C122.922 248.356 123.334 247.956 123.854 247.676C124.374 247.388 124.954 247.244 125.594 247.244C126.234 247.244 126.814 247.388 127.334 247.676C127.854 247.956 128.262 248.356 128.558 248.876C128.862 249.396 129.014 249.996 129.014 250.676C129.014 251.356 128.858 251.956 128.546 252.476C128.242 252.996 127.826 253.4 127.298 253.688C126.778 253.968 126.194 254.108 125.546 254.108ZM125.546 252.644C125.85 252.644 126.134 252.572 126.398 252.428C126.67 252.276 126.886 252.052 127.046 251.756C127.206 251.46 127.286 251.1 127.286 250.676C127.286 250.044 127.118 249.56 126.782 249.224C126.454 248.88 126.05 248.708 125.57 248.708C125.09 248.708 124.686 248.88 124.358 249.224C124.038 249.56 123.878 250.044 123.878 250.676C123.878 251.308 124.034 251.796 124.346 252.14C124.666 252.476 125.066 252.644 125.546 252.644ZM136.522 247.352V254H134.83V253.16C134.614 253.448 134.33 253.676 133.978 253.844C133.634 254.004 133.258 254.084 132.85 254.084C132.33 254.084 131.87 253.976 131.47 253.76C131.07 253.536 130.754 253.212 130.522 252.788C130.298 252.356 130.186 251.844 130.186 251.252V247.352H131.866V251.012C131.866 251.54 131.998 251.948 132.262 252.236C132.526 252.516 132.886 252.656 133.342 252.656C133.806 252.656 134.17 252.516 134.434 252.236C134.698 251.948 134.83 251.54 134.83 251.012V247.352H136.522ZM139.86 248.384C140.076 248.032 140.356 247.756 140.7 247.556C141.052 247.356 141.452 247.256 141.9 247.256V249.02H141.456C140.928 249.02 140.528 249.144 140.256 249.392C139.992 249.64 139.86 250.072 139.86 250.688V254H138.18V247.352H139.86V248.384ZM149.779 254.084C148.995 254.084 148.275 253.9 147.619 253.532C146.963 253.164 146.443 252.656 146.059 252.008C145.675 251.352 145.483 250.612 145.483 249.788C145.483 248.972 145.675 248.24 146.059 247.592C146.443 246.936 146.963 246.424 147.619 246.056C148.275 245.688 148.995 245.504 149.779 245.504C150.571 245.504 151.291 245.688 151.939 246.056C152.595 246.424 153.111 246.936 153.487 247.592C153.871 248.24 154.063 248.972 154.063 249.788C154.063 250.612 153.871 251.352 153.487 252.008C153.111 252.656 152.595 253.164 151.939 253.532C151.283 253.9 150.563 254.084 149.779 254.084ZM149.779 252.584C150.283 252.584 150.727 252.472 151.111 252.248C151.495 252.016 151.795 251.688 152.011 251.264C152.227 250.84 152.335 250.348 152.335 249.788C152.335 249.228 152.227 248.74 152.011 248.324C151.795 247.9 151.495 247.576 151.111 247.352C150.727 247.128 150.283 247.016 149.779 247.016C149.275 247.016 148.827 247.128 148.435 247.352C148.051 247.576 147.751 247.9 147.535 248.324C147.319 248.74 147.211 249.228 147.211 249.788C147.211 250.348 147.319 250.84 147.535 251.264C147.751 251.688 148.051 252.016 148.435 252.248C148.827 252.472 149.275 252.584 149.779 252.584ZM156.992 248.384C157.208 248.032 157.488 247.756 157.832 247.556C158.184 247.356 158.584 247.256 159.032 247.256V249.02H158.588C158.06 249.02 157.66 249.144 157.388 249.392C157.124 249.64 156.992 250.072 156.992 250.688V254H155.312V247.352H156.992V248.384ZM162.768 247.244C163.264 247.244 163.7 247.344 164.076 247.544C164.452 247.736 164.748 247.988 164.964 248.3V247.352H166.656V254.048C166.656 254.664 166.532 255.212 166.284 255.692C166.036 256.18 165.664 256.564 165.168 256.844C164.672 257.132 164.072 257.276 163.368 257.276C162.424 257.276 161.648 257.056 161.04 256.616C160.44 256.176 160.1 255.576 160.02 254.816H161.688C161.776 255.12 161.964 255.36 162.252 255.536C162.548 255.72 162.904 255.812 163.32 255.812C163.808 255.812 164.204 255.664 164.508 255.368C164.812 255.08 164.964 254.64 164.964 254.048V253.016C164.748 253.328 164.448 253.588 164.064 253.796C163.688 254.004 163.256 254.108 162.768 254.108C162.208 254.108 161.696 253.964 161.232 253.676C160.768 253.388 160.4 252.984 160.128 252.464C159.864 251.936 159.732 251.332 159.732 250.652C159.732 249.98 159.864 249.384 160.128 248.864C160.4 248.344 160.764 247.944 161.22 247.664C161.684 247.384 162.2 247.244 162.768 247.244ZM164.964 250.676C164.964 250.268 164.884 249.92 164.724 249.632C164.564 249.336 164.348 249.112 164.076 248.96C163.804 248.8 163.512 248.72 163.2 248.72C162.888 248.72 162.6 248.796 162.336 248.948C162.072 249.1 161.856 249.324 161.688 249.62C161.528 249.908 161.448 250.252 161.448 250.652C161.448 251.052 161.528 251.404 161.688 251.708C161.856 252.004 162.072 252.232 162.336 252.392C162.608 252.552 162.896 252.632 163.2 252.632C163.512 252.632 163.804 252.556 164.076 252.404C164.348 252.244 164.564 252.02 164.724 251.732C164.884 251.436 164.964 251.084 164.964 250.676ZM167.865 250.652C167.865 249.98 167.997 249.384 168.261 248.864C168.533 248.344 168.897 247.944 169.353 247.664C169.817 247.384 170.333 247.244 170.901 247.244C171.397 247.244 171.829 247.344 172.197 247.544C172.573 247.744 172.873 247.996 173.097 248.3V247.352H174.789V254H173.097V253.028C172.881 253.34 172.581 253.6 172.197 253.808C171.821 254.008 171.385 254.108 170.889 254.108C170.329 254.108 169.817 253.964 169.353 253.676C168.897 253.388 168.533 252.984 168.261 252.464C167.997 251.936 167.865 251.332 167.865 250.652ZM173.097 250.676C173.097 250.268 173.017 249.92 172.857 249.632C172.697 249.336 172.481 249.112 172.209 248.96C171.937 248.8 171.645 248.72 171.333 248.72C171.021 248.72 170.733 248.796 170.469 248.948C170.205 249.1 169.989 249.324 169.821 249.62C169.661 249.908 169.581 250.252 169.581 250.652C169.581 251.052 169.661 251.404 169.821 251.708C169.989 252.004 170.205 252.232 170.469 252.392C170.741 252.552 171.029 252.632 171.333 252.632C171.645 252.632 171.937 252.556 172.209 252.404C172.481 252.244 172.697 252.02 172.857 251.732C173.017 251.436 173.097 251.084 173.097 250.676ZM180.114 247.256C180.906 247.256 181.546 247.508 182.034 248.012C182.522 248.508 182.766 249.204 182.766 250.1V254H181.086V250.328C181.086 249.8 180.954 249.396 180.69 249.116C180.426 248.828 180.066 248.684 179.61 248.684C179.146 248.684 178.778 248.828 178.506 249.116C178.242 249.396 178.11 249.8 178.11 250.328V254H176.43V247.352H178.11V248.18C178.334 247.892 178.618 247.668 178.962 247.508C179.314 247.34 179.698 247.256 180.114 247.256ZM185.215 246.56C184.919 246.56 184.671 246.468 184.471 246.284C184.279 246.092 184.183 245.856 184.183 245.576C184.183 245.296 184.279 245.064 184.471 244.88C184.671 244.688 184.919 244.592 185.215 244.592C185.511 244.592 185.755 244.688 185.947 244.88C186.147 245.064 186.247 245.296 186.247 245.576C186.247 245.856 186.147 246.092 185.947 246.284C185.755 246.468 185.511 246.56 185.215 246.56ZM186.043 247.352V254H184.363V247.352H186.043ZM190.247 254.108C189.703 254.108 189.215 254.012 188.783 253.82C188.351 253.62 188.007 253.352 187.751 253.016C187.503 252.68 187.367 252.308 187.343 251.9H189.035C189.067 252.156 189.191 252.368 189.407 252.536C189.631 252.704 189.907 252.788 190.235 252.788C190.555 252.788 190.803 252.724 190.979 252.596C191.163 252.468 191.255 252.304 191.255 252.104C191.255 251.888 191.143 251.728 190.919 251.624C190.703 251.512 190.355 251.392 189.875 251.264C189.379 251.144 188.971 251.02 188.651 250.892C188.339 250.764 188.067 250.568 187.835 250.304C187.611 250.04 187.499 249.684 187.499 249.236C187.499 248.868 187.603 248.532 187.811 248.228C188.027 247.924 188.331 247.684 188.723 247.508C189.123 247.332 189.591 247.244 190.127 247.244C190.919 247.244 191.551 247.444 192.023 247.844C192.495 248.236 192.755 248.768 192.803 249.44H191.195C191.171 249.176 191.059 248.968 190.859 248.816C190.667 248.656 190.407 248.576 190.079 248.576C189.775 248.576 189.539 248.632 189.371 248.744C189.211 248.856 189.131 249.012 189.131 249.212C189.131 249.436 189.243 249.608 189.467 249.728C189.691 249.84 190.039 249.956 190.511 250.076C190.991 250.196 191.387 250.32 191.699 250.448C192.011 250.576 192.279 250.776 192.503 251.048C192.735 251.312 192.855 251.664 192.863 252.104C192.863 252.488 192.755 252.832 192.539 253.136C192.331 253.44 192.027 253.68 191.627 253.856C191.235 254.024 190.775 254.108 190.247 254.108ZM193.81 250.652C193.81 249.98 193.942 249.384 194.206 248.864C194.478 248.344 194.842 247.944 195.298 247.664C195.762 247.384 196.278 247.244 196.846 247.244C197.342 247.244 197.774 247.344 198.142 247.544C198.518 247.744 198.818 247.996 199.042 248.3V247.352H200.734V254H199.042V253.028C198.826 253.34 198.526 253.6 198.142 253.808C197.766 254.008 197.33 254.108 196.834 254.108C196.274 254.108 195.762 253.964 195.298 253.676C194.842 253.388 194.478 252.984 194.206 252.464C193.942 251.936 193.81 251.332 193.81 250.652ZM199.042 250.676C199.042 250.268 198.962 249.92 198.802 249.632C198.642 249.336 198.426 249.112 198.154 248.96C197.882 248.8 197.59 248.72 197.278 248.72C196.966 248.72 196.678 248.796 196.414 248.948C196.15 249.1 195.934 249.324 195.766 249.62C195.606 249.908 195.526 250.252 195.526 250.652C195.526 251.052 195.606 251.404 195.766 251.708C195.934 252.004 196.15 252.232 196.414 252.392C196.686 252.552 196.974 252.632 197.278 252.632C197.59 252.632 197.882 252.556 198.154 252.404C198.426 252.244 198.642 252.02 198.802 251.732C198.962 251.436 199.042 251.084 199.042 250.676ZM204.331 248.732V251.948C204.331 252.172 204.383 252.336 204.487 252.44C204.599 252.536 204.783 252.584 205.039 252.584H205.819V254H204.763C203.347 254 202.639 253.312 202.639 251.936V248.732H201.847V247.352H202.639V245.708H204.331V247.352H205.819V248.732H204.331ZM207.879 246.56C207.583 246.56 207.335 246.468 207.135 246.284C206.943 246.092 206.847 245.856 206.847 245.576C206.847 245.296 206.943 245.064 207.135 244.88C207.335 244.688 207.583 244.592 207.879 244.592C208.175 244.592 208.419 244.688 208.611 244.88C208.811 245.064 208.911 245.296 208.911 245.576C208.911 245.856 208.811 246.092 208.611 246.284C208.419 246.468 208.175 246.56 207.879 246.56ZM208.707 247.352V254H207.027V247.352H208.707ZM213.319 254.108C212.679 254.108 212.103 253.968 211.591 253.688C211.079 253.4 210.675 252.996 210.379 252.476C210.091 251.956 209.947 251.356 209.947 250.676C209.947 249.996 210.095 249.396 210.391 248.876C210.695 248.356 211.107 247.956 211.627 247.676C212.147 247.388 212.727 247.244 213.367 247.244C214.007 247.244 214.587 247.388 215.107 247.676C215.627 247.956 216.035 248.356 216.331 248.876C216.635 249.396 216.787 249.996 216.787 250.676C216.787 251.356 216.631 251.956 216.319 252.476C216.015 252.996 215.599 253.4 215.071 253.688C214.551 253.968 213.967 254.108 213.319 254.108ZM213.319 252.644C213.623 252.644 213.907 252.572 214.171 252.428C214.443 252.276 214.659 252.052 214.819 251.756C214.979 251.46 215.059 251.1 215.059 250.676C215.059 250.044 214.891 249.56 214.555 249.224C214.227 248.88 213.823 248.708 213.343 248.708C212.863 248.708 212.459 248.88 212.131 249.224C211.811 249.56 211.651 250.044 211.651 250.676C211.651 251.308 211.807 251.796 212.119 252.14C212.439 252.476 212.839 252.644 213.319 252.644ZM221.703 247.256C222.495 247.256 223.135 247.508 223.623 248.012C224.111 248.508 224.355 249.204 224.355 250.1V254H222.675V250.328C222.675 249.8 222.543 249.396 222.279 249.116C222.015 248.828 221.655 248.684 221.199 248.684C220.735 248.684 220.367 248.828 220.095 249.116C219.831 249.396 219.699 249.8 219.699 250.328V254H218.019V247.352H219.699V248.18C219.923 247.892 220.207 247.668 220.551 247.508C220.903 247.34 221.287 247.256 221.703 247.256ZM229.664 246.56C229.368 246.56 229.12 246.468 228.92 246.284C228.728 246.092 228.632 245.856 228.632 245.576C228.632 245.296 228.728 245.064 228.92 244.88C229.12 244.688 229.368 244.592 229.664 244.592C229.96 244.592 230.204 244.688 230.396 244.88C230.596 245.064 230.696 245.296 230.696 245.576C230.696 245.856 230.596 246.092 230.396 246.284C230.204 246.468 229.96 246.56 229.664 246.56ZM230.492 247.352V254H228.812V247.352H230.492ZM234.696 254.108C234.152 254.108 233.664 254.012 233.232 253.82C232.8 253.62 232.456 253.352 232.2 253.016C231.952 252.68 231.816 252.308 231.792 251.9H233.484C233.516 252.156 233.64 252.368 233.856 252.536C234.08 252.704 234.356 252.788 234.684 252.788C235.004 252.788 235.252 252.724 235.428 252.596C235.612 252.468 235.704 252.304 235.704 252.104C235.704 251.888 235.592 251.728 235.368 251.624C235.152 251.512 234.804 251.392 234.324 251.264C233.828 251.144 233.42 251.02 233.1 250.892C232.788 250.764 232.516 250.568 232.284 250.304C232.06 250.04 231.948 249.684 231.948 249.236C231.948 248.868 232.052 248.532 232.26 248.228C232.476 247.924 232.78 247.684 233.172 247.508C233.572 247.332 234.04 247.244 234.576 247.244C235.368 247.244 236 247.444 236.472 247.844C236.944 248.236 237.204 248.768 237.252 249.44H235.644C235.62 249.176 235.508 248.968 235.308 248.816C235.116 248.656 234.856 248.576 234.528 248.576C234.224 248.576 233.988 248.632 233.82 248.744C233.66 248.856 233.58 249.012 233.58 249.212C233.58 249.436 233.692 249.608 233.916 249.728C234.14 249.84 234.488 249.956 234.96 250.076C235.44 250.196 235.836 250.32 236.148 250.448C236.46 250.576 236.728 250.776 236.952 251.048C237.184 251.312 237.304 251.664 237.312 252.104C237.312 252.488 237.204 252.832 236.988 253.136C236.78 253.44 236.476 253.68 236.076 253.856C235.684 254.024 235.224 254.108 234.696 254.108Z" fill="#959595"/>
<path d="M129.267 278.2C129.267 276.467 129.642 274.925 130.392 273.575C131.142 272.208 132.184 271.15 133.517 270.4C134.867 269.633 136.392 269.25 138.092 269.25C140.176 269.25 141.959 269.8 143.442 270.9C144.926 272 145.917 273.5 146.417 275.4H141.717C141.367 274.667 140.867 274.108 140.217 273.725C139.584 273.342 138.859 273.15 138.042 273.15C136.726 273.15 135.659 273.608 134.842 274.525C134.026 275.442 133.617 276.667 133.617 278.2C133.617 279.733 134.026 280.958 134.842 281.875C135.659 282.792 136.726 283.25 138.042 283.25C138.859 283.25 139.584 283.058 140.217 282.675C140.867 282.292 141.367 281.733 141.717 281H146.417C145.917 282.9 144.926 284.4 143.442 285.5C141.959 286.583 140.176 287.125 138.092 287.125C136.392 287.125 134.867 286.75 133.517 286C132.184 285.233 131.142 284.175 130.392 282.825C129.642 281.475 129.267 279.933 129.267 278.2ZM155.385 287.2C154.019 287.2 152.785 286.908 151.685 286.325C150.602 285.742 149.744 284.908 149.11 283.825C148.494 282.742 148.185 281.475 148.185 280.025C148.185 278.592 148.502 277.333 149.135 276.25C149.769 275.15 150.635 274.308 151.735 273.725C152.835 273.142 154.069 272.85 155.435 272.85C156.802 272.85 158.035 273.142 159.135 273.725C160.235 274.308 161.102 275.15 161.735 276.25C162.369 277.333 162.685 278.592 162.685 280.025C162.685 281.458 162.36 282.725 161.71 283.825C161.077 284.908 160.202 285.742 159.085 286.325C157.985 286.908 156.752 287.2 155.385 287.2ZM155.385 283.5C156.202 283.5 156.894 283.2 157.46 282.6C158.044 282 158.335 281.142 158.335 280.025C158.335 278.908 158.052 278.05 157.485 277.45C156.935 276.85 156.252 276.55 155.435 276.55C154.602 276.55 153.91 276.85 153.36 277.45C152.81 278.033 152.535 278.892 152.535 280.025C152.535 281.142 152.802 282 153.335 282.6C153.885 283.2 154.569 283.5 155.385 283.5ZM169.228 275.025C169.645 274.375 170.22 273.85 170.953 273.45C171.687 273.05 172.545 272.85 173.528 272.85C174.678 272.85 175.72 273.142 176.653 273.725C177.587 274.308 178.32 275.142 178.853 276.225C179.403 277.308 179.678 278.567 179.678 280C179.678 281.433 179.403 282.7 178.853 283.8C178.32 284.883 177.587 285.725 176.653 286.325C175.72 286.908 174.678 287.2 173.528 287.2C172.562 287.2 171.703 287 170.953 286.6C170.22 286.2 169.645 285.683 169.228 285.05V293.65H164.953V273.05H169.228V275.025ZM175.328 280C175.328 278.933 175.028 278.1 174.428 277.5C173.845 276.883 173.12 276.575 172.253 276.575C171.403 276.575 170.678 276.883 170.078 277.5C169.495 278.117 169.203 278.958 169.203 280.025C169.203 281.092 169.495 281.933 170.078 282.55C170.678 283.167 171.403 283.475 172.253 283.475C173.103 283.475 173.828 283.167 174.428 282.55C175.028 281.917 175.328 281.067 175.328 280ZM184.071 271.6C183.321 271.6 182.704 271.383 182.221 270.95C181.754 270.5 181.521 269.95 181.521 269.3C181.521 268.633 181.754 268.083 182.221 267.65C182.704 267.2 183.321 266.975 184.071 266.975C184.804 266.975 185.404 267.2 185.871 267.65C186.354 268.083 186.596 268.633 186.596 269.3C186.596 269.95 186.354 270.5 185.871 270.95C185.404 271.383 184.804 271.6 184.071 271.6ZM186.196 273.05V287H181.921V273.05H186.196ZM197.794 272.9C199.427 272.9 200.727 273.433 201.694 274.5C202.677 275.55 203.169 277 203.169 278.85V287H198.919V279.425C198.919 278.492 198.677 277.767 198.194 277.25C197.711 276.733 197.061 276.475 196.244 276.475C195.427 276.475 194.777 276.733 194.294 277.25C193.811 277.767 193.569 278.492 193.569 279.425V287H189.294V273.05H193.569V274.9C194.002 274.283 194.586 273.8 195.319 273.45C196.052 273.083 196.877 272.9 197.794 272.9ZM211.44 272.85C212.423 272.85 213.282 273.05 214.015 273.45C214.765 273.85 215.34 274.375 215.74 275.025V273.05H220.015V286.975C220.015 288.258 219.757 289.417 219.24 290.45C218.74 291.5 217.965 292.333 216.915 292.95C215.882 293.567 214.59 293.875 213.04 293.875C210.973 293.875 209.298 293.383 208.015 292.4C206.732 291.433 205.998 290.117 205.815 288.45H210.04C210.173 288.983 210.49 289.4 210.99 289.7C211.49 290.017 212.107 290.175 212.84 290.175C213.723 290.175 214.423 289.917 214.94 289.4C215.473 288.9 215.74 288.092 215.74 286.975V285C215.323 285.65 214.748 286.183 214.015 286.6C213.282 287 212.423 287.2 211.44 287.2C210.29 287.2 209.248 286.908 208.315 286.325C207.382 285.725 206.64 284.883 206.09 283.8C205.557 282.7 205.29 281.433 205.29 280C205.29 278.567 205.557 277.308 206.09 276.225C206.64 275.142 207.382 274.308 208.315 273.725C209.248 273.142 210.29 272.85 211.44 272.85ZM215.74 280.025C215.74 278.958 215.44 278.117 214.84 277.5C214.257 276.883 213.54 276.575 212.69 276.575C211.84 276.575 211.115 276.883 210.515 277.5C209.932 278.1 209.64 278.933 209.64 280C209.64 281.067 209.932 281.917 210.515 282.55C211.115 283.167 211.84 283.475 212.69 283.475C213.54 283.475 214.257 283.167 214.84 282.55C215.44 281.933 215.74 281.092 215.74 280.025Z" fill="#464646"/>
<path d="M141.308 206.38V194.28L177.278 142.8H195.208V192.96H204.888V206.38H195.208V222H179.808V206.38H141.308ZM180.798 159.3L158.248 192.96H180.798V159.3Z" fill="#464646"/>
<g style="mix-blend-mode:multiply" opacity="0.5">
<path d="M25.8701 230.5C25.8701 229.124 26.1341 228.04 26.6621 227.248C27.1981 226.456 28.0581 226.06 29.2421 226.06C30.4261 226.06 31.2821 226.456 31.8101 227.248C32.3461 228.04 32.6141 229.124 32.6141 230.5C32.6141 231.892 32.3461 232.984 31.8101 233.776C31.2821 234.568 30.4261 234.964 29.2421 234.964C28.0581 234.964 27.1981 234.568 26.6621 233.776C26.1341 232.984 25.8701 231.892 25.8701 230.5ZM30.5981 230.5C30.5981 229.692 30.5101 229.072 30.3341 228.64C30.1581 228.2 29.7941 227.98 29.2421 227.98C28.6901 227.98 28.3261 228.2 28.1501 228.64C27.9741 229.072 27.8861 229.692 27.8861 230.5C27.8861 231.044 27.9181 231.496 27.9821 231.856C28.0461 232.208 28.1741 232.496 28.3661 232.72C28.5661 232.936 28.8581 233.044 29.2421 233.044C29.6261 233.044 29.9141 232.936 30.1061 232.72C30.3061 232.496 30.4381 232.208 30.5021 231.856C30.5661 231.496 30.5981 231.044 30.5981 230.5ZM33.4822 228.148V226.24H36.8062V235H34.6702V228.148H33.4822Z" fill="#464646"/>
</g>
<g style="mix-blend-mode:multiply" opacity="0.5">
<path d="M322.654 228.148V226.24H325.978V235H323.842V228.148H322.654ZM327.382 230.5C327.382 229.124 327.646 228.04 328.174 227.248C328.71 226.456 329.57 226.06 330.754 226.06C331.938 226.06 332.794 226.456 333.322 227.248C333.858 228.04 334.126 229.124 334.126 230.5C334.126 231.892 333.858 232.984 333.322 233.776C332.794 234.568 331.938 234.964 330.754 234.964C329.57 234.964 328.71 234.568 328.174 233.776C327.646 232.984 327.382 231.892 327.382 230.5ZM332.11 230.5C332.11 229.692 332.022 229.072 331.846 228.64C331.67 228.2 331.306 227.98 330.754 227.98C330.202 227.98 329.838 228.2 329.662 228.64C329.486 229.072 329.398 229.692 329.398 230.5C329.398 231.044 329.43 231.496 329.494 231.856C329.558 232.208 329.686 232.496 329.878 232.72C330.078 232.936 330.37 233.044 330.754 233.044C331.138 233.044 331.426 232.936 331.618 232.72C331.818 232.496 331.95 232.208 332.014 231.856C332.078 231.496 332.11 231.044 332.11 230.5Z" fill="#464646"/>
</g>
<defs>
<filter id="filter0_i_109_9972" x="0" y="9" width="360" height="360" filterUnits="userSpaceOnUse" color-interpolation-filters="sRGB">
<feFlood flood-opacity="0" result="BackgroundImageFix"/>
<feBlend mode="normal" in="SourceGraphic" in2="BackgroundImageFix" result="shape"/>
<feColorMatrix in="SourceAlpha" type="matrix" values="0 0 0 0 0 0 0 0 0 0 0 0 0 0 0 0 0 0 127 0" result="hardAlpha"/>
<feOffset/>
<feGaussianBlur stdDeviation="8"/>
<feComposite in2="hardAlpha" operator="arithmetic" k2="-1" k3="1"/>
<feColorMatrix type="matrix" values="0 0 0 0 0 0 0 0 0 0 0 0 0 0 0 0 0 0 0.12 0"/>
<feBlend mode="normal" in2="shape" result="effect1_innerShadow_109_9972"/>
</filter>
<filter id="filter1_i_109_9972" x="3.97461" y="28.0645" width="178.451" height="231.266" filterUnits="userSpaceOnUse" color-interpolation-filters="sRGB">
<feFlood flood-opacity="0" result="BackgroundImageFix"/>
<feBlend mode="normal" in="SourceGraphic" in2="BackgroundImageFix" result="shape"/>
<feColorMatrix in="SourceAlpha" type="matrix" values="0 0 0 0 0 0 0 0 0 0 0 0 0 0 0 0 0 0 127 0" result="hardAlpha"/>
<feOffset/>
<feGaussianBlur stdDeviation="4"/>
<feComposite in2="hardAlpha" operator="arithmetic" k2="-1" k3="1"/>
<feColorMatrix type="matrix" values="0 0 0 0 1 0 0 0 0 0.658824 0 0 0 0 0.152941 0 0 0 0.6 0"/>
<feBlend mode="normal" in2="shape" result="effect1_innerShadow_109_9972"/>
</filter>
<filter id="filter2_bi_109_9972" x="32" y="41" width="296.264" height="296.264" filterUnits="userSpaceOnUse" color-interpolation-filters="sRGB">
<feFlood flood-opacity="0" result="BackgroundImageFix"/>
<feGaussianBlur in="BackgroundImageFix" stdDeviation="6"/>
<feComposite in2="SourceAlpha" operator="in" result="effect1_backgroundBlur_109_9972"/>
<feBlend mode="normal" in="SourceGraphic" in2="effect1_backgroundBlur_109_9972" result="shape"/>
<feColorMatrix in="SourceAlpha" type="matrix" values="0 0 0 0 0 0 0 0 0 0 0 0 0 0 0 0 0 0 127 0" result="hardAlpha"/>
<feOffset/>
<feGaussianBlur stdDeviation="3.5"/>
<feComposite in2="hardAlpha" operator="arithmetic" k2="-1" k3="1"/>
<feColorMatrix type="matrix" values="0 0 0 0 0 0 0 0 0 0 0 0 0 0 0 0 0 0 0.25 0"/>
<feBlend mode="normal" in2="shape" result="effect2_innerShadow_109_9972"/>
</filter>
<linearGradient id="paint0_linear_109_9972" x1="103.213" y1="67.4741" x2="55.001" y2="355.5" gradientUnits="userSpaceOnUse">
<stop stop-color="#FFD18D"/>
<stop offset="1" stop-color="#F37700"/>
</linearGradient>
</defs>
</svg>
