<svg width="40" height="40" viewBox="0 0 40 40" fill="none" xmlns="http://www.w3.org/2000/svg">
<rect width="40" height="40" rx="20" fill="url(#paint0_linear_2_420)"/>
<path d="M28.58 14.56L26.4 16.74C25.82 17.31 24.87 17.31 24.29 16.73L23.27 15.71C22.69 15.13 22.69 14.18 23.27 13.61L25.44 11.42C23.91 10.81 22.01 10.79 20.23 11.86C19.51 12.29 18.9 12.87 18.47 13.57C18.44 13.61 18.41 13.65 18.39 13.7C17.61 14.99 17.4 16.34 17.58 17.56C17.65 18.02 17.49 18.48 17.16 18.8L11.84 24.13C11.28 24.68 11 25.42 11 26.14C11 26.88 11.28 27.6 11.84 28.16C12.95 29.28 14.76 29.28 15.87 28.16L21.2 22.84C21.52 22.51 21.98 22.35 22.44 22.42C23.66 22.6 25.01 22.39 26.29 21.62C27.05 21.17 27.69 20.53 28.13 19.78C29.21 18 29.19 16.09 28.58 14.56ZM14.02 27C13.47 27 13.02 26.55 13.02 26C13.02 25.45 13.46 25 14.01 25H14.02C14.57 25 15.02 25.45 15.02 26C15.02 26.55 14.57 27 14.02 27Z" fill="#DA7F27"/>
<defs>
<linearGradient id="paint0_linear_2_420" x1="0" y1="0" x2="54.5833" y2="54.5833" gradientUnits="userSpaceOnUse">
<stop stop-color="#FFE1C4"/>
<stop offset="1" stop-color="#FFC893"/>
</linearGradient>
</defs>
</svg>
