<svg width="40" height="40" viewBox="0 0 40 40" fill="none" xmlns="http://www.w3.org/2000/svg">
<g id="Icon / Website / trend-up-square">
<path id="trend-up-square" d="M29.375 5H10.625C6.875 5 5 6.875 5 10.625V29.375C5 33.125 6.875 35 10.625 35H29.375C33.125 35 35 33.125 35 29.375V10.625C35 6.875 33.125 5 29.375 5ZM14.5833 28.3333C14.5833 29.0233 14.0233 29.5833 13.3333 29.5833C12.6433 29.5833 12.0833 29.0233 12.0833 28.3333V25.8333C12.0833 25.1433 12.6433 24.5833 13.3333 24.5833C14.0233 24.5833 14.5833 25.1433 14.5833 25.8333V28.3333ZM21.25 28.3333C21.25 29.0233 20.69 29.5833 20 29.5833C19.31 29.5833 18.75 29.0233 18.75 28.3333V23.3333C18.75 22.6433 19.31 22.0833 20 22.0833C20.69 22.0833 21.25 22.6433 21.25 23.3333V28.3333ZM27.9167 28.3333C27.9167 29.0233 27.3567 29.5833 26.6667 29.5833C25.9767 29.5833 25.4167 29.0233 25.4167 28.3333V20C25.4167 19.31 25.9767 18.75 26.6667 18.75C27.3567 18.75 27.9167 19.31 27.9167 20V28.3333ZM27.9167 15.3333C27.9167 16.0233 27.3567 16.5833 26.6667 16.5833C25.9767 16.5833 25.4167 16.0233 25.4167 15.3333V14.6834L22.4183 17.6815C21.475 18.6265 19.825 18.6248 18.8816 17.6815L16.75 15.5501L14.2167 18.0835C13.9734 18.3268 13.6533 18.4501 13.3333 18.4501C13.0133 18.4501 12.6933 18.3285 12.45 18.0835C11.9616 17.5952 11.9616 16.8034 12.45 16.3151L14.9833 13.7817C15.9583 12.8067 17.545 12.8084 18.52 13.7817L20.6517 15.9135L23.65 12.915H23C22.31 12.915 21.75 12.355 21.75 11.665C21.75 10.975 22.31 10.415 23 10.415H26.6667C26.83 10.415 26.9916 10.4481 27.145 10.5115C27.45 10.6381 27.6934 10.8815 27.82 11.1882C27.8834 11.3415 27.9167 11.5033 27.9167 11.6667V15.3333Z" fill="#464646"/>
</g>
</svg>
