<svg width="24" height="24" viewBox="0 0 24 24" fill="none" xmlns="http://www.w3.org/2000/svg">
<g id="Solid/Brands/Twitter">
<path id="Vector" d="M21.8088 6.22724C21.8667 6.14647 21.7812 6.04218 21.6885 6.07811C21.0297 6.33344 20.3413 6.50571 19.6391 6.5906C20.421 6.12348 21.0243 5.4124 21.3589 4.57053C21.393 4.48477 21.2993 4.40819 21.2186 4.4528C20.4918 4.85414 19.7081 5.14313 18.8939 5.30957C18.8599 5.31654 18.8247 5.30494 18.8008 5.27969C18.1898 4.63502 17.3856 4.20578 16.5089 4.05745C15.6137 3.90601 14.6936 4.05596 13.8928 4.48379C13.0921 4.91162 12.456 5.59313 12.0843 6.42144C11.7309 7.209 11.6355 8.08691 11.8098 8.93003C11.8234 8.99545 11.7721 9.05721 11.7055 9.05307C10.1214 8.95469 8.57372 8.53336 7.15771 7.81446C5.74529 7.09739 4.49456 6.09983 3.48169 4.8833C3.43674 4.82931 3.35154 4.83629 3.31879 4.89845C3.00362 5.49651 2.8386 6.16311 2.83905 6.8406C2.83777 7.51498 3.00327 8.17922 3.32081 8.77416C3.63834 9.36911 4.09807 9.87631 4.65905 10.2506C4.06413 10.2344 3.4808 10.0873 2.9503 9.82067C2.88193 9.78631 2.79993 9.83524 2.80348 9.91167C2.84485 10.8009 3.1713 11.6936 3.73637 12.3786C4.33769 13.1074 5.17231 13.6062 6.09905 13.7906C5.74231 13.8992 5.37193 13.9564 4.99905 13.9606C4.79611 13.9582 4.59357 13.9433 4.39259 13.9158C4.31807 13.9056 4.25722 13.9764 4.28331 14.0469C4.55972 14.7944 5.04805 15.4467 5.69013 15.9228C6.37658 16.4318 7.20463 16.7142 8.05905 16.7306C6.61625 17.8659 4.83493 18.4855 2.99905 18.4906C2.81041 18.4912 2.62185 18.4851 2.43373 18.4723C2.32772 18.4651 2.27897 18.6063 2.37035 18.6605C4.15911 19.7221 6.20364 20.2831 8.28905 20.2806C9.82874 20.2966 11.3562 20.0056 12.7822 19.4247C14.2081 18.8437 15.5041 17.9845 16.5943 16.8971C17.6844 15.8097 18.547 14.516 19.1316 13.0915C19.7162 11.667 20.0111 10.1403 19.9991 8.6006V8.12077C19.9991 8.0892 20.014 8.05951 20.0392 8.04048C20.7175 7.52834 21.314 6.91691 21.8088 6.22724Z" fill="black"/>
</g>
</svg>
