<svg width="131" height="95" viewBox="0 0 131 95" fill="none" xmlns="http://www.w3.org/2000/svg">
<g id="Layer_1" clip-path="url(#clip0_1059_1118)">
<path id="Vector" d="M130.717 60.2506V63.094V65.9374C129.091 81.7401 115.2 95.1518 98.4205 95.0026C75.1044 94.9827 51.7933 95.0026 28.4772 94.9827C21.5212 94.9579 14.6674 92.2835 9.61267 87.6605C-7.45279 71.5198 0.453855 48.3551 20.7494 40.0636C20.6114 28.5011 27.639 18.251 38.6633 13.9163C43.6516 11.8186 49.3299 11.5452 54.6452 12.4996C55.5039 12.7233 56.0865 12.5046 56.5363 11.749C58.2791 9.65125 61.4173 6.42013 66.2727 3.84518C67.4533 3.21883 72.9527 0.395329 79.7962 0.0374202C97.3472 -0.872265 112.726 15.0348 113.023 22.5857C114.157 26.7187 114.356 30.7579 114.157 34.864C114.121 35.5649 114.285 35.9973 114.975 36.39C123.991 41.3312 129.163 50.6915 130.712 60.2457L130.717 60.2506ZM63.5076 87.0789C74.5371 87.0789 85.5716 87.0789 96.601 87.0739C101.042 87.1336 105.53 86.5669 109.43 84.3946C124.788 77.2314 127.124 54.8472 113.436 44.9252C110.942 42.9865 108.182 41.54 105.09 40.7198C104.62 40.5955 104.533 40.3718 104.707 39.9493C115.062 11.2569 73.014 -5.43063 59.5773 21.9246C59.562 21.9544 59.4649 22.188 59.2298 22.3023C58.642 22.5907 57.7425 21.9096 57.6198 21.8251C56.3165 20.9304 41.8423 18.0571 33.859 26.6569C29.0087 31.8814 27.8843 39.9045 30.5216 47.2914C30.2507 48.3601 26.6577 47.3162 25.4566 47.8232C8.61604 50.0055 2.48801 72.5041 15.9451 82.5752C19.6812 85.5479 23.9796 87.0739 28.8247 87.0739C40.3857 87.0789 51.9467 87.0739 63.5127 87.0739L63.5076 87.0789Z" fill="#D4DDF3"/>
<path id="Vector_2" d="M130.64 65.9957C130.477 65.9957 130.313 65.9957 130.145 66.0007C130.185 65.2551 130.201 64.5044 130.283 63.7588C130.303 63.545 130.518 63.3512 130.64 63.1523V65.9957Z" fill="#D4DDF3"/>
<path id="Vector_3" d="M44.3496 52.3871C44.66 52.0736 44.9793 51.7748 45.2764 51.4465C51.8611 44.1815 58.4503 36.9214 65.0218 29.6417C65.412 29.2106 65.6248 29.3233 65.9574 29.6858C72.4667 36.8871 78.985 44.0836 85.5032 51.28C85.8491 51.6621 86.1905 52.0393 86.6517 52.5488C86.2837 52.5684 86.0886 52.588 85.8979 52.588C81.6632 52.588 77.433 52.5978 73.1984 52.5782C72.6618 52.5782 72.5244 52.7398 72.5244 53.3228C72.5421 60.6123 72.5377 67.9018 72.5377 75.1913C72.5377 75.7171 72.2982 75.9817 71.8194 75.9849C67.567 75.9849 63.3146 75.9752 59.0667 75.9996C58.5301 75.9996 58.3927 75.8429 58.3927 75.255C58.4104 67.9655 58.406 60.676 58.406 53.3865C58.406 52.8574 58.1665 52.5929 57.6876 52.5929C53.4929 52.5929 49.2937 52.5929 45.099 52.5929H44.4516C44.4206 52.5243 44.3851 52.4606 44.354 52.392L44.3496 52.3871Z" fill="#D4DDF3"/>
</g>
<defs>
<clipPath id="clip0_1059_1118">
<rect width="130.431" height="95" fill="white" transform="translate(0.285156)"/>
</clipPath>
</defs>
</svg>
