<svg width="380" height="216" viewBox="0 0 380 216" fill="none" xmlns="http://www.w3.org/2000/svg">
<g filter="url(#filter0_i_1702_29811)">
<path d="M341.292 319.125C363.781 296.635 379.097 267.982 385.302 236.788C391.507 205.595 388.322 173.262 376.151 143.878C363.98 114.494 343.369 89.3795 316.924 71.7097C290.479 54.0399 259.389 44.6087 227.584 44.6087C195.779 44.6087 164.689 54.0399 138.244 71.7097C111.799 89.3794 91.1882 114.494 79.0171 143.878C66.8459 173.262 63.6614 205.595 69.8662 236.788C76.071 267.982 91.3864 296.635 113.876 319.125L227.584 205.416L341.292 319.125Z" fill="white"/>
</g>
<path d="M327.866 58.4038C327.866 61.3493 330.253 63.7371 333.199 63.7371C336.144 63.7371 338.532 61.3493 338.532 58.4038C338.532 55.4583 336.144 53.0705 333.199 53.0705C330.253 53.0705 327.866 55.4583 327.866 58.4038ZM227.714 206.849L334.011 58.9875L332.387 57.8201L226.09 205.681L227.714 206.849Z" fill="#16D362"/>
<mask id="mask0_1702_29811" style="mask-type:alpha" maskUnits="userSpaceOnUse" x="66" y="44" width="323" height="276">
<path d="M341.124 319.125C363.613 296.635 378.929 267.982 385.134 236.788C391.339 205.595 388.154 173.262 375.983 143.878C363.812 114.494 343.201 89.3795 316.756 71.7098C290.311 54.04 259.221 44.6088 227.416 44.6088C195.611 44.6088 164.521 54.04 138.076 71.7098C111.631 89.3795 91.0203 114.494 78.8491 143.878C66.678 173.262 63.4934 205.595 69.6982 236.788C75.903 267.982 91.2185 296.635 113.708 319.125L227.416 205.416L341.124 319.125Z" fill="white"/>
</mask>
<g mask="url(#mask0_1702_29811)">
<g filter="url(#filter1_i_1702_29811)">
<path d="M321.103 74.741C303.92 62.4378 284.483 53.6394 263.9 48.8482C243.317 44.057 221.992 43.3667 201.143 46.8169C180.293 50.2671 160.327 57.7901 142.385 68.9564C124.443 80.1227 108.876 94.7137 96.5728 111.896C84.2696 129.079 75.4713 148.516 70.68 169.099C65.8888 189.682 65.1986 211.007 68.6488 231.856C72.0989 252.706 79.6219 272.672 90.7883 290.614C101.955 308.556 116.546 324.123 133.728 336.426L227.415 205.583L321.103 74.741Z" fill="url(#paint0_linear_1702_29811)"/>
</g>
<path fill-rule="evenodd" clip-rule="evenodd" d="M388.222 206.231L326.898 205.989C326.898 205.854 326.899 205.718 326.899 205.583C326.899 205.505 326.899 205.427 326.898 205.349C326.898 205.292 326.898 205.234 326.898 205.177L388.222 204.935C388.223 205.151 388.224 205.367 388.224 205.583C388.224 205.799 388.223 206.015 388.222 206.231ZM376.267 144.623L319.525 167.885C319.425 167.641 319.324 167.396 319.221 167.153L375.774 143.434C375.94 143.829 376.104 144.226 376.267 144.623ZM341.579 92.3314L298.043 135.522C297.855 135.332 297.667 135.144 297.477 134.956L340.668 91.4201C340.973 91.7227 341.276 92.0264 341.579 92.3314ZM289.565 57.2252L265.846 113.778C265.603 113.675 265.359 113.574 265.114 113.474L288.376 56.7322C288.773 56.895 289.17 57.0593 289.565 57.2252ZM228.064 44.7767L227.822 106.101C227.687 106.101 227.551 106.1 227.416 106.1C227.343 106.1 227.27 106.1 227.196 106.101C227.134 106.101 227.072 106.101 227.01 106.101L226.768 44.7767C226.984 44.7758 227.2 44.7754 227.416 44.7754C227.632 44.7754 227.848 44.7758 228.064 44.7767ZM166.456 56.7322L189.718 113.474C189.474 113.574 189.229 113.675 188.986 113.778L165.267 57.2252C165.662 57.0593 166.059 56.895 166.456 56.7322ZM114.164 91.4201L157.355 134.956C157.165 135.144 156.977 135.332 156.789 135.522L113.253 92.3315C113.556 92.0265 113.859 91.7227 114.164 91.4201ZM79.0582 143.434L135.611 167.153C135.508 167.396 135.407 167.641 135.307 167.885L78.5652 144.623C78.728 144.226 78.8923 143.83 79.0582 143.434ZM66.6097 204.935C66.6088 205.151 66.6084 205.367 66.6084 205.583C66.6084 205.799 66.6088 206.015 66.6097 206.231L127.934 205.989C127.934 205.926 127.934 205.863 127.934 205.8C127.933 205.728 127.933 205.655 127.933 205.583C127.933 205.448 127.934 205.312 127.934 205.177L66.6097 204.935ZM78.5652 266.543L135.307 243.281C135.407 243.526 135.508 243.77 135.611 244.013L79.0582 267.732C78.8923 267.337 78.728 266.94 78.5652 266.543ZM113.253 318.835L156.789 275.644C156.977 275.834 157.165 276.022 157.355 276.21L114.164 319.746C113.859 319.443 113.556 319.14 113.253 318.835ZM165.267 353.941L188.986 297.388C189.229 297.491 189.474 297.592 189.718 297.692L166.456 354.434C166.059 354.271 165.663 354.107 165.267 353.941ZM226.768 366.389L227.01 305.065C227.145 305.065 227.281 305.066 227.416 305.066C227.494 305.066 227.572 305.066 227.65 305.065C227.707 305.065 227.765 305.065 227.822 305.065L228.064 366.389C227.848 366.39 227.632 366.391 227.416 366.391C227.2 366.391 226.984 366.39 226.768 366.389ZM288.376 354.434L265.114 297.692C265.359 297.592 265.603 297.491 265.846 297.388L289.565 353.941C289.17 354.107 288.773 354.271 288.376 354.434ZM340.668 319.746L297.477 276.21C297.613 276.076 297.748 275.941 297.883 275.806C297.936 275.752 297.99 275.698 298.043 275.644L341.579 318.835C341.276 319.14 340.973 319.443 340.668 319.746ZM375.774 267.732L319.221 244.013C319.324 243.77 319.425 243.526 319.525 243.281L376.267 266.543C376.104 266.94 375.94 267.337 375.774 267.732Z" fill="black" fill-opacity="0.1"/>
<g filter="url(#filter2_bi_1702_29811)">
<circle cx="227.131" cy="205.339" r="125.131" fill="white" fill-opacity="0.02"/>
</g>
</g>
<g filter="url(#filter3_i_1702_29811)">
<circle cx="226.973" cy="210.978" r="15.6119" fill="white"/>
</g>
<path d="M218.68 114.632L208.04 139.552H202.36L213.08 115.272H199.4V110.472H218.68V114.632ZM225.154 139.832C224.141 139.832 223.301 139.526 222.634 138.912C221.994 138.272 221.674 137.486 221.674 136.552C221.674 135.619 221.994 134.846 222.634 134.232C223.301 133.592 224.141 133.272 225.154 133.272C226.141 133.272 226.954 133.592 227.594 134.232C228.234 134.846 228.554 135.619 228.554 136.552C228.554 137.486 228.234 138.272 227.594 138.912C226.954 139.526 226.141 139.832 225.154 139.832ZM252.025 115.232H239.065V122.072C239.625 121.379 240.425 120.819 241.465 120.392C242.505 119.939 243.611 119.712 244.785 119.712C246.918 119.712 248.665 120.179 250.025 121.112C251.385 122.046 252.371 123.246 252.985 124.712C253.598 126.152 253.905 127.699 253.905 129.352C253.905 132.419 253.025 134.886 251.265 136.752C249.531 138.619 247.051 139.552 243.825 139.552C240.785 139.552 238.358 138.792 236.545 137.272C234.731 135.752 233.705 133.766 233.465 131.312H238.905C239.145 132.379 239.678 133.232 240.505 133.872C241.358 134.512 242.438 134.832 243.745 134.832C245.318 134.832 246.505 134.339 247.305 133.352C248.105 132.366 248.505 131.059 248.505 129.432C248.505 127.779 248.091 126.526 247.265 125.672C246.465 124.792 245.278 124.352 243.705 124.352C242.585 124.352 241.651 124.632 240.905 125.192C240.158 125.752 239.625 126.499 239.305 127.432H233.945V110.312H252.025V115.232Z" fill="#2C2C2C"/>
<path d="M205.528 154.334V155.69H203.296V162.71H201.616V155.69H199.384V154.334H205.528ZM213.702 154.334V162.71H212.022V159.146H208.434V162.71H206.754V154.334H208.434V157.778H212.022V154.334H213.702ZM219.675 162.71L217.827 159.446H217.035V162.71H215.355V154.334H218.499C219.147 154.334 219.699 154.45 220.155 154.682C220.611 154.906 220.951 155.214 221.175 155.606C221.407 155.99 221.523 156.422 221.523 156.902C221.523 157.454 221.363 157.954 221.043 158.402C220.723 158.842 220.247 159.146 219.615 159.314L221.619 162.71H219.675ZM217.035 158.186H218.439C218.895 158.186 219.235 158.078 219.459 157.862C219.683 157.638 219.795 157.33 219.795 156.938C219.795 156.554 219.683 156.258 219.459 156.05C219.235 155.834 218.895 155.726 218.439 155.726H217.035V158.186ZM224.723 154.334V162.71H223.043V154.334H224.723ZM233.907 154.334L230.835 162.71H228.795L225.723 154.334H227.523L229.827 160.994L232.119 154.334H233.907ZM236.594 154.334V162.71H234.914V154.334H236.594ZM245.418 162.71H243.738L239.934 156.962V162.71H238.254V154.322H239.934L243.738 160.082V154.322H245.418V162.71ZM252.91 156.854C252.718 156.502 252.454 156.234 252.118 156.05C251.782 155.866 251.39 155.774 250.942 155.774C250.446 155.774 250.006 155.886 249.622 156.11C249.238 156.334 248.938 156.654 248.722 157.07C248.506 157.486 248.398 157.966 248.398 158.51C248.398 159.07 248.506 159.558 248.722 159.974C248.946 160.39 249.254 160.71 249.646 160.934C250.038 161.158 250.494 161.27 251.014 161.27C251.654 161.27 252.178 161.102 252.586 160.766C252.994 160.422 253.262 159.946 253.39 159.338H250.51V158.054H255.046V159.518C254.934 160.102 254.694 160.642 254.326 161.138C253.958 161.634 253.482 162.034 252.898 162.338C252.322 162.634 251.674 162.782 250.954 162.782C250.146 162.782 249.414 162.602 248.758 162.242C248.11 161.874 247.598 161.366 247.222 160.718C246.854 160.07 246.67 159.334 246.67 158.51C246.67 157.686 246.854 156.95 247.222 156.302C247.598 155.646 248.11 155.138 248.758 154.778C249.414 154.41 250.142 154.226 250.942 154.226C251.886 154.226 252.706 154.458 253.402 154.922C254.098 155.378 254.578 156.022 254.842 156.854H252.91Z" fill="#2C2C2C"/>
<defs>
<filter id="filter0_i_1702_29811" x="66.7764" y="44.6089" width="321.615" height="278.516" filterUnits="userSpaceOnUse" color-interpolation-filters="sRGB">
<feFlood flood-opacity="0" result="BackgroundImageFix"/>
<feBlend mode="normal" in="SourceGraphic" in2="BackgroundImageFix" result="shape"/>
<feColorMatrix in="SourceAlpha" type="matrix" values="0 0 0 0 0 0 0 0 0 0 0 0 0 0 0 0 0 0 127 0" result="hardAlpha"/>
<feOffset dy="4"/>
<feGaussianBlur stdDeviation="2"/>
<feComposite in2="hardAlpha" operator="arithmetic" k2="-1" k3="1"/>
<feColorMatrix type="matrix" values="0 0 0 0 0 0 0 0 0 0 0 0 0 0 0 0 0 0 0.12 0"/>
<feBlend mode="normal" in2="shape" result="effect1_innerShadow_1702_29811"/>
</filter>
<filter id="filter1_i_1702_29811" x="66.4893" y="44.6577" width="254.613" height="291.768" filterUnits="userSpaceOnUse" color-interpolation-filters="sRGB">
<feFlood flood-opacity="0" result="BackgroundImageFix"/>
<feBlend mode="normal" in="SourceGraphic" in2="BackgroundImageFix" result="shape"/>
<feColorMatrix in="SourceAlpha" type="matrix" values="0 0 0 0 0 0 0 0 0 0 0 0 0 0 0 0 0 0 127 0" result="hardAlpha"/>
<feOffset/>
<feGaussianBlur stdDeviation="4"/>
<feComposite in2="hardAlpha" operator="arithmetic" k2="-1" k3="1"/>
<feColorMatrix type="matrix" values="0 0 0 0 0.0360099 0 0 0 0 0.557292 0 0 0 0 0.244523 0 0 0 1 0"/>
<feBlend mode="normal" in2="shape" result="effect1_innerShadow_1702_29811"/>
</filter>
<filter id="filter2_bi_1702_29811" x="90" y="68.2075" width="274.263" height="274.263" filterUnits="userSpaceOnUse" color-interpolation-filters="sRGB">
<feFlood flood-opacity="0" result="BackgroundImageFix"/>
<feGaussianBlur in="BackgroundImageFix" stdDeviation="6"/>
<feComposite in2="SourceAlpha" operator="in" result="effect1_backgroundBlur_1702_29811"/>
<feBlend mode="normal" in="SourceGraphic" in2="effect1_backgroundBlur_1702_29811" result="shape"/>
<feColorMatrix in="SourceAlpha" type="matrix" values="0 0 0 0 0 0 0 0 0 0 0 0 0 0 0 0 0 0 127 0" result="hardAlpha"/>
<feOffset/>
<feGaussianBlur stdDeviation="3.5"/>
<feComposite in2="hardAlpha" operator="arithmetic" k2="-1" k3="1"/>
<feColorMatrix type="matrix" values="0 0 0 0 0 0 0 0 0 0 0 0 0 0 0 0 0 0 0.25 0"/>
<feBlend mode="normal" in2="shape" result="effect2_innerShadow_1702_29811"/>
</filter>
<filter id="filter3_i_1702_29811" x="211.361" y="195.366" width="31.2236" height="31.2236" filterUnits="userSpaceOnUse" color-interpolation-filters="sRGB">
<feFlood flood-opacity="0" result="BackgroundImageFix"/>
<feBlend mode="normal" in="SourceGraphic" in2="BackgroundImageFix" result="shape"/>
<feColorMatrix in="SourceAlpha" type="matrix" values="0 0 0 0 0 0 0 0 0 0 0 0 0 0 0 0 0 0 127 0" result="hardAlpha"/>
<feOffset/>
<feGaussianBlur stdDeviation="1"/>
<feComposite in2="hardAlpha" operator="arithmetic" k2="-1" k3="1"/>
<feColorMatrix type="matrix" values="0 0 0 0 0 0 0 0 0 0 0 0 0 0 0 0 0 0 0.12 0"/>
<feBlend mode="normal" in2="shape" result="effect1_innerShadow_1702_29811"/>
</filter>
<linearGradient id="paint0_linear_1702_29811" x1="197.435" y1="76.2867" x2="112.943" y2="319.542" gradientUnits="userSpaceOnUse">
<stop stop-color="#5AF899"/>
<stop offset="1" stop-color="#3CAF6A"/>
</linearGradient>
</defs>
</svg>
