<svg width="282" height="48" viewBox="0 0 282 48" fill="none" xmlns="http://www.w3.org/2000/svg">
<g filter="url(#filter0_d_109_14972)">
<rect x="2" y="2" width="274" height="40" rx="8" fill="white"/>
<path d="M22 12C16.477 12 12 16.477 12 22C12 27.523 16.477 32 22 32C27.523 32 32 27.523 32 22C32 16.477 27.523 12 22 12ZM25.75 23C25.75 23.414 25.414 23.75 25 23.75C24.586 23.75 24.25 23.414 24.25 23V20.811L19.53 25.531C19.384 25.677 19.192 25.751 19 25.751C18.808 25.751 18.616 25.678 18.47 25.531C18.177 25.238 18.177 24.763 18.47 24.47L23.1899 19.75H21C20.586 19.75 20.25 19.414 20.25 19C20.25 18.586 20.586 18.25 21 18.25H25C25.098 18.25 25.1951 18.2701 25.2871 18.3081C25.4701 18.3841 25.6161 18.5301 25.6931 18.7141C25.7311 18.8061 25.751 18.903 25.751 19.001V23H25.75Z" fill="url(#paint0_linear_109_14972)"/>
<path d="M38.564 24.296V22.976L42.488 17.36H44.444V22.832H45.5V24.296H44.444V26H42.764V24.296H38.564ZM42.872 19.16L40.412 22.832H42.872V19.16ZM52.4496 18.704H48.5616V20.756C48.7296 20.548 48.9696 20.38 49.2816 20.252C49.5936 20.116 49.9256 20.048 50.2776 20.048C50.9176 20.048 51.4416 20.188 51.8496 20.468C52.2576 20.748 52.5536 21.108 52.7376 21.548C52.9216 21.98 53.0136 22.444 53.0136 22.94C53.0136 23.86 52.7496 24.6 52.2216 25.16C51.7016 25.72 50.9576 26 49.9896 26C49.0776 26 48.3496 25.772 47.8056 25.316C47.2616 24.86 46.9536 24.264 46.8816 23.528H48.5136C48.5856 23.848 48.7456 24.104 48.9936 24.296C49.2496 24.488 49.5736 24.584 49.9656 24.584C50.4376 24.584 50.7936 24.436 51.0336 24.14C51.2736 23.844 51.3936 23.452 51.3936 22.964C51.3936 22.468 51.2696 22.092 51.0216 21.836C50.7816 21.572 50.4256 21.44 49.9536 21.44C49.6176 21.44 49.3376 21.524 49.1136 21.692C48.8896 21.86 48.7296 22.084 48.6336 22.364H47.0256V17.228H52.4496V18.704ZM54.1003 19.4C54.1003 18.792 54.2763 18.316 54.6283 17.972C54.9883 17.628 55.4483 17.456 56.0083 17.456C56.5683 17.456 57.0243 17.628 57.3763 17.972C57.7363 18.316 57.9163 18.792 57.9163 19.4C57.9163 20.016 57.7363 20.496 57.3763 20.84C57.0243 21.184 56.5683 21.356 56.0083 21.356C55.4483 21.356 54.9883 21.184 54.6283 20.84C54.2763 20.496 54.1003 20.016 54.1003 19.4ZM61.8043 17.6L57.0883 26H55.4563L60.1603 17.6H61.8043ZM55.9963 18.464C55.5563 18.464 55.3363 18.776 55.3363 19.4C55.3363 20.032 55.5563 20.348 55.9963 20.348C56.2123 20.348 56.3803 20.272 56.5003 20.12C56.6203 19.96 56.6803 19.72 56.6803 19.4C56.6803 18.776 56.4523 18.464 55.9963 18.464ZM59.3683 24.188C59.3683 23.572 59.5443 23.096 59.8963 22.76C60.2563 22.416 60.7163 22.244 61.2763 22.244C61.8363 22.244 62.2883 22.416 62.6323 22.76C62.9843 23.096 63.1603 23.572 63.1603 24.188C63.1603 24.804 62.9843 25.284 62.6323 25.628C62.2883 25.972 61.8363 26.144 61.2763 26.144C60.7083 26.144 60.2483 25.972 59.8963 25.628C59.5443 25.284 59.3683 24.804 59.3683 24.188ZM61.2643 23.252C60.8083 23.252 60.5803 23.564 60.5803 24.188C60.5803 24.82 60.8083 25.136 61.2643 25.136C61.7123 25.136 61.9363 24.82 61.9363 24.188C61.9363 23.564 61.7123 23.252 61.2643 23.252ZM70.1848 26.084C69.6008 26.084 69.0728 25.984 68.6008 25.784C68.1368 25.584 67.7688 25.296 67.4968 24.92C67.2248 24.544 67.0848 24.1 67.0768 23.588H68.8768C68.9008 23.932 69.0208 24.204 69.2368 24.404C69.4608 24.604 69.7648 24.704 70.1488 24.704C70.5408 24.704 70.8488 24.612 71.0728 24.428C71.2968 24.236 71.4088 23.988 71.4088 23.684C71.4088 23.436 71.3328 23.232 71.1808 23.072C71.0288 22.912 70.8368 22.788 70.6048 22.7C70.3808 22.604 70.0688 22.5 69.6688 22.388C69.1248 22.228 68.6808 22.072 68.3368 21.92C68.0008 21.76 67.7088 21.524 67.4608 21.212C67.2208 20.892 67.1008 20.468 67.1008 19.94C67.1008 19.444 67.2248 19.012 67.4728 18.644C67.7208 18.276 68.0688 17.996 68.5168 17.804C68.9648 17.604 69.4768 17.504 70.0528 17.504C70.9168 17.504 71.6168 17.716 72.1528 18.14C72.6968 18.556 72.9968 19.14 73.0528 19.892H71.2048C71.1888 19.604 71.0648 19.368 70.8328 19.184C70.6088 18.992 70.3088 18.896 69.9328 18.896C69.6048 18.896 69.3408 18.98 69.1408 19.148C68.9488 19.316 68.8528 19.56 68.8528 19.88C68.8528 20.104 68.9248 20.292 69.0688 20.444C69.2208 20.588 69.4048 20.708 69.6208 20.804C69.8448 20.892 70.1568 20.996 70.5568 21.116C71.1008 21.276 71.5448 21.436 71.8888 21.596C72.2328 21.756 72.5288 21.996 72.7768 22.316C73.0248 22.636 73.1488 23.056 73.1488 23.576C73.1488 24.024 73.0328 24.44 72.8008 24.824C72.5688 25.208 72.2288 25.516 71.7808 25.748C71.3328 25.972 70.8008 26.084 70.1848 26.084ZM78.3493 19.256C78.8533 19.256 79.3013 19.368 79.6933 19.592C80.0853 19.808 80.3893 20.132 80.6053 20.564C80.8293 20.988 80.9413 21.5 80.9413 22.1V26H79.2613V22.328C79.2613 21.8 79.1293 21.396 78.8653 21.116C78.6013 20.828 78.2413 20.684 77.7853 20.684C77.3213 20.684 76.9533 20.828 76.6813 21.116C76.4173 21.396 76.2853 21.8 76.2853 22.328V26H74.6053V17.12H76.2853V20.18C76.5013 19.892 76.7893 19.668 77.1493 19.508C77.5093 19.34 77.9093 19.256 78.3493 19.256ZM83.3909 18.56C83.0949 18.56 82.8469 18.468 82.6469 18.284C82.4549 18.092 82.3589 17.856 82.3589 17.576C82.3589 17.296 82.4549 17.064 82.6469 16.88C82.8469 16.688 83.0949 16.592 83.3909 16.592C83.6869 16.592 83.9309 16.688 84.1229 16.88C84.3229 17.064 84.4229 17.296 84.4229 17.576C84.4229 17.856 84.3229 18.092 84.1229 18.284C83.9309 18.468 83.6869 18.56 83.3909 18.56ZM84.2189 19.352V26H82.5389V19.352H84.2189ZM88.9268 20.732H87.7628V26H86.0588V20.732H85.3028V19.352H86.0588V19.016C86.0588 18.2 86.2908 17.6 86.7548 17.216C87.2188 16.832 87.9188 16.652 88.8548 16.676V18.092C88.4468 18.084 88.1628 18.152 88.0028 18.296C87.8428 18.44 87.7628 18.7 87.7628 19.076V19.352H88.9268V20.732ZM91.9715 20.732V23.948C91.9715 24.172 92.0235 24.336 92.1275 24.44C92.2395 24.536 92.4235 24.584 92.6795 24.584H93.4595V26H92.4035C90.9875 26 90.2795 25.312 90.2795 23.936V20.732H89.4875V19.352H90.2795V17.708H91.9715V19.352H93.4595V20.732H91.9715ZM100.575 20.732H99.4112V26H97.7072V20.732H96.9512V19.352H97.7072V19.016C97.7072 18.2 97.9392 17.6 98.4032 17.216C98.8672 16.832 99.5672 16.652 100.503 16.676V18.092C100.095 18.084 99.8112 18.152 99.6512 18.296C99.4912 18.44 99.4112 18.7 99.4112 19.076V19.352H100.575V20.732ZM103.344 20.384C103.56 20.032 103.84 19.756 104.184 19.556C104.536 19.356 104.936 19.256 105.384 19.256V21.02H104.94C104.412 21.02 104.012 21.144 103.74 21.392C103.476 21.64 103.344 22.072 103.344 22.688V26H101.664V19.352H103.344V20.384ZM109.468 26.108C108.828 26.108 108.252 25.968 107.74 25.688C107.228 25.4 106.824 24.996 106.528 24.476C106.24 23.956 106.096 23.356 106.096 22.676C106.096 21.996 106.244 21.396 106.54 20.876C106.844 20.356 107.256 19.956 107.776 19.676C108.296 19.388 108.876 19.244 109.516 19.244C110.156 19.244 110.736 19.388 111.256 19.676C111.776 19.956 112.184 20.356 112.48 20.876C112.784 21.396 112.936 21.996 112.936 22.676C112.936 23.356 112.78 23.956 112.467 24.476C112.164 24.996 111.748 25.4 111.22 25.688C110.7 25.968 110.116 26.108 109.468 26.108ZM109.468 24.644C109.772 24.644 110.056 24.572 110.32 24.428C110.592 24.276 110.808 24.052 110.968 23.756C111.128 23.46 111.208 23.1 111.208 22.676C111.208 22.044 111.04 21.56 110.704 21.224C110.376 20.88 109.972 20.708 109.492 20.708C109.012 20.708 108.608 20.88 108.28 21.224C107.96 21.56 107.8 22.044 107.8 22.676C107.8 23.308 107.956 23.796 108.268 24.14C108.588 24.476 108.988 24.644 109.468 24.644ZM122.424 19.256C123.24 19.256 123.896 19.508 124.392 20.012C124.896 20.508 125.148 21.204 125.148 22.1V26H123.468V22.328C123.468 21.808 123.336 21.412 123.072 21.14C122.808 20.86 122.448 20.72 121.992 20.72C121.536 20.72 121.172 20.86 120.9 21.14C120.636 21.412 120.504 21.808 120.504 22.328V26H118.824V22.328C118.824 21.808 118.692 21.412 118.428 21.14C118.164 20.86 117.804 20.72 117.348 20.72C116.884 20.72 116.516 20.86 116.244 21.14C115.98 21.412 115.848 21.808 115.848 22.328V26H114.168V19.352H115.848V20.156C116.064 19.876 116.34 19.656 116.676 19.496C117.02 19.336 117.396 19.256 117.804 19.256C118.324 19.256 118.788 19.368 119.196 19.592C119.604 19.808 119.92 20.12 120.144 20.528C120.36 20.144 120.672 19.836 121.08 19.604C121.496 19.372 121.944 19.256 122.424 19.256ZM129.193 21.8C129.193 20.976 129.377 20.24 129.745 19.592C130.121 18.936 130.629 18.428 131.269 18.068C131.917 17.7 132.641 17.516 133.441 17.516C134.377 17.516 135.197 17.756 135.901 18.236C136.605 18.716 137.097 19.38 137.377 20.228H135.445C135.253 19.828 134.981 19.528 134.629 19.328C134.285 19.128 133.885 19.028 133.429 19.028C132.941 19.028 132.505 19.144 132.121 19.376C131.745 19.6 131.449 19.92 131.233 20.336C131.025 20.752 130.921 21.24 130.921 21.8C130.921 22.352 131.025 22.84 131.233 23.264C131.449 23.68 131.745 24.004 132.121 24.236C132.505 24.46 132.941 24.572 133.429 24.572C133.885 24.572 134.285 24.472 134.629 24.272C134.981 24.064 135.253 23.76 135.445 23.36H137.377C137.097 24.216 136.605 24.884 135.901 25.364C135.205 25.836 134.385 26.072 133.441 26.072C132.641 26.072 131.917 25.892 131.269 25.532C130.629 25.164 130.121 24.656 129.745 24.008C129.377 23.36 129.193 22.624 129.193 21.8ZM141.764 26.108C141.124 26.108 140.548 25.968 140.036 25.688C139.524 25.4 139.12 24.996 138.824 24.476C138.536 23.956 138.392 23.356 138.392 22.676C138.392 21.996 138.54 21.396 138.836 20.876C139.14 20.356 139.552 19.956 140.072 19.676C140.592 19.388 141.172 19.244 141.812 19.244C142.452 19.244 143.032 19.388 143.552 19.676C144.072 19.956 144.48 20.356 144.776 20.876C145.08 21.396 145.232 21.996 145.232 22.676C145.232 23.356 145.076 23.956 144.764 24.476C144.46 24.996 144.044 25.4 143.516 25.688C142.996 25.968 142.412 26.108 141.764 26.108ZM141.764 24.644C142.068 24.644 142.352 24.572 142.616 24.428C142.888 24.276 143.104 24.052 143.264 23.756C143.424 23.46 143.504 23.1 143.504 22.676C143.504 22.044 143.336 21.56 143 21.224C142.672 20.88 142.268 20.708 141.788 20.708C141.308 20.708 140.904 20.88 140.576 21.224C140.256 21.56 140.096 22.044 140.096 22.676C140.096 23.308 140.252 23.796 140.564 24.14C140.884 24.476 141.284 24.644 141.764 24.644ZM148.145 20.312C148.361 20.008 148.657 19.756 149.033 19.556C149.417 19.348 149.853 19.244 150.341 19.244C150.909 19.244 151.421 19.384 151.877 19.664C152.341 19.944 152.705 20.344 152.969 20.864C153.241 21.376 153.377 21.972 153.377 22.652C153.377 23.332 153.241 23.936 152.969 24.464C152.705 24.984 152.341 25.388 151.877 25.676C151.421 25.964 150.909 26.108 150.341 26.108C149.853 26.108 149.421 26.008 149.045 25.808C148.677 25.608 148.377 25.356 148.145 25.052V29.168H146.465V19.352H148.145V20.312ZM151.661 22.652C151.661 22.252 151.577 21.908 151.409 21.62C151.249 21.324 151.033 21.1 150.761 20.948C150.497 20.796 150.209 20.72 149.897 20.72C149.593 20.72 149.305 20.8 149.033 20.96C148.769 21.112 148.553 21.336 148.385 21.632C148.225 21.928 148.145 22.276 148.145 22.676C148.145 23.076 148.225 23.424 148.385 23.72C148.553 24.016 148.769 24.244 149.033 24.404C149.305 24.556 149.593 24.632 149.897 24.632C150.209 24.632 150.497 24.552 150.761 24.392C151.033 24.232 151.249 24.004 151.409 23.708C151.577 23.412 151.661 23.06 151.661 22.652ZM155.45 18.56C155.154 18.56 154.906 18.468 154.706 18.284C154.514 18.092 154.418 17.856 154.418 17.576C154.418 17.296 154.514 17.064 154.706 16.88C154.906 16.688 155.154 16.592 155.45 16.592C155.746 16.592 155.99 16.688 156.182 16.88C156.382 17.064 156.482 17.296 156.482 17.576C156.482 17.856 156.382 18.092 156.182 18.284C155.99 18.468 155.746 18.56 155.45 18.56ZM156.278 19.352V26H154.598V19.352H156.278ZM161.621 19.256C162.413 19.256 163.053 19.508 163.541 20.012C164.029 20.508 164.273 21.204 164.273 22.1V26H162.593V22.328C162.593 21.8 162.461 21.396 162.197 21.116C161.933 20.828 161.573 20.684 161.117 20.684C160.653 20.684 160.285 20.828 160.013 21.116C159.749 21.396 159.617 21.8 159.617 22.328V26H157.937V19.352H159.617V20.18C159.841 19.892 160.125 19.668 160.469 19.508C160.821 19.34 161.205 19.256 161.621 19.256ZM168.475 19.244C168.971 19.244 169.407 19.344 169.783 19.544C170.159 19.736 170.455 19.988 170.671 20.3V19.352H172.363V26.048C172.363 26.664 172.239 27.212 171.991 27.692C171.743 28.18 171.371 28.564 170.875 28.844C170.379 29.132 169.779 29.276 169.075 29.276C168.131 29.276 167.355 29.056 166.747 28.616C166.147 28.176 165.807 27.576 165.727 26.816H167.395C167.483 27.12 167.671 27.36 167.959 27.536C168.255 27.72 168.611 27.812 169.027 27.812C169.515 27.812 169.911 27.664 170.215 27.368C170.519 27.08 170.671 26.64 170.671 26.048V25.016C170.455 25.328 170.155 25.588 169.771 25.796C169.395 26.004 168.963 26.108 168.475 26.108C167.915 26.108 167.403 25.964 166.939 25.676C166.475 25.388 166.107 24.984 165.835 24.464C165.571 23.936 165.439 23.332 165.439 22.652C165.439 21.98 165.571 21.384 165.835 20.864C166.107 20.344 166.471 19.944 166.927 19.664C167.391 19.384 167.907 19.244 168.475 19.244ZM170.671 22.676C170.671 22.268 170.591 21.92 170.431 21.632C170.271 21.336 170.055 21.112 169.783 20.96C169.511 20.8 169.219 20.72 168.907 20.72C168.595 20.72 168.307 20.796 168.043 20.948C167.779 21.1 167.563 21.324 167.395 21.62C167.235 21.908 167.155 22.252 167.155 22.652C167.155 23.052 167.235 23.404 167.395 23.708C167.563 24.004 167.779 24.232 168.043 24.392C168.315 24.552 168.603 24.632 168.907 24.632C169.219 24.632 169.511 24.556 169.783 24.404C170.055 24.244 170.271 24.02 170.431 23.732C170.591 23.436 170.671 23.084 170.671 22.676ZM178.819 20.732V23.948C178.819 24.172 178.871 24.336 178.975 24.44C179.087 24.536 179.271 24.584 179.527 24.584H180.307V26H179.251C177.835 26 177.127 25.312 177.127 23.936V20.732H176.335V19.352H177.127V17.708H178.819V19.352H180.307V20.732H178.819ZM184.468 26.108C183.828 26.108 183.252 25.968 182.74 25.688C182.228 25.4 181.824 24.996 181.528 24.476C181.24 23.956 181.096 23.356 181.096 22.676C181.096 21.996 181.244 21.396 181.54 20.876C181.844 20.356 182.256 19.956 182.776 19.676C183.296 19.388 183.876 19.244 184.516 19.244C185.156 19.244 185.736 19.388 186.256 19.676C186.776 19.956 187.184 20.356 187.48 20.876C187.784 21.396 187.936 21.996 187.936 22.676C187.936 23.356 187.78 23.956 187.467 24.476C187.164 24.996 186.748 25.4 186.22 25.688C185.7 25.968 185.116 26.108 184.468 26.108ZM184.468 24.644C184.772 24.644 185.056 24.572 185.32 24.428C185.592 24.276 185.808 24.052 185.968 23.756C186.128 23.46 186.208 23.1 186.208 22.676C186.208 22.044 186.04 21.56 185.704 21.224C185.376 20.88 184.972 20.708 184.492 20.708C184.012 20.708 183.608 20.88 183.28 21.224C182.96 21.56 182.8 22.044 182.8 22.676C182.8 23.308 182.956 23.796 183.268 24.14C183.588 24.476 183.988 24.644 184.468 24.644ZM197.199 17.624V18.98H193.707V21.128H196.383V22.46H193.707V26H192.027V17.624H197.199ZM204.667 19.352V26H202.975V25.16C202.759 25.448 202.475 25.676 202.123 25.844C201.779 26.004 201.403 26.084 200.995 26.084C200.475 26.084 200.015 25.976 199.615 25.76C199.215 25.536 198.899 25.212 198.667 24.788C198.443 24.356 198.331 23.844 198.331 23.252V19.352H200.011V23.012C200.011 23.54 200.143 23.948 200.407 24.236C200.671 24.516 201.031 24.656 201.487 24.656C201.951 24.656 202.315 24.516 202.579 24.236C202.843 23.948 202.975 23.54 202.975 23.012V19.352H204.667ZM210.008 19.256C210.8 19.256 211.44 19.508 211.928 20.012C212.416 20.508 212.66 21.204 212.66 22.1V26H210.98V22.328C210.98 21.8 210.848 21.396 210.584 21.116C210.32 20.828 209.96 20.684 209.504 20.684C209.04 20.684 208.672 20.828 208.4 21.116C208.136 21.396 208.004 21.8 208.004 22.328V26H206.324V19.352H208.004V20.18C208.228 19.892 208.512 19.668 208.856 19.508C209.208 19.34 209.592 19.256 210.008 19.256ZM213.826 22.676C213.826 21.988 213.966 21.388 214.246 20.876C214.526 20.356 214.914 19.956 215.41 19.676C215.906 19.388 216.474 19.244 217.114 19.244C217.938 19.244 218.618 19.452 219.154 19.868C219.698 20.276 220.062 20.852 220.246 21.596H218.434C218.338 21.308 218.174 21.084 217.942 20.924C217.718 20.756 217.438 20.672 217.102 20.672C216.622 20.672 216.242 20.848 215.962 21.2C215.682 21.544 215.542 22.036 215.542 22.676C215.542 23.308 215.682 23.8 215.962 24.152C216.242 24.496 216.622 24.668 217.102 24.668C217.782 24.668 218.226 24.364 218.434 23.756H220.246C220.062 24.476 219.698 25.048 219.154 25.472C218.61 25.896 217.93 26.108 217.114 26.108C216.474 26.108 215.906 25.968 215.41 25.688C214.914 25.4 214.526 25 214.246 24.488C213.966 23.968 213.826 23.364 213.826 22.676ZM223.432 20.732V23.948C223.432 24.172 223.484 24.336 223.588 24.44C223.7 24.536 223.884 24.584 224.14 24.584H224.92V26H223.864C222.448 26 221.74 25.312 221.74 23.936V20.732H220.948V19.352H221.74V17.708H223.432V19.352H224.92V20.732H223.432ZM226.981 18.56C226.685 18.56 226.437 18.468 226.237 18.284C226.045 18.092 225.949 17.856 225.949 17.576C225.949 17.296 226.045 17.064 226.237 16.88C226.437 16.688 226.685 16.592 226.981 16.592C227.277 16.592 227.521 16.688 227.713 16.88C227.913 17.064 228.013 17.296 228.013 17.576C228.013 17.856 227.913 18.092 227.713 18.284C227.521 18.468 227.277 18.56 226.981 18.56ZM227.809 19.352V26H226.129V19.352H227.809ZM232.421 26.108C231.781 26.108 231.205 25.968 230.693 25.688C230.181 25.4 229.777 24.996 229.481 24.476C229.193 23.956 229.049 23.356 229.049 22.676C229.049 21.996 229.197 21.396 229.493 20.876C229.797 20.356 230.209 19.956 230.729 19.676C231.249 19.388 231.829 19.244 232.469 19.244C233.109 19.244 233.689 19.388 234.209 19.676C234.729 19.956 235.137 20.356 235.433 20.876C235.737 21.396 235.889 21.996 235.889 22.676C235.889 23.356 235.733 23.956 235.421 24.476C235.117 24.996 234.701 25.4 234.173 25.688C233.653 25.968 233.069 26.108 232.421 26.108ZM232.421 24.644C232.725 24.644 233.009 24.572 233.273 24.428C233.545 24.276 233.761 24.052 233.921 23.756C234.081 23.46 234.161 23.1 234.161 22.676C234.161 22.044 233.993 21.56 233.657 21.224C233.329 20.88 232.925 20.708 232.445 20.708C231.965 20.708 231.561 20.88 231.233 21.224C230.913 21.56 230.753 22.044 230.753 22.676C230.753 23.308 230.909 23.796 231.221 24.14C231.541 24.476 231.941 24.644 232.421 24.644ZM240.805 19.256C241.597 19.256 242.237 19.508 242.725 20.012C243.213 20.508 243.457 21.204 243.457 22.1V26H241.777V22.328C241.777 21.8 241.645 21.396 241.381 21.116C241.117 20.828 240.757 20.684 240.301 20.684C239.837 20.684 239.469 20.828 239.197 21.116C238.933 21.396 238.801 21.8 238.801 22.328V26H237.121V19.352H238.801V20.18C239.025 19.892 239.309 19.668 239.653 19.508C240.005 19.34 240.389 19.256 240.805 19.256ZM245.907 18.56C245.611 18.56 245.363 18.468 245.163 18.284C244.971 18.092 244.875 17.856 244.875 17.576C244.875 17.296 244.971 17.064 245.163 16.88C245.363 16.688 245.611 16.592 245.907 16.592C246.203 16.592 246.447 16.688 246.639 16.88C246.839 17.064 246.939 17.296 246.939 17.576C246.939 17.856 246.839 18.092 246.639 18.284C246.447 18.468 246.203 18.56 245.907 18.56ZM246.735 19.352V26H245.055V19.352H246.735ZM252.078 19.256C252.87 19.256 253.51 19.508 253.998 20.012C254.486 20.508 254.73 21.204 254.73 22.1V26H253.05V22.328C253.05 21.8 252.918 21.396 252.654 21.116C252.39 20.828 252.03 20.684 251.574 20.684C251.11 20.684 250.742 20.828 250.47 21.116C250.206 21.396 250.074 21.8 250.074 22.328V26H248.394V19.352H250.074V20.18C250.298 19.892 250.582 19.668 250.926 19.508C251.278 19.34 251.662 19.256 252.078 19.256ZM258.932 19.244C259.428 19.244 259.864 19.344 260.24 19.544C260.616 19.736 260.912 19.988 261.128 20.3V19.352H262.82V26.048C262.82 26.664 262.696 27.212 262.448 27.692C262.2 28.18 261.828 28.564 261.332 28.844C260.836 29.132 260.236 29.276 259.532 29.276C258.588 29.276 257.812 29.056 257.204 28.616C256.604 28.176 256.264 27.576 256.184 26.816H257.852C257.94 27.12 258.128 27.36 258.416 27.536C258.712 27.72 259.068 27.812 259.484 27.812C259.972 27.812 260.368 27.664 260.672 27.368C260.976 27.08 261.128 26.64 261.128 26.048V25.016C260.912 25.328 260.612 25.588 260.228 25.796C259.852 26.004 259.42 26.108 258.932 26.108C258.372 26.108 257.86 25.964 257.396 25.676C256.932 25.388 256.564 24.984 256.292 24.464C256.028 23.936 255.896 23.332 255.896 22.652C255.896 21.98 256.028 21.384 256.292 20.864C256.564 20.344 256.928 19.944 257.384 19.664C257.848 19.384 258.364 19.244 258.932 19.244ZM261.128 22.676C261.128 22.268 261.048 21.92 260.888 21.632C260.728 21.336 260.512 21.112 260.24 20.96C259.968 20.8 259.676 20.72 259.364 20.72C259.052 20.72 258.764 20.796 258.5 20.948C258.236 21.1 258.02 21.324 257.852 21.62C257.692 21.908 257.612 22.252 257.612 22.652C257.612 23.052 257.692 23.404 257.852 23.708C258.02 24.004 258.236 24.232 258.5 24.392C258.772 24.552 259.06 24.632 259.364 24.632C259.676 24.632 259.968 24.556 260.24 24.404C260.512 24.244 260.728 24.02 260.888 23.732C261.048 23.436 261.128 23.084 261.128 22.676Z" fill="#464646"/>
</g>
<defs>
<filter id="filter0_d_109_14972" x="0" y="0" width="282" height="48" filterUnits="userSpaceOnUse" color-interpolation-filters="sRGB">
<feFlood flood-opacity="0" result="BackgroundImageFix"/>
<feColorMatrix in="SourceAlpha" type="matrix" values="0 0 0 0 0 0 0 0 0 0 0 0 0 0 0 0 0 0 127 0" result="hardAlpha"/>
<feOffset dx="2" dy="2"/>
<feGaussianBlur stdDeviation="2"/>
<feComposite in2="hardAlpha" operator="out"/>
<feColorMatrix type="matrix" values="0 0 0 0 0 0 0 0 0 0 0 0 0 0 0 0 0 0 0.25 0"/>
<feBlend mode="normal" in2="BackgroundImageFix" result="effect1_dropShadow_109_14972"/>
<feBlend mode="normal" in="SourceGraphic" in2="effect1_dropShadow_109_14972" result="shape"/>
</filter>
<linearGradient id="paint0_linear_109_14972" x1="22" y1="12" x2="22" y2="32" gradientUnits="userSpaceOnUse">
<stop stop-color="#6ADCA8"/>
<stop offset="1" stop-color="#10D775"/>
</linearGradient>
</defs>
</svg>
