<svg width="312" height="48" viewBox="0 0 312 48" fill="none" xmlns="http://www.w3.org/2000/svg">
<g filter="url(#filter0_d_109_14886)">
<rect x="2" y="2" width="304" height="40" rx="8" fill="white"/>
<path d="M30.6299 17.4431C30.3549 17.4951 30.0709 17.5109 29.7719 17.4929C28.0449 17.3889 26.6069 15.947 26.5079 14.22C26.4909 13.924 26.5079 13.6431 26.5589 13.3711C26.5949 13.1801 26.464 13 26.269 13H16.3819C14.1219 13 13.002 14.1201 13.002 16.3701V27.6201C13.002 29.8701 14.1219 31 16.3819 31H27.6219C29.8819 31 31.002 29.8701 31.002 27.6201V17.7329C31.001 17.5379 30.8209 17.4071 30.6299 17.4431ZM27.5309 20.53L24.7379 23.323C24.0569 24.005 22.9459 24.006 22.2639 23.324L20.6749 21.739C20.5769 21.641 20.419 21.641 20.321 21.739L17.53 24.53C17.384 24.676 17.1919 24.75 16.9999 24.75C16.8079 24.75 16.6159 24.677 16.4699 24.53C16.1769 24.237 16.1769 23.762 16.4699 23.469L19.2609 20.678C19.9429 19.996 21.0529 19.996 21.7349 20.677L23.3239 22.262C23.4219 22.359 23.5799 22.359 23.6779 22.262L26.4709 19.469C26.7639 19.176 27.239 19.176 27.532 19.469C27.825 19.762 27.8239 20.237 27.5309 20.53ZM32.0009 14C32.0009 15.104 31.1059 16 30.0009 16C28.8959 16 28.0009 15.104 28.0009 14C28.0009 12.896 28.8959 12 30.0009 12C31.1059 12 32.0009 12.896 32.0009 14Z" fill="url(#paint0_linear_109_14886)"/>
<path d="M40.1 21.368C39.3 20.952 38.9 20.308 38.9 19.436C38.9 19.004 39.008 18.612 39.224 18.26C39.448 17.9 39.78 17.616 40.22 17.408C40.668 17.192 41.212 17.084 41.852 17.084C42.492 17.084 43.032 17.192 43.472 17.408C43.92 17.616 44.252 17.9 44.468 18.26C44.692 18.612 44.804 19.004 44.804 19.436C44.804 19.876 44.696 20.264 44.48 20.6C44.264 20.928 43.976 21.184 43.616 21.368C44.056 21.56 44.4 21.84 44.648 22.208C44.896 22.576 45.02 23.012 45.02 23.516C45.02 24.06 44.88 24.536 44.6 24.944C44.328 25.344 43.952 25.652 43.472 25.868C42.992 26.084 42.452 26.192 41.852 26.192C41.252 26.192 40.712 26.084 40.232 25.868C39.76 25.652 39.384 25.344 39.104 24.944C38.832 24.536 38.696 24.06 38.696 23.516C38.696 23.012 38.82 22.576 39.068 22.208C39.316 21.832 39.66 21.552 40.1 21.368ZM43.172 19.676C43.172 19.284 43.052 18.98 42.812 18.764C42.58 18.548 42.26 18.44 41.852 18.44C41.452 18.44 41.132 18.548 40.892 18.764C40.66 18.98 40.544 19.288 40.544 19.688C40.544 20.048 40.664 20.336 40.904 20.552C41.152 20.768 41.468 20.876 41.852 20.876C42.236 20.876 42.552 20.768 42.8 20.552C43.048 20.328 43.172 20.036 43.172 19.676ZM41.852 22.1C41.396 22.1 41.024 22.216 40.736 22.448C40.456 22.68 40.316 23.012 40.316 23.444C40.316 23.844 40.452 24.172 40.724 24.428C41.004 24.676 41.38 24.8 41.852 24.8C42.324 24.8 42.696 24.672 42.968 24.416C43.24 24.16 43.376 23.836 43.376 23.444C43.376 23.02 43.236 22.692 42.956 22.46C42.676 22.22 42.308 22.1 41.852 22.1ZM47.8109 21.368C47.0109 20.952 46.6109 20.308 46.6109 19.436C46.6109 19.004 46.7189 18.612 46.9349 18.26C47.1589 17.9 47.4909 17.616 47.9309 17.408C48.3789 17.192 48.9229 17.084 49.5629 17.084C50.2029 17.084 50.7429 17.192 51.1829 17.408C51.6309 17.616 51.9629 17.9 52.1789 18.26C52.4029 18.612 52.5149 19.004 52.5149 19.436C52.5149 19.876 52.4069 20.264 52.1909 20.6C51.9749 20.928 51.6869 21.184 51.3269 21.368C51.7669 21.56 52.1109 21.84 52.3589 22.208C52.6069 22.576 52.7309 23.012 52.7309 23.516C52.7309 24.06 52.5909 24.536 52.3109 24.944C52.0389 25.344 51.6629 25.652 51.1829 25.868C50.7029 26.084 50.1629 26.192 49.5629 26.192C48.9629 26.192 48.4229 26.084 47.9429 25.868C47.4709 25.652 47.0949 25.344 46.8149 24.944C46.5429 24.536 46.4069 24.06 46.4069 23.516C46.4069 23.012 46.5309 22.576 46.7789 22.208C47.0269 21.832 47.3709 21.552 47.8109 21.368ZM50.8829 19.676C50.8829 19.284 50.7629 18.98 50.5229 18.764C50.2909 18.548 49.9709 18.44 49.5629 18.44C49.1629 18.44 48.8429 18.548 48.6029 18.764C48.3709 18.98 48.2549 19.288 48.2549 19.688C48.2549 20.048 48.3749 20.336 48.6149 20.552C48.8629 20.768 49.1789 20.876 49.5629 20.876C49.9469 20.876 50.2629 20.768 50.5109 20.552C50.7589 20.328 50.8829 20.036 50.8829 19.676ZM49.5629 22.1C49.1069 22.1 48.7349 22.216 48.4469 22.448C48.1669 22.68 48.0269 23.012 48.0269 23.444C48.0269 23.844 48.1629 24.172 48.4349 24.428C48.7149 24.676 49.0909 24.8 49.5629 24.8C50.0349 24.8 50.4069 24.672 50.6789 24.416C50.9509 24.16 51.0869 23.836 51.0869 23.444C51.0869 23.02 50.9469 22.692 50.6669 22.46C50.3869 22.22 50.0189 22.1 49.5629 22.1ZM53.8659 19.4C53.8659 18.792 54.0419 18.316 54.3939 17.972C54.7539 17.628 55.2139 17.456 55.7739 17.456C56.3339 17.456 56.7899 17.628 57.1419 17.972C57.5019 18.316 57.6819 18.792 57.6819 19.4C57.6819 20.016 57.5019 20.496 57.1419 20.84C56.7899 21.184 56.3339 21.356 55.7739 21.356C55.2139 21.356 54.7539 21.184 54.3939 20.84C54.0419 20.496 53.8659 20.016 53.8659 19.4ZM61.5699 17.6L56.8539 26H55.2219L59.9259 17.6H61.5699ZM55.7619 18.464C55.3219 18.464 55.1019 18.776 55.1019 19.4C55.1019 20.032 55.3219 20.348 55.7619 20.348C55.9779 20.348 56.1459 20.272 56.2659 20.12C56.3859 19.96 56.4459 19.72 56.4459 19.4C56.4459 18.776 56.2179 18.464 55.7619 18.464ZM59.1339 24.188C59.1339 23.572 59.3099 23.096 59.6619 22.76C60.0219 22.416 60.4819 22.244 61.0419 22.244C61.6019 22.244 62.0539 22.416 62.3979 22.76C62.7499 23.096 62.9259 23.572 62.9259 24.188C62.9259 24.804 62.7499 25.284 62.3979 25.628C62.0539 25.972 61.6019 26.144 61.0419 26.144C60.4739 26.144 60.0139 25.972 59.6619 25.628C59.3099 25.284 59.1339 24.804 59.1339 24.188ZM61.0299 23.252C60.5739 23.252 60.3459 23.564 60.3459 24.188C60.3459 24.82 60.5739 25.136 61.0299 25.136C61.4779 25.136 61.7019 24.82 61.7019 24.188C61.7019 23.564 61.4779 23.252 61.0299 23.252ZM66.6265 22.676C66.6265 21.988 66.7665 21.388 67.0465 20.876C67.3265 20.356 67.7145 19.956 68.2105 19.676C68.7065 19.388 69.2745 19.244 69.9145 19.244C70.7385 19.244 71.4185 19.452 71.9545 19.868C72.4985 20.276 72.8625 20.852 73.0465 21.596H71.2345C71.1385 21.308 70.9745 21.084 70.7425 20.924C70.5185 20.756 70.2385 20.672 69.9025 20.672C69.4225 20.672 69.0425 20.848 68.7625 21.2C68.4825 21.544 68.3425 22.036 68.3425 22.676C68.3425 23.308 68.4825 23.8 68.7625 24.152C69.0425 24.496 69.4225 24.668 69.9025 24.668C70.5825 24.668 71.0265 24.364 71.2345 23.756H73.0465C72.8625 24.476 72.4985 25.048 71.9545 25.472C71.4105 25.896 70.7305 26.108 69.9145 26.108C69.2745 26.108 68.7065 25.968 68.2105 25.688C67.7145 25.4 67.3265 25 67.0465 24.488C66.7665 23.968 66.6265 23.364 66.6265 22.676ZM77.2292 26.108C76.5892 26.108 76.0132 25.968 75.5012 25.688C74.9892 25.4 74.5852 24.996 74.2892 24.476C74.0012 23.956 73.8572 23.356 73.8572 22.676C73.8572 21.996 74.0052 21.396 74.3012 20.876C74.6052 20.356 75.0172 19.956 75.5372 19.676C76.0572 19.388 76.6372 19.244 77.2772 19.244C77.9172 19.244 78.4972 19.388 79.0172 19.676C79.5372 19.956 79.9452 20.356 80.2412 20.876C80.5452 21.396 80.6972 21.996 80.6972 22.676C80.6972 23.356 80.5412 23.956 80.2292 24.476C79.9252 24.996 79.5092 25.4 78.9812 25.688C78.4612 25.968 77.8772 26.108 77.2292 26.108ZM77.2292 24.644C77.5332 24.644 77.8172 24.572 78.0812 24.428C78.3532 24.276 78.5692 24.052 78.7292 23.756C78.8892 23.46 78.9692 23.1 78.9692 22.676C78.9692 22.044 78.8012 21.56 78.4652 21.224C78.1372 20.88 77.7332 20.708 77.2532 20.708C76.7732 20.708 76.3692 20.88 76.0412 21.224C75.7212 21.56 75.5612 22.044 75.5612 22.676C75.5612 23.308 75.7172 23.796 76.0292 24.14C76.3492 24.476 76.7492 24.644 77.2292 24.644ZM90.1856 19.256C91.0016 19.256 91.6576 19.508 92.1536 20.012C92.6576 20.508 92.9096 21.204 92.9096 22.1V26H91.2296V22.328C91.2296 21.808 91.0976 21.412 90.8336 21.14C90.5696 20.86 90.2096 20.72 89.7536 20.72C89.2976 20.72 88.9336 20.86 88.6616 21.14C88.3976 21.412 88.2656 21.808 88.2656 22.328V26H86.5856V22.328C86.5856 21.808 86.4536 21.412 86.1896 21.14C85.9256 20.86 85.5656 20.72 85.1096 20.72C84.6456 20.72 84.2776 20.86 84.0056 21.14C83.7416 21.412 83.6096 21.808 83.6096 22.328V26H81.9296V19.352H83.6096V20.156C83.8256 19.876 84.1016 19.656 84.4376 19.496C84.7816 19.336 85.1576 19.256 85.5656 19.256C86.0856 19.256 86.5496 19.368 86.9576 19.592C87.3656 19.808 87.6816 20.12 87.9056 20.528C88.1216 20.144 88.4336 19.836 88.8416 19.604C89.2576 19.372 89.7056 19.256 90.1856 19.256ZM96.1838 20.312C96.3998 20.008 96.6958 19.756 97.0718 19.556C97.4558 19.348 97.8918 19.244 98.3798 19.244C98.9478 19.244 99.4598 19.384 99.9158 19.664C100.38 19.944 100.744 20.344 101.008 20.864C101.28 21.376 101.416 21.972 101.416 22.652C101.416 23.332 101.28 23.936 101.008 24.464C100.744 24.984 100.38 25.388 99.9158 25.676C99.4598 25.964 98.9478 26.108 98.3798 26.108C97.8918 26.108 97.4598 26.008 97.0838 25.808C96.7158 25.608 96.4158 25.356 96.1838 25.052V29.168H94.5038V19.352H96.1838V20.312ZM99.6998 22.652C99.6998 22.252 99.6158 21.908 99.4478 21.62C99.2878 21.324 99.0718 21.1 98.7998 20.948C98.5358 20.796 98.2478 20.72 97.9358 20.72C97.6318 20.72 97.3438 20.8 97.0718 20.96C96.8078 21.112 96.5918 21.336 96.4238 21.632C96.2638 21.928 96.1838 22.276 96.1838 22.676C96.1838 23.076 96.2638 23.424 96.4238 23.72C96.5918 24.016 96.8078 24.244 97.0718 24.404C97.3438 24.556 97.6318 24.632 97.9358 24.632C98.2478 24.632 98.5358 24.552 98.7998 24.392C99.0718 24.232 99.2878 24.004 99.4478 23.708C99.6158 23.412 99.6998 23.06 99.6998 22.652ZM104.317 17.12V26H102.637V17.12H104.317ZM112.156 22.532C112.156 22.772 112.14 22.988 112.108 23.18H107.248C107.288 23.66 107.456 24.036 107.752 24.308C108.048 24.58 108.412 24.716 108.844 24.716C109.468 24.716 109.912 24.448 110.176 23.912H111.988C111.796 24.552 111.428 25.08 110.884 25.496C110.34 25.904 109.672 26.108 108.88 26.108C108.24 26.108 107.664 25.968 107.152 25.688C106.648 25.4 106.252 24.996 105.964 24.476C105.684 23.956 105.544 23.356 105.544 22.676C105.544 21.988 105.684 21.384 105.964 20.864C106.244 20.344 106.636 19.944 107.14 19.664C107.644 19.384 108.224 19.244 108.88 19.244C109.512 19.244 110.076 19.38 110.572 19.652C111.076 19.924 111.464 20.312 111.736 20.816C112.016 21.312 112.156 21.884 112.156 22.532ZM110.416 22.052C110.408 21.62 110.252 21.276 109.948 21.02C109.644 20.756 109.272 20.624 108.832 20.624C108.416 20.624 108.064 20.752 107.776 21.008C107.496 21.256 107.324 21.604 107.26 22.052H110.416ZM115.339 20.732V23.948C115.339 24.172 115.391 24.336 115.495 24.44C115.607 24.536 115.791 24.584 116.047 24.584H116.827V26H115.771C114.355 26 113.647 25.312 113.647 23.936V20.732H112.855V19.352H113.647V17.708H115.339V19.352H116.827V20.732H115.339ZM118.887 18.56C118.591 18.56 118.343 18.468 118.143 18.284C117.951 18.092 117.855 17.856 117.855 17.576C117.855 17.296 117.951 17.064 118.143 16.88C118.343 16.688 118.591 16.592 118.887 16.592C119.183 16.592 119.427 16.688 119.619 16.88C119.819 17.064 119.919 17.296 119.919 17.576C119.919 17.856 119.819 18.092 119.619 18.284C119.427 18.468 119.183 18.56 118.887 18.56ZM119.715 19.352V26H118.035V19.352H119.715ZM124.327 26.108C123.687 26.108 123.111 25.968 122.599 25.688C122.087 25.4 121.683 24.996 121.387 24.476C121.099 23.956 120.955 23.356 120.955 22.676C120.955 21.996 121.103 21.396 121.399 20.876C121.703 20.356 122.115 19.956 122.635 19.676C123.155 19.388 123.735 19.244 124.375 19.244C125.015 19.244 125.595 19.388 126.115 19.676C126.635 19.956 127.043 20.356 127.339 20.876C127.643 21.396 127.795 21.996 127.795 22.676C127.795 23.356 127.639 23.956 127.327 24.476C127.023 24.996 126.607 25.4 126.079 25.688C125.559 25.968 124.975 26.108 124.327 26.108ZM124.327 24.644C124.631 24.644 124.915 24.572 125.179 24.428C125.451 24.276 125.667 24.052 125.827 23.756C125.987 23.46 126.067 23.1 126.067 22.676C126.067 22.044 125.899 21.56 125.563 21.224C125.235 20.88 124.831 20.708 124.351 20.708C123.871 20.708 123.467 20.88 123.139 21.224C122.819 21.56 122.659 22.044 122.659 22.676C122.659 23.308 122.815 23.796 123.127 24.14C123.447 24.476 123.847 24.644 124.327 24.644ZM132.711 19.256C133.503 19.256 134.143 19.508 134.631 20.012C135.119 20.508 135.363 21.204 135.363 22.1V26H133.683V22.328C133.683 21.8 133.551 21.396 133.287 21.116C133.023 20.828 132.663 20.684 132.207 20.684C131.743 20.684 131.375 20.828 131.103 21.116C130.839 21.396 130.707 21.8 130.707 22.328V26H129.027V19.352H130.707V20.18C130.931 19.892 131.215 19.668 131.559 19.508C131.911 19.34 132.295 19.256 132.711 19.256ZM142.772 26.108C142.132 26.108 141.556 25.968 141.044 25.688C140.532 25.4 140.128 24.996 139.832 24.476C139.544 23.956 139.4 23.356 139.4 22.676C139.4 21.996 139.548 21.396 139.844 20.876C140.148 20.356 140.56 19.956 141.08 19.676C141.6 19.388 142.18 19.244 142.82 19.244C143.46 19.244 144.04 19.388 144.56 19.676C145.08 19.956 145.488 20.356 145.784 20.876C146.088 21.396 146.24 21.996 146.24 22.676C146.24 23.356 146.084 23.956 145.772 24.476C145.468 24.996 145.052 25.4 144.524 25.688C144.004 25.968 143.42 26.108 142.772 26.108ZM142.772 24.644C143.076 24.644 143.36 24.572 143.624 24.428C143.896 24.276 144.112 24.052 144.272 23.756C144.432 23.46 144.512 23.1 144.512 22.676C144.512 22.044 144.344 21.56 144.008 21.224C143.68 20.88 143.276 20.708 142.796 20.708C142.316 20.708 141.912 20.88 141.584 21.224C141.264 21.56 141.104 22.044 141.104 22.676C141.104 23.308 141.26 23.796 141.572 24.14C141.892 24.476 142.292 24.644 142.772 24.644ZM151.157 19.256C151.949 19.256 152.589 19.508 153.077 20.012C153.565 20.508 153.809 21.204 153.809 22.1V26H152.129V22.328C152.129 21.8 151.997 21.396 151.733 21.116C151.469 20.828 151.109 20.684 150.653 20.684C150.189 20.684 149.821 20.828 149.549 21.116C149.285 21.396 149.153 21.8 149.153 22.328V26H147.473V19.352H149.153V20.18C149.377 19.892 149.661 19.668 150.005 19.508C150.357 19.34 150.741 19.256 151.157 19.256ZM165.43 26H163.75L159.946 20.252V26H158.266V17.612H159.946L163.75 23.372V17.612H165.43V26ZM173.27 22.532C173.27 22.772 173.254 22.988 173.222 23.18H168.362C168.402 23.66 168.57 24.036 168.866 24.308C169.162 24.58 169.526 24.716 169.958 24.716C170.582 24.716 171.026 24.448 171.29 23.912H173.102C172.91 24.552 172.542 25.08 171.998 25.496C171.454 25.904 170.786 26.108 169.994 26.108C169.354 26.108 168.778 25.968 168.266 25.688C167.762 25.4 167.366 24.996 167.078 24.476C166.798 23.956 166.658 23.356 166.658 22.676C166.658 21.988 166.798 21.384 167.078 20.864C167.358 20.344 167.75 19.944 168.254 19.664C168.758 19.384 169.338 19.244 169.994 19.244C170.626 19.244 171.19 19.38 171.686 19.652C172.19 19.924 172.578 20.312 172.85 20.816C173.13 21.312 173.27 21.884 173.27 22.532ZM171.53 22.052C171.522 21.62 171.366 21.276 171.062 21.02C170.758 20.756 170.386 20.624 169.946 20.624C169.53 20.624 169.178 20.752 168.89 21.008C168.61 21.256 168.438 21.604 168.374 22.052H171.53ZM183.712 19.352L181.768 26H179.956L178.744 21.356L177.532 26H175.708L173.752 19.352H175.456L176.632 24.416L177.904 19.352H179.68L180.928 24.404L182.104 19.352H183.712ZM193.588 20.216C193.588 20.664 193.48 21.084 193.264 21.476C193.056 21.868 192.724 22.184 192.268 22.424C191.82 22.664 191.252 22.784 190.564 22.784H189.16V26H187.48V17.624H190.564C191.212 17.624 191.764 17.736 192.22 17.96C192.676 18.184 193.016 18.492 193.24 18.884C193.472 19.276 193.588 19.72 193.588 20.216ZM190.492 21.428C190.956 21.428 191.3 21.324 191.524 21.116C191.748 20.9 191.86 20.6 191.86 20.216C191.86 19.4 191.404 18.992 190.492 18.992H189.16V21.428H190.492ZM196.461 20.384C196.677 20.032 196.957 19.756 197.301 19.556C197.653 19.356 198.053 19.256 198.501 19.256V21.02H198.057C197.529 21.02 197.129 21.144 196.857 21.392C196.593 21.64 196.461 22.072 196.461 22.688V26H194.781V19.352H196.461V20.384ZM202.585 26.108C201.945 26.108 201.369 25.968 200.857 25.688C200.345 25.4 199.941 24.996 199.645 24.476C199.357 23.956 199.213 23.356 199.213 22.676C199.213 21.996 199.361 21.396 199.657 20.876C199.961 20.356 200.373 19.956 200.893 19.676C201.413 19.388 201.993 19.244 202.633 19.244C203.273 19.244 203.853 19.388 204.373 19.676C204.893 19.956 205.301 20.356 205.597 20.876C205.901 21.396 206.053 21.996 206.053 22.676C206.053 23.356 205.897 23.956 205.585 24.476C205.281 24.996 204.865 25.4 204.337 25.688C203.817 25.968 203.233 26.108 202.585 26.108ZM202.585 24.644C202.889 24.644 203.173 24.572 203.437 24.428C203.709 24.276 203.925 24.052 204.085 23.756C204.245 23.46 204.325 23.1 204.325 22.676C204.325 22.044 204.157 21.56 203.821 21.224C203.493 20.88 203.089 20.708 202.609 20.708C202.129 20.708 201.725 20.88 201.397 21.224C201.077 21.56 200.917 22.044 200.917 22.676C200.917 23.308 201.073 23.796 201.385 24.14C201.705 24.476 202.105 24.644 202.585 24.644ZM206.853 22.676C206.853 21.988 206.993 21.388 207.273 20.876C207.553 20.356 207.941 19.956 208.437 19.676C208.933 19.388 209.501 19.244 210.141 19.244C210.965 19.244 211.645 19.452 212.181 19.868C212.725 20.276 213.089 20.852 213.273 21.596H211.461C211.365 21.308 211.201 21.084 210.969 20.924C210.745 20.756 210.465 20.672 210.129 20.672C209.649 20.672 209.269 20.848 208.989 21.2C208.709 21.544 208.569 22.036 208.569 22.676C208.569 23.308 208.709 23.8 208.989 24.152C209.269 24.496 209.649 24.668 210.129 24.668C210.809 24.668 211.253 24.364 211.461 23.756H213.273C213.089 24.476 212.725 25.048 212.181 25.472C211.637 25.896 210.957 26.108 210.141 26.108C209.501 26.108 208.933 25.968 208.437 25.688C207.941 25.4 207.553 25 207.273 24.488C206.993 23.968 206.853 23.364 206.853 22.676ZM220.684 22.532C220.684 22.772 220.668 22.988 220.636 23.18H215.776C215.816 23.66 215.984 24.036 216.28 24.308C216.576 24.58 216.94 24.716 217.372 24.716C217.996 24.716 218.44 24.448 218.704 23.912H220.516C220.324 24.552 219.956 25.08 219.412 25.496C218.868 25.904 218.2 26.108 217.408 26.108C216.768 26.108 216.192 25.968 215.68 25.688C215.176 25.4 214.78 24.996 214.492 24.476C214.212 23.956 214.072 23.356 214.072 22.676C214.072 21.988 214.212 21.384 214.492 20.864C214.772 20.344 215.164 19.944 215.668 19.664C216.172 19.384 216.752 19.244 217.408 19.244C218.04 19.244 218.604 19.38 219.1 19.652C219.604 19.924 219.992 20.312 220.264 20.816C220.544 21.312 220.684 21.884 220.684 22.532ZM218.944 22.052C218.936 21.62 218.78 21.276 218.476 21.02C218.172 20.756 217.8 20.624 217.36 20.624C216.944 20.624 216.592 20.752 216.304 21.008C216.024 21.256 215.852 21.604 215.788 22.052H218.944ZM224.454 26.108C223.91 26.108 223.422 26.012 222.99 25.82C222.558 25.62 222.214 25.352 221.958 25.016C221.71 24.68 221.574 24.308 221.55 23.9H223.242C223.274 24.156 223.398 24.368 223.614 24.536C223.838 24.704 224.114 24.788 224.442 24.788C224.762 24.788 225.01 24.724 225.186 24.596C225.37 24.468 225.462 24.304 225.462 24.104C225.462 23.888 225.35 23.728 225.126 23.624C224.91 23.512 224.562 23.392 224.082 23.264C223.586 23.144 223.178 23.02 222.858 22.892C222.546 22.764 222.274 22.568 222.042 22.304C221.818 22.04 221.706 21.684 221.706 21.236C221.706 20.868 221.81 20.532 222.018 20.228C222.234 19.924 222.538 19.684 222.93 19.508C223.33 19.332 223.798 19.244 224.334 19.244C225.126 19.244 225.758 19.444 226.23 19.844C226.702 20.236 226.962 20.768 227.01 21.44H225.402C225.378 21.176 225.266 20.968 225.066 20.816C224.874 20.656 224.614 20.576 224.286 20.576C223.982 20.576 223.746 20.632 223.578 20.744C223.418 20.856 223.338 21.012 223.338 21.212C223.338 21.436 223.45 21.608 223.674 21.728C223.898 21.84 224.246 21.956 224.718 22.076C225.198 22.196 225.594 22.32 225.906 22.448C226.218 22.576 226.486 22.776 226.71 23.048C226.942 23.312 227.062 23.664 227.07 24.104C227.07 24.488 226.962 24.832 226.746 25.136C226.538 25.44 226.234 25.68 225.834 25.856C225.442 26.024 224.982 26.108 224.454 26.108ZM230.993 26.108C230.449 26.108 229.961 26.012 229.529 25.82C229.097 25.62 228.753 25.352 228.497 25.016C228.249 24.68 228.113 24.308 228.089 23.9H229.781C229.813 24.156 229.937 24.368 230.153 24.536C230.377 24.704 230.653 24.788 230.981 24.788C231.301 24.788 231.549 24.724 231.725 24.596C231.909 24.468 232.001 24.304 232.001 24.104C232.001 23.888 231.889 23.728 231.665 23.624C231.449 23.512 231.101 23.392 230.621 23.264C230.125 23.144 229.717 23.02 229.397 22.892C229.085 22.764 228.813 22.568 228.581 22.304C228.357 22.04 228.245 21.684 228.245 21.236C228.245 20.868 228.349 20.532 228.557 20.228C228.773 19.924 229.077 19.684 229.469 19.508C229.869 19.332 230.337 19.244 230.873 19.244C231.665 19.244 232.297 19.444 232.769 19.844C233.241 20.236 233.501 20.768 233.549 21.44H231.941C231.917 21.176 231.805 20.968 231.605 20.816C231.413 20.656 231.153 20.576 230.825 20.576C230.521 20.576 230.285 20.632 230.117 20.744C229.957 20.856 229.877 21.012 229.877 21.212C229.877 21.436 229.989 21.608 230.213 21.728C230.437 21.84 230.785 21.956 231.257 22.076C231.737 22.196 232.133 22.32 232.445 22.448C232.757 22.576 233.025 22.776 233.249 23.048C233.481 23.312 233.601 23.664 233.609 24.104C233.609 24.488 233.501 24.832 233.285 25.136C233.077 25.44 232.773 25.68 232.373 25.856C231.981 26.024 231.521 26.108 230.993 26.108ZM242.984 24.404H239.648L239.096 26H237.332L240.344 17.612H242.3L245.312 26H243.536L242.984 24.404ZM242.528 23.06L241.316 19.556L240.104 23.06H242.528ZM246.005 22.652C246.005 21.98 246.137 21.384 246.401 20.864C246.673 20.344 247.041 19.944 247.505 19.664C247.969 19.384 248.485 19.244 249.053 19.244C249.485 19.244 249.897 19.34 250.289 19.532C250.681 19.716 250.993 19.964 251.225 20.276V17.12H252.929V26H251.225V25.016C251.017 25.344 250.725 25.608 250.349 25.808C249.973 26.008 249.537 26.108 249.041 26.108C248.481 26.108 247.969 25.964 247.505 25.676C247.041 25.388 246.673 24.984 246.401 24.464C246.137 23.936 246.005 23.332 246.005 22.652ZM251.237 22.676C251.237 22.268 251.157 21.92 250.997 21.632C250.837 21.336 250.621 21.112 250.349 20.96C250.077 20.8 249.785 20.72 249.473 20.72C249.161 20.72 248.873 20.796 248.609 20.948C248.345 21.1 248.129 21.324 247.961 21.62C247.801 21.908 247.721 22.252 247.721 22.652C247.721 23.052 247.801 23.404 247.961 23.708C248.129 24.004 248.345 24.232 248.609 24.392C248.881 24.552 249.169 24.632 249.473 24.632C249.785 24.632 250.077 24.556 250.349 24.404C250.621 24.244 250.837 24.02 250.997 23.732C251.157 23.436 251.237 23.084 251.237 22.676ZM257.522 26.108C256.882 26.108 256.306 25.968 255.794 25.688C255.282 25.4 254.878 24.996 254.582 24.476C254.294 23.956 254.15 23.356 254.15 22.676C254.15 21.996 254.298 21.396 254.594 20.876C254.898 20.356 255.31 19.956 255.83 19.676C256.35 19.388 256.93 19.244 257.57 19.244C258.21 19.244 258.79 19.388 259.31 19.676C259.83 19.956 260.238 20.356 260.534 20.876C260.838 21.396 260.99 21.996 260.99 22.676C260.99 23.356 260.834 23.956 260.522 24.476C260.218 24.996 259.802 25.4 259.274 25.688C258.754 25.968 258.17 26.108 257.522 26.108ZM257.522 24.644C257.826 24.644 258.11 24.572 258.374 24.428C258.646 24.276 258.862 24.052 259.022 23.756C259.182 23.46 259.262 23.1 259.262 22.676C259.262 22.044 259.094 21.56 258.758 21.224C258.43 20.88 258.026 20.708 257.546 20.708C257.066 20.708 256.662 20.88 256.334 21.224C256.014 21.56 255.854 22.044 255.854 22.676C255.854 23.308 256.01 23.796 256.322 24.14C256.642 24.476 257.042 24.644 257.522 24.644ZM263.903 20.312C264.119 20.008 264.415 19.756 264.791 19.556C265.175 19.348 265.611 19.244 266.099 19.244C266.667 19.244 267.179 19.384 267.635 19.664C268.099 19.944 268.463 20.344 268.727 20.864C268.999 21.376 269.135 21.972 269.135 22.652C269.135 23.332 268.999 23.936 268.727 24.464C268.463 24.984 268.099 25.388 267.635 25.676C267.179 25.964 266.667 26.108 266.099 26.108C265.611 26.108 265.179 26.008 264.803 25.808C264.435 25.608 264.135 25.356 263.903 25.052V29.168H262.223V19.352H263.903V20.312ZM267.419 22.652C267.419 22.252 267.335 21.908 267.167 21.62C267.007 21.324 266.791 21.1 266.519 20.948C266.255 20.796 265.967 20.72 265.655 20.72C265.351 20.72 265.063 20.8 264.791 20.96C264.527 21.112 264.311 21.336 264.143 21.632C263.983 21.928 263.903 22.276 263.903 22.676C263.903 23.076 263.983 23.424 264.143 23.72C264.311 24.016 264.527 24.244 264.791 24.404C265.063 24.556 265.351 24.632 265.655 24.632C265.967 24.632 266.255 24.552 266.519 24.392C266.791 24.232 267.007 24.004 267.167 23.708C267.335 23.412 267.419 23.06 267.419 22.652ZM272.311 20.732V23.948C272.311 24.172 272.363 24.336 272.467 24.44C272.579 24.536 272.763 24.584 273.019 24.584H273.799V26H272.743C271.327 26 270.619 25.312 270.619 23.936V20.732H269.827V19.352H270.619V17.708H272.311V19.352H273.799V20.732H272.311ZM275.86 18.56C275.564 18.56 275.316 18.468 275.116 18.284C274.924 18.092 274.828 17.856 274.828 17.576C274.828 17.296 274.924 17.064 275.116 16.88C275.316 16.688 275.564 16.592 275.86 16.592C276.156 16.592 276.4 16.688 276.592 16.88C276.792 17.064 276.892 17.296 276.892 17.576C276.892 17.856 276.792 18.092 276.592 18.284C276.4 18.468 276.156 18.56 275.86 18.56ZM276.688 19.352V26H275.008V19.352H276.688ZM281.3 26.108C280.66 26.108 280.084 25.968 279.572 25.688C279.06 25.4 278.656 24.996 278.36 24.476C278.072 23.956 277.928 23.356 277.928 22.676C277.928 21.996 278.076 21.396 278.372 20.876C278.676 20.356 279.088 19.956 279.608 19.676C280.128 19.388 280.708 19.244 281.348 19.244C281.988 19.244 282.568 19.388 283.088 19.676C283.608 19.956 284.016 20.356 284.312 20.876C284.616 21.396 284.768 21.996 284.768 22.676C284.768 23.356 284.612 23.956 284.3 24.476C283.996 24.996 283.58 25.4 283.052 25.688C282.532 25.968 281.948 26.108 281.3 26.108ZM281.3 24.644C281.604 24.644 281.888 24.572 282.152 24.428C282.424 24.276 282.64 24.052 282.8 23.756C282.96 23.46 283.04 23.1 283.04 22.676C283.04 22.044 282.872 21.56 282.536 21.224C282.208 20.88 281.804 20.708 281.324 20.708C280.844 20.708 280.44 20.88 280.112 21.224C279.792 21.56 279.632 22.044 279.632 22.676C279.632 23.308 279.788 23.796 280.1 24.14C280.42 24.476 280.82 24.644 281.3 24.644ZM289.684 19.256C290.476 19.256 291.116 19.508 291.604 20.012C292.092 20.508 292.336 21.204 292.336 22.1V26H290.656V22.328C290.656 21.8 290.524 21.396 290.26 21.116C289.996 20.828 289.636 20.684 289.18 20.684C288.716 20.684 288.348 20.828 288.076 21.116C287.812 21.396 287.68 21.8 287.68 22.328V26H286V19.352H287.68V20.18C287.904 19.892 288.188 19.668 288.532 19.508C288.884 19.34 289.268 19.256 289.684 19.256Z" fill="#464646"/>
</g>
<defs>
<filter id="filter0_d_109_14886" x="0" y="0" width="312" height="48" filterUnits="userSpaceOnUse" color-interpolation-filters="sRGB">
<feFlood flood-opacity="0" result="BackgroundImageFix"/>
<feColorMatrix in="SourceAlpha" type="matrix" values="0 0 0 0 0 0 0 0 0 0 0 0 0 0 0 0 0 0 127 0" result="hardAlpha"/>
<feOffset dx="2" dy="2"/>
<feGaussianBlur stdDeviation="2"/>
<feComposite in2="hardAlpha" operator="out"/>
<feColorMatrix type="matrix" values="0 0 0 0 0 0 0 0 0 0 0 0 0 0 0 0 0 0 0.25 0"/>
<feBlend mode="normal" in2="BackgroundImageFix" result="effect1_dropShadow_109_14886"/>
<feBlend mode="normal" in="SourceGraphic" in2="effect1_dropShadow_109_14886" result="shape"/>
</filter>
<linearGradient id="paint0_linear_109_14886" x1="13.002" y1="12" x2="38.929" y2="37.9257" gradientUnits="userSpaceOnUse">
<stop stop-color="#3DB9A6"/>
<stop offset="1" stop-color="#008F7A"/>
</linearGradient>
</defs>
</svg>
