<svg width="300" height="48" viewBox="0 0 300 48" fill="none" xmlns="http://www.w3.org/2000/svg">
<g filter="url(#filter0_d_109_14848)">
<rect x="2" y="2" width="292" height="40" rx="8" fill="white"/>
<path d="M22 12C16.477 12 12 16.477 12 22C12 27.523 16.477 32 22 32C27.523 32 32 27.523 32 22C32 16.477 27.523 12 22 12ZM27.02 21.833C26.881 21.833 26.749 21.808 26.621 21.772L25.126 23.2671C25.161 23.3951 25.186 23.527 25.186 23.666C25.186 24.495 24.515 25.166 23.686 25.166C22.857 25.166 22.181 24.495 22.181 23.666C22.181 23.537 22.202 23.413 22.233 23.293L20.721 21.782C20.602 21.812 20.48 21.833 20.353 21.833C20.214 21.833 20.082 21.8079 19.954 21.7729L18.459 23.2671C18.494 23.3951 18.519 23.527 18.519 23.666C18.519 24.495 17.848 25.166 17.019 25.166C16.19 25.166 15.514 24.495 15.514 23.666C15.514 22.837 16.181 22.166 17.009 22.166H17.019C17.147 22.166 17.269 22.187 17.388 22.217L18.9 20.705C18.869 20.586 18.848 20.462 18.848 20.333C18.848 19.504 19.515 18.833 20.343 18.833H20.353C21.182 18.833 21.853 19.504 21.853 20.333C21.853 20.472 21.828 20.6041 21.793 20.7321L23.285 22.2241C23.41 22.1901 23.54 22.166 23.676 22.166H23.686C23.814 22.166 23.936 22.187 24.055 22.217L25.567 20.705C25.536 20.585 25.515 20.462 25.515 20.333C25.515 19.504 26.182 18.833 27.01 18.833H27.02C27.849 18.833 28.52 19.504 28.52 20.333C28.52 21.162 27.849 21.833 27.02 21.833Z" fill="url(#paint0_linear_109_14848)"/>
<path d="M38.66 19.556C38.7 18.756 38.98 18.14 39.5 17.708C40.028 17.268 40.72 17.048 41.576 17.048C42.16 17.048 42.66 17.152 43.076 17.36C43.492 17.56 43.804 17.836 44.012 18.188C44.228 18.532 44.336 18.924 44.336 19.364C44.336 19.868 44.204 20.296 43.94 20.648C43.684 20.992 43.376 21.224 43.016 21.344V21.392C43.48 21.536 43.84 21.792 44.096 22.16C44.36 22.528 44.492 23 44.492 23.576C44.492 24.056 44.38 24.484 44.156 24.86C43.94 25.236 43.616 25.532 43.184 25.748C42.76 25.956 42.248 26.06 41.648 26.06C40.744 26.06 40.008 25.832 39.44 25.376C38.872 24.92 38.572 24.248 38.54 23.36H40.172C40.188 23.752 40.32 24.068 40.568 24.308C40.824 24.54 41.172 24.656 41.612 24.656C42.02 24.656 42.332 24.544 42.548 24.32C42.772 24.088 42.884 23.792 42.884 23.432C42.884 22.952 42.732 22.608 42.428 22.4C42.124 22.192 41.652 22.088 41.012 22.088H40.664V20.708H41.012C42.148 20.708 42.716 20.328 42.716 19.568C42.716 19.224 42.612 18.956 42.404 18.764C42.204 18.572 41.912 18.476 41.528 18.476C41.152 18.476 40.86 18.58 40.652 18.788C40.452 18.988 40.336 19.244 40.304 19.556H38.66ZM51.3876 18.524L48.1956 26H46.4916L49.7076 18.716H45.6036V17.276H51.3876V18.524ZM52.2018 19.4C52.2018 18.792 52.3778 18.316 52.7298 17.972C53.0898 17.628 53.5498 17.456 54.1098 17.456C54.6698 17.456 55.1258 17.628 55.4778 17.972C55.8378 18.316 56.0178 18.792 56.0178 19.4C56.0178 20.016 55.8378 20.496 55.4778 20.84C55.1258 21.184 54.6698 21.356 54.1098 21.356C53.5498 21.356 53.0898 21.184 52.7298 20.84C52.3778 20.496 52.2018 20.016 52.2018 19.4ZM59.9058 17.6L55.1898 26H53.5578L58.2618 17.6H59.9058ZM54.0978 18.464C53.6578 18.464 53.4378 18.776 53.4378 19.4C53.4378 20.032 53.6578 20.348 54.0978 20.348C54.3138 20.348 54.4818 20.272 54.6018 20.12C54.7218 19.96 54.7818 19.72 54.7818 19.4C54.7818 18.776 54.5538 18.464 54.0978 18.464ZM57.4698 24.188C57.4698 23.572 57.6458 23.096 57.9978 22.76C58.3578 22.416 58.8178 22.244 59.3778 22.244C59.9378 22.244 60.3898 22.416 60.7338 22.76C61.0858 23.096 61.2618 23.572 61.2618 24.188C61.2618 24.804 61.0858 25.284 60.7338 25.628C60.3898 25.972 59.9378 26.144 59.3778 26.144C58.8098 26.144 58.3498 25.972 57.9978 25.628C57.6458 25.284 57.4698 24.804 57.4698 24.188ZM59.3658 23.252C58.9098 23.252 58.6818 23.564 58.6818 24.188C58.6818 24.82 58.9098 25.136 59.3658 25.136C59.8138 25.136 60.0378 24.82 60.0378 24.188C60.0378 23.564 59.8138 23.252 59.3658 23.252ZM68.4424 20.732H67.2784V26H65.5744V20.732H64.8184V19.352H65.5744V19.016C65.5744 18.2 65.8064 17.6 66.2704 17.216C66.7344 16.832 67.4344 16.652 68.3704 16.676V18.092C67.9624 18.084 67.6784 18.152 67.5184 18.296C67.3584 18.44 67.2784 18.7 67.2784 19.076V19.352H68.4424V20.732ZM69.0991 22.652C69.0991 21.98 69.2311 21.384 69.4951 20.864C69.7671 20.344 70.1311 19.944 70.5871 19.664C71.0511 19.384 71.5671 19.244 72.1351 19.244C72.6311 19.244 73.0631 19.344 73.4311 19.544C73.8071 19.744 74.1071 19.996 74.3311 20.3V19.352H76.0231V26H74.3311V25.028C74.1151 25.34 73.8151 25.6 73.4311 25.808C73.0551 26.008 72.6191 26.108 72.1231 26.108C71.5631 26.108 71.0511 25.964 70.5871 25.676C70.1311 25.388 69.7671 24.984 69.4951 24.464C69.2311 23.936 69.0991 23.332 69.0991 22.652ZM74.3311 22.676C74.3311 22.268 74.2511 21.92 74.0911 21.632C73.9311 21.336 73.7151 21.112 73.4431 20.96C73.1711 20.8 72.8791 20.72 72.5671 20.72C72.2551 20.72 71.9671 20.796 71.7031 20.948C71.4391 21.1 71.2231 21.324 71.0551 21.62C70.8951 21.908 70.8151 22.252 70.8151 22.652C70.8151 23.052 70.8951 23.404 71.0551 23.708C71.2231 24.004 71.4391 24.232 71.7031 24.392C71.9751 24.552 72.2631 24.632 72.5671 24.632C72.8791 24.632 73.1711 24.556 73.4431 24.404C73.7151 24.244 73.9311 24.02 74.0911 23.732C74.2511 23.436 74.3311 23.084 74.3311 22.676ZM77.2319 22.676C77.2319 21.988 77.3719 21.388 77.6519 20.876C77.9319 20.356 78.3199 19.956 78.8159 19.676C79.3119 19.388 79.8799 19.244 80.5199 19.244C81.3439 19.244 82.0239 19.452 82.5599 19.868C83.1039 20.276 83.4679 20.852 83.6519 21.596H81.8399C81.7439 21.308 81.5799 21.084 81.3479 20.924C81.1239 20.756 80.8439 20.672 80.5079 20.672C80.0279 20.672 79.6479 20.848 79.3679 21.2C79.0879 21.544 78.9479 22.036 78.9479 22.676C78.9479 23.308 79.0879 23.8 79.3679 24.152C79.6479 24.496 80.0279 24.668 80.5079 24.668C81.1879 24.668 81.6319 24.364 81.8399 23.756H83.6519C83.4679 24.476 83.1039 25.048 82.5599 25.472C82.0159 25.896 81.3359 26.108 80.5199 26.108C79.8799 26.108 79.3119 25.968 78.8159 25.688C78.3199 25.4 77.9319 25 77.6519 24.488C77.3719 23.968 77.2319 23.364 77.2319 22.676ZM85.7347 18.56C85.4387 18.56 85.1907 18.468 84.9907 18.284C84.7987 18.092 84.7027 17.856 84.7027 17.576C84.7027 17.296 84.7987 17.064 84.9907 16.88C85.1907 16.688 85.4387 16.592 85.7347 16.592C86.0307 16.592 86.2747 16.688 86.4667 16.88C86.6667 17.064 86.7667 17.296 86.7667 17.576C86.7667 17.856 86.6667 18.092 86.4667 18.284C86.2747 18.468 86.0307 18.56 85.7347 18.56ZM86.5627 19.352V26H84.8827V19.352H86.5627ZM91.9065 19.256C92.6985 19.256 93.3385 19.508 93.8265 20.012C94.3145 20.508 94.5585 21.204 94.5585 22.1V26H92.8785V22.328C92.8785 21.8 92.7465 21.396 92.4825 21.116C92.2185 20.828 91.8585 20.684 91.4025 20.684C90.9385 20.684 90.5705 20.828 90.2985 21.116C90.0345 21.396 89.9025 21.8 89.9025 22.328V26H88.2225V19.352H89.9025V20.18C90.1265 19.892 90.4105 19.668 90.7545 19.508C91.1065 19.34 91.4905 19.256 91.9065 19.256ZM98.7601 19.244C99.2561 19.244 99.6921 19.344 100.068 19.544C100.444 19.736 100.74 19.988 100.956 20.3V19.352H102.648V26.048C102.648 26.664 102.524 27.212 102.276 27.692C102.028 28.18 101.656 28.564 101.16 28.844C100.664 29.132 100.064 29.276 99.3601 29.276C98.4161 29.276 97.6401 29.056 97.0321 28.616C96.4321 28.176 96.0921 27.576 96.0121 26.816H97.6801C97.7681 27.12 97.9561 27.36 98.2441 27.536C98.5401 27.72 98.8961 27.812 99.3121 27.812C99.8001 27.812 100.196 27.664 100.5 27.368C100.804 27.08 100.956 26.64 100.956 26.048V25.016C100.74 25.328 100.44 25.588 100.056 25.796C99.6801 26.004 99.2481 26.108 98.7601 26.108C98.2001 26.108 97.6881 25.964 97.2241 25.676C96.7601 25.388 96.3921 24.984 96.1201 24.464C95.8561 23.936 95.7241 23.332 95.7241 22.652C95.7241 21.98 95.8561 21.384 96.1201 20.864C96.3921 20.344 96.7561 19.944 97.2121 19.664C97.6761 19.384 98.1921 19.244 98.7601 19.244ZM100.956 22.676C100.956 22.268 100.876 21.92 100.716 21.632C100.556 21.336 100.34 21.112 100.068 20.96C99.7961 20.8 99.5041 20.72 99.1921 20.72C98.8801 20.72 98.5921 20.796 98.3281 20.948C98.0641 21.1 97.8481 21.324 97.6801 21.62C97.5201 21.908 97.4401 22.252 97.4401 22.652C97.4401 23.052 97.5201 23.404 97.6801 23.708C97.8481 24.004 98.0641 24.232 98.3281 24.392C98.6001 24.552 98.8881 24.632 99.1921 24.632C99.5041 24.632 99.7961 24.556 100.068 24.404C100.34 24.244 100.556 24.02 100.716 23.732C100.876 23.436 100.956 23.084 100.956 22.676ZM114.096 17.624V26H112.416V22.436H108.828V26H107.148V17.624H108.828V21.068H112.416V17.624H114.096ZM117.43 17.624V26H115.75V17.624H117.43ZM124.922 20.144C124.73 19.792 124.466 19.524 124.13 19.34C123.794 19.156 123.402 19.064 122.954 19.064C122.458 19.064 122.018 19.176 121.634 19.4C121.25 19.624 120.95 19.944 120.734 20.36C120.518 20.776 120.41 21.256 120.41 21.8C120.41 22.36 120.518 22.848 120.734 23.264C120.958 23.68 121.266 24 121.658 24.224C122.05 24.448 122.506 24.56 123.026 24.56C123.666 24.56 124.19 24.392 124.598 24.056C125.006 23.712 125.274 23.236 125.402 22.628H122.522V21.344H127.058V22.808C126.946 23.392 126.706 23.932 126.338 24.428C125.97 24.924 125.494 25.324 124.91 25.628C124.334 25.924 123.686 26.072 122.966 26.072C122.158 26.072 121.426 25.892 120.77 25.532C120.122 25.164 119.61 24.656 119.234 24.008C118.866 23.36 118.682 22.624 118.682 21.8C118.682 20.976 118.866 20.24 119.234 19.592C119.61 18.936 120.122 18.428 120.77 18.068C121.426 17.7 122.154 17.516 122.954 17.516C123.898 17.516 124.718 17.748 125.414 18.212C126.11 18.668 126.59 19.312 126.854 20.144H124.922ZM135.249 17.624V26H133.569V22.436H129.981V26H128.301V17.624H129.981V21.068H133.569V17.624H135.249ZM142.69 17.624C143.57 17.624 144.342 17.796 145.006 18.14C145.678 18.484 146.194 18.976 146.554 19.616C146.922 20.248 147.106 20.984 147.106 21.824C147.106 22.664 146.922 23.4 146.554 24.032C146.194 24.656 145.678 25.14 145.006 25.484C144.342 25.828 143.57 26 142.69 26H139.762V17.624H142.69ZM142.63 24.572C143.51 24.572 144.19 24.332 144.67 23.852C145.15 23.372 145.39 22.696 145.39 21.824C145.39 20.952 145.15 20.272 144.67 19.784C144.19 19.288 143.51 19.04 142.63 19.04H141.442V24.572H142.63ZM154.543 22.532C154.543 22.772 154.527 22.988 154.495 23.18H149.635C149.675 23.66 149.843 24.036 150.139 24.308C150.435 24.58 150.799 24.716 151.231 24.716C151.855 24.716 152.299 24.448 152.563 23.912H154.375C154.183 24.552 153.815 25.08 153.271 25.496C152.727 25.904 152.059 26.108 151.267 26.108C150.627 26.108 150.051 25.968 149.539 25.688C149.035 25.4 148.639 24.996 148.351 24.476C148.071 23.956 147.931 23.356 147.931 22.676C147.931 21.988 148.071 21.384 148.351 20.864C148.631 20.344 149.023 19.944 149.527 19.664C150.031 19.384 150.611 19.244 151.267 19.244C151.899 19.244 152.463 19.38 152.959 19.652C153.463 19.924 153.851 20.312 154.123 20.816C154.403 21.312 154.543 21.884 154.543 22.532ZM152.803 22.052C152.795 21.62 152.639 21.276 152.335 21.02C152.031 20.756 151.659 20.624 151.219 20.624C150.803 20.624 150.451 20.752 150.163 21.008C149.883 21.256 149.711 21.604 149.647 22.052H152.803ZM164.025 19.256C164.841 19.256 165.497 19.508 165.993 20.012C166.497 20.508 166.749 21.204 166.749 22.1V26H165.069V22.328C165.069 21.808 164.937 21.412 164.673 21.14C164.409 20.86 164.049 20.72 163.593 20.72C163.137 20.72 162.773 20.86 162.501 21.14C162.237 21.412 162.105 21.808 162.105 22.328V26H160.425V22.328C160.425 21.808 160.293 21.412 160.029 21.14C159.765 20.86 159.405 20.72 158.949 20.72C158.485 20.72 158.117 20.86 157.845 21.14C157.581 21.412 157.449 21.808 157.449 22.328V26H155.769V19.352H157.449V20.156C157.665 19.876 157.941 19.656 158.277 19.496C158.621 19.336 158.997 19.256 159.405 19.256C159.925 19.256 160.389 19.368 160.797 19.592C161.205 19.808 161.521 20.12 161.745 20.528C161.961 20.144 162.273 19.836 162.681 19.604C163.097 19.372 163.545 19.256 164.025 19.256ZM167.912 22.652C167.912 21.98 168.044 21.384 168.308 20.864C168.58 20.344 168.944 19.944 169.4 19.664C169.864 19.384 170.38 19.244 170.948 19.244C171.444 19.244 171.876 19.344 172.244 19.544C172.62 19.744 172.92 19.996 173.144 20.3V19.352H174.836V26H173.144V25.028C172.928 25.34 172.628 25.6 172.244 25.808C171.868 26.008 171.432 26.108 170.936 26.108C170.376 26.108 169.864 25.964 169.4 25.676C168.944 25.388 168.58 24.984 168.308 24.464C168.044 23.936 167.912 23.332 167.912 22.652ZM173.144 22.676C173.144 22.268 173.064 21.92 172.904 21.632C172.744 21.336 172.528 21.112 172.256 20.96C171.984 20.8 171.692 20.72 171.38 20.72C171.068 20.72 170.78 20.796 170.516 20.948C170.252 21.1 170.036 21.324 169.868 21.62C169.708 21.908 169.628 22.252 169.628 22.652C169.628 23.052 169.708 23.404 169.868 23.708C170.036 24.004 170.252 24.232 170.516 24.392C170.788 24.552 171.076 24.632 171.38 24.632C171.692 24.632 171.984 24.556 172.256 24.404C172.528 24.244 172.744 24.02 172.904 23.732C173.064 23.436 173.144 23.084 173.144 22.676ZM180.16 19.256C180.952 19.256 181.592 19.508 182.08 20.012C182.568 20.508 182.812 21.204 182.812 22.1V26H181.132V22.328C181.132 21.8 181 21.396 180.736 21.116C180.472 20.828 180.112 20.684 179.656 20.684C179.192 20.684 178.824 20.828 178.552 21.116C178.288 21.396 178.156 21.8 178.156 22.328V26H176.476V19.352H178.156V20.18C178.38 19.892 178.664 19.668 179.008 19.508C179.36 19.34 179.744 19.256 180.16 19.256ZM183.978 22.652C183.978 21.98 184.11 21.384 184.374 20.864C184.646 20.344 185.014 19.944 185.478 19.664C185.942 19.384 186.458 19.244 187.026 19.244C187.458 19.244 187.87 19.34 188.262 19.532C188.654 19.716 188.966 19.964 189.198 20.276V17.12H190.902V26H189.198V25.016C188.99 25.344 188.698 25.608 188.322 25.808C187.946 26.008 187.51 26.108 187.014 26.108C186.454 26.108 185.942 25.964 185.478 25.676C185.014 25.388 184.646 24.984 184.374 24.464C184.11 23.936 183.978 23.332 183.978 22.652ZM189.21 22.676C189.21 22.268 189.13 21.92 188.97 21.632C188.81 21.336 188.594 21.112 188.322 20.96C188.05 20.8 187.758 20.72 187.446 20.72C187.134 20.72 186.846 20.796 186.582 20.948C186.318 21.1 186.102 21.324 185.934 21.62C185.774 21.908 185.694 22.252 185.694 22.652C185.694 23.052 185.774 23.404 185.934 23.708C186.102 24.004 186.318 24.232 186.582 24.392C186.854 24.552 187.142 24.632 187.446 24.632C187.758 24.632 188.05 24.556 188.322 24.404C188.594 24.244 188.81 24.02 188.97 23.732C189.13 23.436 189.21 23.084 189.21 22.676ZM197.082 24.668H199.842V26H195.402V17.624H197.082V24.668ZM204.798 26.084C204.014 26.084 203.294 25.9 202.638 25.532C201.982 25.164 201.462 24.656 201.078 24.008C200.694 23.352 200.502 22.612 200.502 21.788C200.502 20.972 200.694 20.24 201.078 19.592C201.462 18.936 201.982 18.424 202.638 18.056C203.294 17.688 204.014 17.504 204.798 17.504C205.59 17.504 206.31 17.688 206.958 18.056C207.614 18.424 208.13 18.936 208.506 19.592C208.89 20.24 209.082 20.972 209.082 21.788C209.082 22.612 208.89 23.352 208.506 24.008C208.13 24.656 207.614 25.164 206.958 25.532C206.302 25.9 205.582 26.084 204.798 26.084ZM204.798 24.584C205.302 24.584 205.746 24.472 206.13 24.248C206.514 24.016 206.814 23.688 207.03 23.264C207.246 22.84 207.354 22.348 207.354 21.788C207.354 21.228 207.246 20.74 207.03 20.324C206.814 19.9 206.514 19.576 206.13 19.352C205.746 19.128 205.302 19.016 204.798 19.016C204.294 19.016 203.846 19.128 203.454 19.352C203.07 19.576 202.77 19.9 202.554 20.324C202.338 20.74 202.23 21.228 202.23 21.788C202.23 22.348 202.338 22.84 202.554 23.264C202.77 23.688 203.07 24.016 203.454 24.248C203.846 24.472 204.294 24.584 204.798 24.584ZM221.528 17.624L219.188 26H217.208L215.636 20.036L213.992 26L212.024 26.012L209.768 17.624H211.568L213.044 24.128L214.748 17.624H216.62L218.228 24.092L219.716 17.624H221.528ZM229.804 26L227.956 22.736H227.164V26H225.484V17.624H228.628C229.276 17.624 229.828 17.74 230.284 17.972C230.74 18.196 231.08 18.504 231.304 18.896C231.536 19.28 231.652 19.712 231.652 20.192C231.652 20.744 231.492 21.244 231.172 21.692C230.852 22.132 230.376 22.436 229.744 22.604L231.748 26H229.804ZM227.164 21.476H228.568C229.024 21.476 229.364 21.368 229.588 21.152C229.812 20.928 229.924 20.62 229.924 20.228C229.924 19.844 229.812 19.548 229.588 19.34C229.364 19.124 229.024 19.016 228.568 19.016H227.164V21.476ZM239.352 22.532C239.352 22.772 239.336 22.988 239.304 23.18H234.444C234.484 23.66 234.652 24.036 234.948 24.308C235.244 24.58 235.608 24.716 236.04 24.716C236.664 24.716 237.108 24.448 237.372 23.912H239.184C238.992 24.552 238.624 25.08 238.08 25.496C237.536 25.904 236.868 26.108 236.076 26.108C235.436 26.108 234.86 25.968 234.348 25.688C233.844 25.4 233.448 24.996 233.16 24.476C232.88 23.956 232.74 23.356 232.74 22.676C232.74 21.988 232.88 21.384 233.16 20.864C233.44 20.344 233.832 19.944 234.336 19.664C234.84 19.384 235.42 19.244 236.076 19.244C236.708 19.244 237.272 19.38 237.768 19.652C238.272 19.924 238.66 20.312 238.932 20.816C239.212 21.312 239.352 21.884 239.352 22.532ZM237.612 22.052C237.604 21.62 237.448 21.276 237.144 21.02C236.84 20.756 236.468 20.624 236.028 20.624C235.612 20.624 235.26 20.752 234.972 21.008C234.692 21.256 234.52 21.604 234.456 22.052H237.612ZM243.122 26.108C242.578 26.108 242.09 26.012 241.658 25.82C241.226 25.62 240.882 25.352 240.626 25.016C240.378 24.68 240.242 24.308 240.218 23.9H241.91C241.942 24.156 242.066 24.368 242.282 24.536C242.506 24.704 242.782 24.788 243.11 24.788C243.43 24.788 243.678 24.724 243.854 24.596C244.038 24.468 244.13 24.304 244.13 24.104C244.13 23.888 244.018 23.728 243.794 23.624C243.578 23.512 243.23 23.392 242.75 23.264C242.254 23.144 241.846 23.02 241.526 22.892C241.214 22.764 240.942 22.568 240.71 22.304C240.486 22.04 240.374 21.684 240.374 21.236C240.374 20.868 240.478 20.532 240.686 20.228C240.902 19.924 241.206 19.684 241.598 19.508C241.998 19.332 242.466 19.244 243.002 19.244C243.794 19.244 244.426 19.444 244.898 19.844C245.37 20.236 245.63 20.768 245.678 21.44H244.07C244.046 21.176 243.934 20.968 243.734 20.816C243.542 20.656 243.282 20.576 242.954 20.576C242.65 20.576 242.414 20.632 242.246 20.744C242.086 20.856 242.006 21.012 242.006 21.212C242.006 21.436 242.118 21.608 242.342 21.728C242.566 21.84 242.914 21.956 243.386 22.076C243.866 22.196 244.262 22.32 244.574 22.448C244.886 22.576 245.154 22.776 245.378 23.048C245.61 23.312 245.73 23.664 245.738 24.104C245.738 24.488 245.63 24.832 245.414 25.136C245.206 25.44 244.902 25.68 244.502 25.856C244.11 26.024 243.65 26.108 243.122 26.108ZM250.069 26.108C249.429 26.108 248.853 25.968 248.341 25.688C247.829 25.4 247.425 24.996 247.129 24.476C246.841 23.956 246.697 23.356 246.697 22.676C246.697 21.996 246.845 21.396 247.141 20.876C247.445 20.356 247.857 19.956 248.377 19.676C248.897 19.388 249.477 19.244 250.117 19.244C250.757 19.244 251.337 19.388 251.857 19.676C252.377 19.956 252.785 20.356 253.081 20.876C253.385 21.396 253.537 21.996 253.537 22.676C253.537 23.356 253.381 23.956 253.069 24.476C252.765 24.996 252.349 25.4 251.821 25.688C251.301 25.968 250.717 26.108 250.069 26.108ZM250.069 24.644C250.373 24.644 250.657 24.572 250.921 24.428C251.193 24.276 251.409 24.052 251.569 23.756C251.729 23.46 251.809 23.1 251.809 22.676C251.809 22.044 251.641 21.56 251.305 21.224C250.977 20.88 250.573 20.708 250.093 20.708C249.613 20.708 249.209 20.88 248.881 21.224C248.561 21.56 248.401 22.044 248.401 22.676C248.401 23.308 248.557 23.796 248.869 24.14C249.189 24.476 249.589 24.644 250.069 24.644ZM261.045 19.352V26H259.353V25.16C259.137 25.448 258.853 25.676 258.501 25.844C258.157 26.004 257.781 26.084 257.373 26.084C256.853 26.084 256.393 25.976 255.993 25.76C255.593 25.536 255.277 25.212 255.045 24.788C254.821 24.356 254.709 23.844 254.709 23.252V19.352H256.389V23.012C256.389 23.54 256.521 23.948 256.785 24.236C257.049 24.516 257.409 24.656 257.865 24.656C258.329 24.656 258.693 24.516 258.957 24.236C259.221 23.948 259.353 23.54 259.353 23.012V19.352H261.045ZM264.383 20.384C264.599 20.032 264.879 19.756 265.223 19.556C265.575 19.356 265.975 19.256 266.423 19.256V21.02H265.979C265.451 21.02 265.051 21.144 264.779 21.392C264.515 21.64 264.383 22.072 264.383 22.688V26H262.703V19.352H264.383V20.384ZM267.123 22.676C267.123 21.988 267.263 21.388 267.543 20.876C267.823 20.356 268.211 19.956 268.707 19.676C269.203 19.388 269.771 19.244 270.411 19.244C271.235 19.244 271.915 19.452 272.451 19.868C272.995 20.276 273.359 20.852 273.543 21.596H271.731C271.635 21.308 271.471 21.084 271.239 20.924C271.015 20.756 270.735 20.672 270.399 20.672C269.919 20.672 269.539 20.848 269.259 21.2C268.979 21.544 268.839 22.036 268.839 22.676C268.839 23.308 268.979 23.8 269.259 24.152C269.539 24.496 269.919 24.668 270.399 24.668C271.079 24.668 271.523 24.364 271.731 23.756H273.543C273.359 24.476 272.995 25.048 272.451 25.472C271.907 25.896 271.227 26.108 270.411 26.108C269.771 26.108 269.203 25.968 268.707 25.688C268.211 25.4 267.823 25 267.543 24.488C267.263 23.968 267.123 23.364 267.123 22.676ZM280.953 22.532C280.953 22.772 280.937 22.988 280.905 23.18H276.045C276.085 23.66 276.253 24.036 276.549 24.308C276.845 24.58 277.209 24.716 277.641 24.716C278.265 24.716 278.709 24.448 278.973 23.912H280.785C280.593 24.552 280.225 25.08 279.681 25.496C279.137 25.904 278.469 26.108 277.677 26.108C277.037 26.108 276.461 25.968 275.949 25.688C275.445 25.4 275.049 24.996 274.761 24.476C274.481 23.956 274.341 23.356 274.341 22.676C274.341 21.988 274.481 21.384 274.761 20.864C275.041 20.344 275.433 19.944 275.937 19.664C276.441 19.384 277.021 19.244 277.677 19.244C278.309 19.244 278.873 19.38 279.369 19.652C279.873 19.924 280.261 20.312 280.533 20.816C280.813 21.312 280.953 21.884 280.953 22.532ZM279.213 22.052C279.205 21.62 279.049 21.276 278.745 21.02C278.441 20.756 278.069 20.624 277.629 20.624C277.213 20.624 276.861 20.752 276.573 21.008C276.293 21.256 276.121 21.604 276.057 22.052H279.213Z" fill="#464646"/>
</g>
<defs>
<filter id="filter0_d_109_14848" x="0" y="0" width="300" height="48" filterUnits="userSpaceOnUse" color-interpolation-filters="sRGB">
<feFlood flood-opacity="0" result="BackgroundImageFix"/>
<feColorMatrix in="SourceAlpha" type="matrix" values="0 0 0 0 0 0 0 0 0 0 0 0 0 0 0 0 0 0 127 0" result="hardAlpha"/>
<feOffset dx="2" dy="2"/>
<feGaussianBlur stdDeviation="2"/>
<feComposite in2="hardAlpha" operator="out"/>
<feColorMatrix type="matrix" values="0 0 0 0 0 0 0 0 0 0 0 0 0 0 0 0 0 0 0.25 0"/>
<feBlend mode="normal" in2="BackgroundImageFix" result="effect1_dropShadow_109_14848"/>
<feBlend mode="normal" in="SourceGraphic" in2="effect1_dropShadow_109_14848" result="shape"/>
</filter>
<linearGradient id="paint0_linear_109_14848" x1="12" y1="12" x2="39.2917" y2="39.2917" gradientUnits="userSpaceOnUse">
<stop stop-color="#FFAF62"/>
<stop offset="1" stop-color="#DA7F27"/>
</linearGradient>
</defs>
</svg>
