<svg width="273" height="48" viewBox="0 0 273 48" fill="none" xmlns="http://www.w3.org/2000/svg">
<g filter="url(#filter0_d_109_14939)">
<rect x="2" y="2" width="265" height="40" rx="8" fill="white"/>
<path d="M22 12C16.477 12 12 16.477 12 22C12 27.523 16.477 32 22 32C27.523 32 32 27.523 32 22C32 16.477 27.523 12 22 12ZM25.75 23C25.75 23.414 25.414 23.75 25 23.75C24.586 23.75 24.25 23.414 24.25 23V20.811L19.53 25.531C19.384 25.677 19.192 25.751 19 25.751C18.808 25.751 18.616 25.678 18.47 25.531C18.177 25.238 18.177 24.763 18.47 24.47L23.1899 19.75H21C20.586 19.75 20.25 19.414 20.25 19C20.25 18.586 20.586 18.25 21 18.25H25C25.098 18.25 25.1951 18.2701 25.2871 18.3081C25.4701 18.3841 25.6161 18.5301 25.6931 18.7141C25.7311 18.8061 25.751 18.903 25.751 19.001V23H25.75Z" fill="url(#paint0_linear_109_14939)"/>
<path d="M38.432 18.8V17.252H41.324V26H39.596V18.8H38.432ZM52.3077 17.624V26H50.6277V20.552L48.3837 26H47.1117L44.8557 20.552V26H43.1757V17.624H45.0837L47.7477 23.852L50.4117 17.624H52.3077ZM61.1326 26H59.4526L55.6486 20.252V26H53.9686V17.612H55.6486L59.4526 23.372V17.612H61.1326V26ZM69.0688 22.46H66.8008V24.788H65.2168V22.46H62.9488V20.996H65.2168V18.668H66.8008V20.996H69.0688V22.46ZM78.4902 21.704C78.9622 21.792 79.3502 22.028 79.6542 22.412C79.9582 22.796 80.1102 23.236 80.1102 23.732C80.1102 24.18 79.9982 24.576 79.7742 24.92C79.5582 25.256 79.2422 25.52 78.8262 25.712C78.4102 25.904 77.9182 26 77.3502 26H73.7382V17.624H77.1942C77.7622 17.624 78.2502 17.716 78.6582 17.9C79.0742 18.084 79.3862 18.34 79.5942 18.668C79.8102 18.996 79.9182 19.368 79.9182 19.784C79.9182 20.272 79.7862 20.68 79.5222 21.008C79.2662 21.336 78.9222 21.568 78.4902 21.704ZM75.4182 21.08H76.9542C77.3542 21.08 77.6622 20.992 77.8782 20.816C78.0942 20.632 78.2022 20.372 78.2022 20.036C78.2022 19.7 78.0942 19.44 77.8782 19.256C77.6622 19.072 77.3542 18.98 76.9542 18.98H75.4182V21.08ZM77.1102 24.632C77.5182 24.632 77.8342 24.536 78.0582 24.344C78.2902 24.152 78.4062 23.88 78.4062 23.528C78.4062 23.168 78.2862 22.888 78.0462 22.688C77.8062 22.48 77.4822 22.376 77.0742 22.376H75.4182V24.632H77.1102ZM87.6291 22.532C87.6291 22.772 87.6131 22.988 87.5811 23.18H82.7211C82.7611 23.66 82.9291 24.036 83.2251 24.308C83.5211 24.58 83.8851 24.716 84.3171 24.716C84.9411 24.716 85.3851 24.448 85.6491 23.912H87.4611C87.2691 24.552 86.9011 25.08 86.3571 25.496C85.8131 25.904 85.1451 26.108 84.3531 26.108C83.7131 26.108 83.1371 25.968 82.6251 25.688C82.1211 25.4 81.7251 24.996 81.4371 24.476C81.1571 23.956 81.0171 23.356 81.0171 22.676C81.0171 21.988 81.1571 21.384 81.4371 20.864C81.7171 20.344 82.1091 19.944 82.6131 19.664C83.1171 19.384 83.6971 19.244 84.3531 19.244C84.9851 19.244 85.5491 19.38 86.0451 19.652C86.5491 19.924 86.9371 20.312 87.2091 20.816C87.4891 21.312 87.6291 21.884 87.6291 22.532ZM85.8891 22.052C85.8811 21.62 85.7251 21.276 85.4211 21.02C85.1171 20.756 84.7451 20.624 84.3051 20.624C83.8891 20.624 83.5371 20.752 83.2491 21.008C82.9691 21.256 82.7971 21.604 82.7331 22.052H85.8891ZM92.5993 19.256C93.1033 19.256 93.5513 19.368 93.9433 19.592C94.3353 19.808 94.6393 20.132 94.8553 20.564C95.0793 20.988 95.1913 21.5 95.1913 22.1V26H93.5113V22.328C93.5113 21.8 93.3793 21.396 93.1153 21.116C92.8513 20.828 92.4913 20.684 92.0353 20.684C91.5713 20.684 91.2033 20.828 90.9313 21.116C90.6673 21.396 90.5353 21.8 90.5353 22.328V26H88.8553V17.12H90.5353V20.18C90.7513 19.892 91.0393 19.668 91.3993 19.508C91.7593 19.34 92.1593 19.256 92.5993 19.256ZM96.3569 22.652C96.3569 21.98 96.4889 21.384 96.7529 20.864C97.0249 20.344 97.3889 19.944 97.8449 19.664C98.3089 19.384 98.8249 19.244 99.3929 19.244C99.8889 19.244 100.321 19.344 100.689 19.544C101.065 19.744 101.365 19.996 101.589 20.3V19.352H103.281V26H101.589V25.028C101.373 25.34 101.073 25.6 100.689 25.808C100.313 26.008 99.8769 26.108 99.3809 26.108C98.8209 26.108 98.3089 25.964 97.8449 25.676C97.3889 25.388 97.0249 24.984 96.7529 24.464C96.4889 23.936 96.3569 23.332 96.3569 22.652ZM101.589 22.676C101.589 22.268 101.509 21.92 101.349 21.632C101.189 21.336 100.973 21.112 100.701 20.96C100.429 20.8 100.137 20.72 99.8249 20.72C99.5129 20.72 99.2249 20.796 98.9609 20.948C98.6969 21.1 98.4809 21.324 98.3129 21.62C98.1529 21.908 98.0729 22.252 98.0729 22.652C98.0729 23.052 98.1529 23.404 98.3129 23.708C98.4809 24.004 98.6969 24.232 98.9609 24.392C99.2329 24.552 99.5209 24.632 99.8249 24.632C100.137 24.632 100.429 24.556 100.701 24.404C100.973 24.244 101.189 24.02 101.349 23.732C101.509 23.436 101.589 23.084 101.589 22.676ZM107.694 24.452L109.374 19.352H111.162L108.702 26H106.662L104.214 19.352H106.014L107.694 24.452ZM112.957 18.56C112.661 18.56 112.413 18.468 112.213 18.284C112.021 18.092 111.925 17.856 111.925 17.576C111.925 17.296 112.021 17.064 112.213 16.88C112.413 16.688 112.661 16.592 112.957 16.592C113.253 16.592 113.497 16.688 113.689 16.88C113.889 17.064 113.989 17.296 113.989 17.576C113.989 17.856 113.889 18.092 113.689 18.284C113.497 18.468 113.253 18.56 112.957 18.56ZM113.785 19.352V26H112.105V19.352H113.785ZM118.397 26.108C117.757 26.108 117.181 25.968 116.669 25.688C116.157 25.4 115.753 24.996 115.457 24.476C115.169 23.956 115.025 23.356 115.025 22.676C115.025 21.996 115.173 21.396 115.469 20.876C115.773 20.356 116.185 19.956 116.705 19.676C117.225 19.388 117.805 19.244 118.445 19.244C119.085 19.244 119.665 19.388 120.185 19.676C120.705 19.956 121.113 20.356 121.409 20.876C121.713 21.396 121.865 21.996 121.865 22.676C121.865 23.356 121.709 23.956 121.397 24.476C121.093 24.996 120.677 25.4 120.149 25.688C119.629 25.968 119.045 26.108 118.397 26.108ZM118.397 24.644C118.701 24.644 118.985 24.572 119.249 24.428C119.521 24.276 119.737 24.052 119.897 23.756C120.057 23.46 120.137 23.1 120.137 22.676C120.137 22.044 119.969 21.56 119.633 21.224C119.305 20.88 118.901 20.708 118.421 20.708C117.941 20.708 117.537 20.88 117.209 21.224C116.889 21.56 116.729 22.044 116.729 22.676C116.729 23.308 116.885 23.796 117.197 24.14C117.517 24.476 117.917 24.644 118.397 24.644ZM129.374 19.352V26H127.682V25.16C127.466 25.448 127.182 25.676 126.83 25.844C126.486 26.004 126.11 26.084 125.702 26.084C125.182 26.084 124.722 25.976 124.322 25.76C123.922 25.536 123.606 25.212 123.374 24.788C123.15 24.356 123.038 23.844 123.038 23.252V19.352H124.718V23.012C124.718 23.54 124.85 23.948 125.114 24.236C125.378 24.516 125.738 24.656 126.194 24.656C126.658 24.656 127.022 24.516 127.286 24.236C127.55 23.948 127.682 23.54 127.682 23.012V19.352H129.374ZM132.711 20.384C132.927 20.032 133.207 19.756 133.551 19.556C133.903 19.356 134.303 19.256 134.751 19.256V21.02H134.307C133.779 21.02 133.379 21.144 133.107 21.392C132.843 21.64 132.711 22.072 132.711 22.688V26H131.031V19.352H132.711V20.384ZM135.451 22.652C135.451 21.98 135.583 21.384 135.847 20.864C136.119 20.344 136.483 19.944 136.939 19.664C137.403 19.384 137.919 19.244 138.487 19.244C138.983 19.244 139.415 19.344 139.783 19.544C140.159 19.744 140.459 19.996 140.683 20.3V19.352H142.375V26H140.683V25.028C140.467 25.34 140.167 25.6 139.783 25.808C139.407 26.008 138.971 26.108 138.475 26.108C137.915 26.108 137.403 25.964 136.939 25.676C136.483 25.388 136.119 24.984 135.847 24.464C135.583 23.936 135.451 23.332 135.451 22.652ZM140.683 22.676C140.683 22.268 140.603 21.92 140.443 21.632C140.283 21.336 140.067 21.112 139.795 20.96C139.523 20.8 139.231 20.72 138.919 20.72C138.607 20.72 138.319 20.796 138.055 20.948C137.791 21.1 137.575 21.324 137.407 21.62C137.247 21.908 137.167 22.252 137.167 22.652C137.167 23.052 137.247 23.404 137.407 23.708C137.575 24.004 137.791 24.232 138.055 24.392C138.327 24.552 138.615 24.632 138.919 24.632C139.231 24.632 139.523 24.556 139.795 24.404C140.067 24.244 140.283 24.02 140.443 23.732C140.603 23.436 140.683 23.084 140.683 22.676ZM145.696 17.12V26H144.016V17.12H145.696ZM153.107 26.084C152.523 26.084 151.995 25.984 151.523 25.784C151.059 25.584 150.691 25.296 150.419 24.92C150.147 24.544 150.007 24.1 149.999 23.588H151.799C151.823 23.932 151.943 24.204 152.159 24.404C152.383 24.604 152.687 24.704 153.071 24.704C153.463 24.704 153.771 24.612 153.995 24.428C154.219 24.236 154.331 23.988 154.331 23.684C154.331 23.436 154.255 23.232 154.103 23.072C153.951 22.912 153.759 22.788 153.527 22.7C153.303 22.604 152.991 22.5 152.591 22.388C152.047 22.228 151.603 22.072 151.259 21.92C150.923 21.76 150.631 21.524 150.383 21.212C150.143 20.892 150.023 20.468 150.023 19.94C150.023 19.444 150.147 19.012 150.395 18.644C150.643 18.276 150.991 17.996 151.439 17.804C151.887 17.604 152.399 17.504 152.975 17.504C153.839 17.504 154.539 17.716 155.075 18.14C155.619 18.556 155.919 19.14 155.975 19.892H154.127C154.111 19.604 153.987 19.368 153.755 19.184C153.531 18.992 153.231 18.896 152.855 18.896C152.527 18.896 152.263 18.98 152.063 19.148C151.871 19.316 151.775 19.56 151.775 19.88C151.775 20.104 151.847 20.292 151.991 20.444C152.143 20.588 152.327 20.708 152.543 20.804C152.767 20.892 153.079 20.996 153.479 21.116C154.023 21.276 154.467 21.436 154.811 21.596C155.155 21.756 155.451 21.996 155.699 22.316C155.947 22.636 156.071 23.056 156.071 23.576C156.071 24.024 155.955 24.44 155.723 24.824C155.491 25.208 155.151 25.516 154.703 25.748C154.255 25.972 153.723 26.084 153.107 26.084ZM158.379 18.56C158.083 18.56 157.835 18.468 157.635 18.284C157.443 18.092 157.347 17.856 157.347 17.576C157.347 17.296 157.443 17.064 157.635 16.88C157.835 16.688 158.083 16.592 158.379 16.592C158.675 16.592 158.919 16.688 159.111 16.88C159.311 17.064 159.411 17.296 159.411 17.576C159.411 17.856 159.311 18.092 159.111 18.284C158.919 18.468 158.675 18.56 158.379 18.56ZM159.207 19.352V26H157.527V19.352H159.207ZM163.471 19.244C163.967 19.244 164.403 19.344 164.779 19.544C165.155 19.736 165.451 19.988 165.667 20.3V19.352H167.359V26.048C167.359 26.664 167.235 27.212 166.987 27.692C166.739 28.18 166.367 28.564 165.871 28.844C165.375 29.132 164.775 29.276 164.071 29.276C163.127 29.276 162.351 29.056 161.743 28.616C161.143 28.176 160.803 27.576 160.723 26.816H162.391C162.479 27.12 162.667 27.36 162.955 27.536C163.251 27.72 163.607 27.812 164.023 27.812C164.511 27.812 164.907 27.664 165.211 27.368C165.515 27.08 165.667 26.64 165.667 26.048V25.016C165.451 25.328 165.151 25.588 164.767 25.796C164.391 26.004 163.959 26.108 163.471 26.108C162.911 26.108 162.399 25.964 161.935 25.676C161.471 25.388 161.103 24.984 160.831 24.464C160.567 23.936 160.435 23.332 160.435 22.652C160.435 21.98 160.567 21.384 160.831 20.864C161.103 20.344 161.467 19.944 161.923 19.664C162.387 19.384 162.903 19.244 163.471 19.244ZM165.667 22.676C165.667 22.268 165.587 21.92 165.427 21.632C165.267 21.336 165.051 21.112 164.779 20.96C164.507 20.8 164.215 20.72 163.903 20.72C163.591 20.72 163.303 20.796 163.039 20.948C162.775 21.1 162.559 21.324 162.391 21.62C162.231 21.908 162.151 22.252 162.151 22.652C162.151 23.052 162.231 23.404 162.391 23.708C162.559 24.004 162.775 24.232 163.039 24.392C163.311 24.552 163.599 24.632 163.903 24.632C164.215 24.632 164.507 24.556 164.779 24.404C165.051 24.244 165.267 24.02 165.427 23.732C165.587 23.436 165.667 23.084 165.667 22.676ZM172.684 19.256C173.476 19.256 174.116 19.508 174.604 20.012C175.092 20.508 175.336 21.204 175.336 22.1V26H173.656V22.328C173.656 21.8 173.524 21.396 173.26 21.116C172.996 20.828 172.636 20.684 172.18 20.684C171.716 20.684 171.348 20.828 171.076 21.116C170.812 21.396 170.68 21.8 170.68 22.328V26H169V19.352H170.68V20.18C170.904 19.892 171.188 19.668 171.532 19.508C171.884 19.34 172.268 19.256 172.684 19.256ZM176.501 22.652C176.501 21.98 176.633 21.384 176.897 20.864C177.169 20.344 177.533 19.944 177.989 19.664C178.453 19.384 178.969 19.244 179.537 19.244C180.033 19.244 180.465 19.344 180.833 19.544C181.209 19.744 181.509 19.996 181.733 20.3V19.352H183.425V26H181.733V25.028C181.517 25.34 181.217 25.6 180.833 25.808C180.457 26.008 180.021 26.108 179.525 26.108C178.965 26.108 178.453 25.964 177.989 25.676C177.533 25.388 177.169 24.984 176.897 24.464C176.633 23.936 176.501 23.332 176.501 22.652ZM181.733 22.676C181.733 22.268 181.653 21.92 181.493 21.632C181.333 21.336 181.117 21.112 180.845 20.96C180.573 20.8 180.281 20.72 179.969 20.72C179.657 20.72 179.369 20.796 179.105 20.948C178.841 21.1 178.625 21.324 178.457 21.62C178.297 21.908 178.217 22.252 178.217 22.652C178.217 23.052 178.297 23.404 178.457 23.708C178.625 24.004 178.841 24.232 179.105 24.392C179.377 24.552 179.665 24.632 179.969 24.632C180.281 24.632 180.573 24.556 180.845 24.404C181.117 24.244 181.333 24.02 181.493 23.732C181.653 23.436 181.733 23.084 181.733 22.676ZM186.746 17.12V26H185.066V17.12H186.746ZM190.95 26.108C190.406 26.108 189.918 26.012 189.486 25.82C189.054 25.62 188.71 25.352 188.454 25.016C188.206 24.68 188.07 24.308 188.046 23.9H189.738C189.77 24.156 189.894 24.368 190.11 24.536C190.334 24.704 190.61 24.788 190.938 24.788C191.258 24.788 191.506 24.724 191.682 24.596C191.866 24.468 191.958 24.304 191.958 24.104C191.958 23.888 191.846 23.728 191.622 23.624C191.406 23.512 191.058 23.392 190.578 23.264C190.082 23.144 189.674 23.02 189.354 22.892C189.042 22.764 188.77 22.568 188.538 22.304C188.314 22.04 188.202 21.684 188.202 21.236C188.202 20.868 188.306 20.532 188.514 20.228C188.73 19.924 189.034 19.684 189.426 19.508C189.826 19.332 190.294 19.244 190.83 19.244C191.622 19.244 192.254 19.444 192.726 19.844C193.198 20.236 193.458 20.768 193.506 21.44H191.898C191.874 21.176 191.762 20.968 191.562 20.816C191.37 20.656 191.11 20.576 190.782 20.576C190.478 20.576 190.242 20.632 190.074 20.744C189.914 20.856 189.834 21.012 189.834 21.212C189.834 21.436 189.946 21.608 190.17 21.728C190.394 21.84 190.742 21.956 191.214 22.076C191.694 22.196 192.09 22.32 192.402 22.448C192.714 22.576 192.982 22.776 193.206 23.048C193.438 23.312 193.558 23.664 193.566 24.104C193.566 24.488 193.458 24.832 193.242 25.136C193.034 25.44 192.73 25.68 192.33 25.856C191.938 26.024 191.478 26.108 190.95 26.108ZM200.757 26.108C200.117 26.108 199.541 25.968 199.029 25.688C198.517 25.4 198.113 24.996 197.817 24.476C197.529 23.956 197.385 23.356 197.385 22.676C197.385 21.996 197.533 21.396 197.829 20.876C198.133 20.356 198.545 19.956 199.065 19.676C199.585 19.388 200.165 19.244 200.805 19.244C201.445 19.244 202.025 19.388 202.545 19.676C203.065 19.956 203.473 20.356 203.769 20.876C204.073 21.396 204.225 21.996 204.225 22.676C204.225 23.356 204.069 23.956 203.757 24.476C203.453 24.996 203.037 25.4 202.509 25.688C201.989 25.968 201.405 26.108 200.757 26.108ZM200.757 24.644C201.061 24.644 201.345 24.572 201.609 24.428C201.881 24.276 202.097 24.052 202.257 23.756C202.417 23.46 202.497 23.1 202.497 22.676C202.497 22.044 202.329 21.56 201.993 21.224C201.665 20.88 201.261 20.708 200.781 20.708C200.301 20.708 199.897 20.88 199.569 21.224C199.249 21.56 199.089 22.044 199.089 22.676C199.089 23.308 199.245 23.796 199.557 24.14C199.877 24.476 200.277 24.644 200.757 24.644ZM207.137 20.324C207.353 20.004 207.649 19.744 208.025 19.544C208.409 19.344 208.845 19.244 209.333 19.244C209.901 19.244 210.413 19.384 210.869 19.664C211.333 19.944 211.697 20.344 211.961 20.864C212.233 21.376 212.369 21.972 212.369 22.652C212.369 23.332 212.233 23.936 211.961 24.464C211.697 24.984 211.333 25.388 210.869 25.676C210.413 25.964 209.901 26.108 209.333 26.108C208.837 26.108 208.401 26.012 208.025 25.82C207.657 25.62 207.361 25.364 207.137 25.052V26H205.457V17.12H207.137V20.324ZM210.653 22.652C210.653 22.252 210.569 21.908 210.401 21.62C210.241 21.324 210.025 21.1 209.753 20.948C209.489 20.796 209.201 20.72 208.889 20.72C208.585 20.72 208.297 20.8 208.025 20.96C207.761 21.112 207.545 21.336 207.377 21.632C207.217 21.928 207.137 22.276 207.137 22.676C207.137 23.076 207.217 23.424 207.377 23.72C207.545 24.016 207.761 24.244 208.025 24.404C208.297 24.556 208.585 24.632 208.889 24.632C209.201 24.632 209.489 24.552 209.753 24.392C210.025 24.232 210.241 24.004 210.401 23.708C210.569 23.412 210.653 23.06 210.653 22.652ZM216.134 26.108C215.59 26.108 215.102 26.012 214.67 25.82C214.238 25.62 213.894 25.352 213.638 25.016C213.39 24.68 213.254 24.308 213.23 23.9H214.922C214.954 24.156 215.078 24.368 215.294 24.536C215.518 24.704 215.794 24.788 216.122 24.788C216.442 24.788 216.69 24.724 216.866 24.596C217.05 24.468 217.142 24.304 217.142 24.104C217.142 23.888 217.03 23.728 216.806 23.624C216.59 23.512 216.242 23.392 215.762 23.264C215.266 23.144 214.858 23.02 214.538 22.892C214.226 22.764 213.954 22.568 213.722 22.304C213.498 22.04 213.386 21.684 213.386 21.236C213.386 20.868 213.49 20.532 213.698 20.228C213.914 19.924 214.218 19.684 214.61 19.508C215.01 19.332 215.478 19.244 216.014 19.244C216.806 19.244 217.438 19.444 217.91 19.844C218.382 20.236 218.642 20.768 218.69 21.44H217.082C217.058 21.176 216.946 20.968 216.746 20.816C216.554 20.656 216.294 20.576 215.966 20.576C215.662 20.576 215.426 20.632 215.258 20.744C215.098 20.856 215.018 21.012 215.018 21.212C215.018 21.436 215.13 21.608 215.354 21.728C215.578 21.84 215.926 21.956 216.398 22.076C216.878 22.196 217.274 22.32 217.586 22.448C217.898 22.576 218.166 22.776 218.39 23.048C218.622 23.312 218.742 23.664 218.75 24.104C218.75 24.488 218.642 24.832 218.426 25.136C218.218 25.44 217.914 25.68 217.514 25.856C217.122 26.024 216.662 26.108 216.134 26.108ZM226.309 22.532C226.309 22.772 226.293 22.988 226.261 23.18H221.401C221.441 23.66 221.609 24.036 221.905 24.308C222.201 24.58 222.565 24.716 222.997 24.716C223.621 24.716 224.065 24.448 224.329 23.912H226.141C225.949 24.552 225.581 25.08 225.037 25.496C224.493 25.904 223.825 26.108 223.033 26.108C222.393 26.108 221.817 25.968 221.305 25.688C220.801 25.4 220.405 24.996 220.117 24.476C219.837 23.956 219.697 23.356 219.697 22.676C219.697 21.988 219.837 21.384 220.117 20.864C220.397 20.344 220.789 19.944 221.293 19.664C221.797 19.384 222.377 19.244 223.033 19.244C223.665 19.244 224.229 19.38 224.725 19.652C225.229 19.924 225.617 20.312 225.889 20.816C226.169 21.312 226.309 21.884 226.309 22.532ZM224.569 22.052C224.561 21.62 224.405 21.276 224.101 21.02C223.797 20.756 223.425 20.624 222.985 20.624C222.569 20.624 222.217 20.752 221.929 21.008C221.649 21.256 221.477 21.604 221.413 22.052H224.569ZM229.215 20.384C229.431 20.032 229.711 19.756 230.055 19.556C230.407 19.356 230.807 19.256 231.255 19.256V21.02H230.811C230.283 21.02 229.883 21.144 229.611 21.392C229.347 21.64 229.215 22.072 229.215 22.688V26H227.535V19.352H229.215V20.384ZM235.159 24.452L236.839 19.352H238.627L236.167 26H234.127L231.679 19.352H233.479L235.159 24.452ZM245.75 22.532C245.75 22.772 245.734 22.988 245.702 23.18H240.842C240.882 23.66 241.05 24.036 241.346 24.308C241.642 24.58 242.006 24.716 242.438 24.716C243.062 24.716 243.506 24.448 243.77 23.912H245.582C245.39 24.552 245.022 25.08 244.478 25.496C243.934 25.904 243.266 26.108 242.474 26.108C241.834 26.108 241.258 25.968 240.746 25.688C240.242 25.4 239.846 24.996 239.558 24.476C239.278 23.956 239.138 23.356 239.138 22.676C239.138 21.988 239.278 21.384 239.558 20.864C239.838 20.344 240.23 19.944 240.734 19.664C241.238 19.384 241.818 19.244 242.474 19.244C243.106 19.244 243.67 19.38 244.166 19.652C244.67 19.924 245.058 20.312 245.33 20.816C245.61 21.312 245.75 21.884 245.75 22.532ZM244.01 22.052C244.002 21.62 243.846 21.276 243.542 21.02C243.238 20.756 242.866 20.624 242.426 20.624C242.01 20.624 241.658 20.752 241.37 21.008C241.09 21.256 240.918 21.604 240.854 22.052H244.01ZM246.544 22.652C246.544 21.98 246.676 21.384 246.94 20.864C247.212 20.344 247.58 19.944 248.044 19.664C248.508 19.384 249.024 19.244 249.592 19.244C250.024 19.244 250.436 19.34 250.828 19.532C251.22 19.716 251.532 19.964 251.764 20.276V17.12H253.468V26H251.764V25.016C251.556 25.344 251.264 25.608 250.888 25.808C250.512 26.008 250.076 26.108 249.58 26.108C249.02 26.108 248.508 25.964 248.044 25.676C247.58 25.388 247.212 24.984 246.94 24.464C246.676 23.936 246.544 23.332 246.544 22.652ZM251.776 22.676C251.776 22.268 251.696 21.92 251.536 21.632C251.376 21.336 251.16 21.112 250.888 20.96C250.616 20.8 250.324 20.72 250.012 20.72C249.7 20.72 249.412 20.796 249.148 20.948C248.884 21.1 248.668 21.324 248.5 21.62C248.34 21.908 248.26 22.252 248.26 22.652C248.26 23.052 248.34 23.404 248.5 23.708C248.668 24.004 248.884 24.232 249.148 24.392C249.42 24.552 249.708 24.632 250.012 24.632C250.324 24.632 250.616 24.556 250.888 24.404C251.16 24.244 251.376 24.02 251.536 23.732C251.696 23.436 251.776 23.084 251.776 22.676Z" fill="#464646"/>
</g>
<defs>
<filter id="filter0_d_109_14939" x="0" y="0" width="273" height="48" filterUnits="userSpaceOnUse" color-interpolation-filters="sRGB">
<feFlood flood-opacity="0" result="BackgroundImageFix"/>
<feColorMatrix in="SourceAlpha" type="matrix" values="0 0 0 0 0 0 0 0 0 0 0 0 0 0 0 0 0 0 127 0" result="hardAlpha"/>
<feOffset dx="2" dy="2"/>
<feGaussianBlur stdDeviation="2"/>
<feComposite in2="hardAlpha" operator="out"/>
<feColorMatrix type="matrix" values="0 0 0 0 0 0 0 0 0 0 0 0 0 0 0 0 0 0 0.25 0"/>
<feBlend mode="normal" in2="BackgroundImageFix" result="effect1_dropShadow_109_14939"/>
<feBlend mode="normal" in="SourceGraphic" in2="effect1_dropShadow_109_14939" result="shape"/>
</filter>
<linearGradient id="paint0_linear_109_14939" x1="22" y1="12" x2="22" y2="32" gradientUnits="userSpaceOnUse">
<stop stop-color="#6ADCA8"/>
<stop offset="1" stop-color="#10D775"/>
</linearGradient>
</defs>
</svg>
